<?xml version="1.0" encoding="UTF-8" standalone="no"?>
<!DOCTYPE svg PUBLIC "-//W3C//DTD SVG 1.1//EN" "http://www.w3.org/Graphics/SVG/1.1/DTD/svg11.dtd">
<svg width="100%" height="100%" viewBox="0 0 452 193" version="1.1" xmlns="http://www.w3.org/2000/svg" xmlns:xlink="http://www.w3.org/1999/xlink" xml:space="preserve" xmlns:serif="http://www.serif.com/" style="fill-rule:evenodd;clip-rule:evenodd;stroke-linejoin:round;stroke-miterlimit:1.41421;">
    <g transform="matrix(1,0,0,1,-253.66,-389.849)">
        <g transform="matrix(1,0,0,1,253.66,389.849)">
            <g transform="matrix(-0.540532,-0.841324,-0.841324,0.540532,60.0832,65.8859)">
                <path d="M-80.858,28.045L3.233,28.045C3.233,28.045 11.022,37.475 12.427,46.015L-69.048,46.428L-80.858,28.045Z" style="fill:white;fill-rule:nonzero;"/>
            </g>
            <g transform="matrix(1,0,0,1,11.525,111.962)">
                <path d="M0,7.99L18.771,37.111L40.588,37.111L-2.171,-29.121C-7.964,-23.539 -12.306,-11.034 0,7.99" style="fill:white;fill-rule:nonzero;"/>
            </g>
            <g transform="matrix(1,0,0,1,35.0753,39.8828)">
                <path d="M0,5.207C6.505,5.207 72.345,5.343 72.345,5.343L59.496,-14.528L8.584,-14.528C-5.22,-14.528 -23.249,-12.087 -29.812,19.735C-20.811,7.735 -9.534,5.207 0,5.207" style="fill:white;fill-rule:nonzero;"/>
            </g>
            <g transform="matrix(1,0,0,1,90.5558,10.8105)">
                <path d="M0,8.336L-12.313,-10.81L-38.429,-10.81C-48.718,-10.81 -70.963,-9.534 -75.883,19.146C-68.102,9.44 -55.298,8.209 -50.211,8.209C-45.125,8.209 0,8.336 0,8.336" style="fill:white;fill-rule:nonzero;"/>
            </g>
            <g transform="matrix(1,0,0,1,38.3722,85.6816)">
                <path d="M0,-34.25C-14.999,-34.25 -32.095,-30.408 -37.312,-6.563C-37.312,-6.563 -38.134,-3.276 -38.372,0C-30.785,-13.259 -21.199,-14.528 -8.557,-14.528C4.085,-14.528 85.912,-14.382 85.912,-14.382L73.063,-34.25L0,-34.25Z" style="fill:white;fill-rule:nonzero;"/>
            </g>
            <g transform="matrix(0.540537,0.84132,0.84132,-0.540537,132.814,-10.9836)">
                <path d="M-15.316,-44.158L68.775,-44.158C68.775,-44.158 76.564,-34.728 77.97,-26.189L-3.505,-25.775L-15.316,-44.158Z" style="fill:white;fill-rule:nonzero;"/>
            </g>
            <g transform="matrix(1,0,0,1,156.054,37.1111)">
                <path d="M0,-7.991L-18.771,-37.111L-40.588,-37.111L2.171,29.12C7.965,23.538 12.307,11.034 0,-7.991" style="fill:white;fill-rule:nonzero;"/>
            </g>
            <g transform="matrix(1,0,0,1,132.504,109.19)">
                <path d="M0,-5.207C-6.505,-5.207 -72.345,-5.343 -72.345,-5.343L-59.495,14.528L-8.583,14.528C5.22,14.528 23.249,12.086 29.812,-19.735C20.811,-7.736 9.534,-5.207 0,-5.207" style="fill:white;fill-rule:nonzero;"/>
            </g>
            <g transform="matrix(1,0,0,1,77.0236,138.264)">
                <path d="M0,-8.338L12.313,10.809L38.429,10.809C48.718,10.809 70.963,9.533 75.883,-19.147C68.102,-9.441 55.298,-8.211 50.211,-8.211C45.124,-8.211 0,-8.338 0,-8.338" style="fill:white;fill-rule:nonzero;"/>
            </g>
            <g transform="matrix(1,0,0,1,129.207,63.3916)">
                <path d="M0,34.249C14.999,34.249 32.096,30.408 37.312,6.562C37.312,6.562 38.134,3.276 38.373,0C30.785,13.259 21.199,14.528 8.557,14.528C-4.085,14.528 -85.912,14.381 -85.912,14.381L-73.063,34.249L0,34.249Z" style="fill:white;fill-rule:nonzero;"/>
            </g>
            <g transform="matrix(1,0,0,1,220.875,65.7906)">
                <path d="M0,39.057C12.727,39.057 21.175,32.036 21.175,19.638L21.175,19.418C21.175,7.131 12.727,-0.001 0,-0.001L-8.667,-0.001L-8.667,39.057L0,39.057ZM-29.951,-18.87L-0.329,-18.87C27.099,-18.87 43.007,-3.072 43.007,19.089L43.007,19.309C43.007,41.47 26.879,57.927 -0.768,57.927L-29.951,57.927L-29.951,-18.87Z" style="fill:white;fill-rule:nonzero;"/>
            </g>
            <g transform="matrix(1,0,0,1,265.305,124.047)">
                <path d="M0,-77.126L22.491,-77.126L35.876,-32.693L50.687,-77.346L69.008,-77.346L83.819,-32.693L97.204,-77.126L119.256,-77.126L93.583,0.22L75.042,0.22L59.573,-43.994L44.214,0.22L25.673,0.22L0,-77.126Z" style="fill:white;fill-rule:nonzero;"/>
            </g>
            <g transform="matrix(1,0,0,1,393,123.718)">
                <path d="M0,-76.797L21.284,-76.797L21.284,-18.651L58.477,-18.651L58.477,0L0,0L0,-76.797Z" style="fill:white;fill-rule:nonzero;"/>
            </g>
        </g>
        <g transform="matrix(1,0,0,1,253.66,389.849)">
            <g transform="matrix(0.880096,0,0,0.880096,-234.225,-402.163)">
                <rect x="272.116" y="648.309" width="1.782" height="23.986" style="fill:white;fill-rule:nonzero;"/>
                <path d="M301.208,672.296L301.208,648.309L299.495,648.309L299.495,669.177L282.944,648.309L281.265,648.309L281.265,672.296L282.978,672.296L282.978,650.982L299.871,672.296L301.208,672.296Z" style="fill:white;fill-rule:nonzero;"/>
                <path d="M325.126,649.92L325.126,648.309L306.622,648.309L306.622,649.92L314.983,649.92L314.983,672.296L316.765,672.296L316.765,649.92L325.126,649.92Z" style="fill:white;fill-rule:nonzero;"/>
                <path d="M347.776,672.296L347.776,670.685L332.322,670.685L332.322,661.022L346.063,661.022L346.063,659.411L332.322,659.411L332.322,649.92L347.605,649.92L347.605,648.309L330.54,648.309L330.54,672.296L347.776,672.296Z" style="fill:white;fill-rule:nonzero;"/>
                <path d="M373.03,672.296L365.115,662.05C366.12,661.913 367.051,661.667 367.907,661.313C368.764,660.959 369.506,660.497 370.135,659.925C370.763,659.354 371.254,658.675 371.608,657.887C371.962,657.098 372.139,656.202 372.139,655.197L372.139,655.128C372.139,654.123 371.934,653.204 371.522,652.37C371.111,651.536 370.534,650.816 369.792,650.211C369.05,649.606 368.153,649.137 367.102,648.806C366.051,648.475 364.875,648.309 363.573,648.309L353.498,648.309L353.498,672.296L355.28,672.296L355.28,662.358L363.127,662.358L370.769,672.296L373.03,672.296ZM370.357,655.248C370.357,656.118 370.18,656.892 369.826,657.568C369.472,658.244 368.987,658.817 368.37,659.287C367.753,659.757 367.016,660.118 366.16,660.37C365.303,660.622 364.372,660.748 363.367,660.748L355.28,660.748L355.28,649.92L363.47,649.92C365.663,649.92 367.359,650.389 368.558,651.329C369.758,652.269 370.357,653.552 370.357,655.179L370.357,655.248Z" style="fill:white;fill-rule:nonzero;"/>
                <path d="M398.216,672.296L398.216,648.309L396.503,648.309L396.503,669.177L379.952,648.309L378.273,648.309L378.273,672.296L379.986,672.296L379.986,650.982L396.88,672.296L398.216,672.296Z" style="fill:white;fill-rule:nonzero;"/>
                <path d="M427.342,672.296L416.172,648.138L414.458,648.138L403.287,672.296L405.138,672.296L408.188,665.579L422.34,665.579L425.389,672.296L427.342,672.296ZM421.586,663.969L408.941,663.969L415.281,650.091L421.586,663.969Z" style="fill:white;fill-rule:nonzero;"/>
                <path d="M446.12,649.92L446.12,648.309L427.617,648.309L427.617,649.92L435.978,649.92L435.978,672.296L437.759,672.296L437.759,649.92L446.12,649.92Z" style="fill:white;fill-rule:nonzero;"/>
                <rect x="451.774" y="648.309" width="1.782" height="23.986" style="fill:white;fill-rule:nonzero;"/>
                <path d="M483.985,660.302C484.008,660.28 484.008,660.257 483.985,660.234C483.985,658.589 483.699,657.024 483.128,655.539C482.557,654.054 481.746,652.747 480.695,651.616C479.644,650.485 478.377,649.583 476.892,648.909C475.407,648.235 473.762,647.898 471.957,647.898C470.13,647.898 468.474,648.235 466.989,648.909C465.504,649.583 464.236,650.491 463.185,651.633C462.134,652.775 461.318,654.094 460.735,655.591C460.153,657.087 459.861,658.658 459.861,660.302L459.861,660.371C459.861,662.016 460.147,663.581 460.718,665.065C461.289,666.55 462.1,667.858 463.151,668.989C464.202,670.12 465.464,671.022 466.937,671.696C468.411,672.37 470.061,672.707 471.889,672.707C473.693,672.707 475.344,672.37 476.84,671.696C478.337,671.022 479.61,670.114 480.661,668.972C481.712,667.83 482.528,666.51 483.111,665.014C483.694,663.518 483.985,661.947 483.985,660.302ZM482.134,660.371C482.134,661.856 481.883,663.249 481.381,664.551C480.878,665.854 480.176,666.99 479.273,667.961C478.371,668.932 477.297,669.697 476.052,670.257C474.807,670.816 473.442,671.096 471.957,671.096C470.472,671.096 469.102,670.811 467.845,670.24C466.589,669.669 465.51,668.898 464.607,667.927C463.705,666.956 462.997,665.814 462.483,664.5C461.969,663.186 461.712,661.787 461.712,660.302L461.712,660.234C461.712,658.749 461.963,657.355 462.466,656.053C462.968,654.751 463.671,653.615 464.573,652.644C465.475,651.673 466.549,650.908 467.794,650.348C469.039,649.788 470.404,649.508 471.889,649.508C473.374,649.508 474.744,649.794 476.001,650.365C477.257,650.936 478.337,651.707 479.239,652.678C480.141,653.649 480.849,654.791 481.363,656.105C481.877,657.418 482.134,658.818 482.134,660.302L482.134,660.371Z" style="fill:white;fill-rule:nonzero;"/>
                <path d="M509.993,672.296L509.993,648.309L508.28,648.309L508.28,669.177L491.729,648.309L490.05,648.309L490.05,672.296L491.763,672.296L491.763,650.982L508.657,672.296L509.993,672.296Z" style="fill:white;fill-rule:nonzero;"/>
                <path d="M539.119,672.296L527.949,648.138L526.235,648.138L515.064,672.296L516.915,672.296L519.965,665.579L534.117,665.579L537.166,672.296L539.119,672.296ZM533.363,663.969L520.718,663.969L527.058,650.091L533.363,663.969Z" style="fill:white;fill-rule:nonzero;"/>
                <path d="M560.056,672.296L560.056,670.685L545.973,670.685L545.973,648.309L544.191,648.309L544.191,672.296L560.056,672.296Z" style="fill:white;fill-rule:nonzero;"/>
                <path d="M592.575,649.92L592.575,648.309L575.682,648.309L575.682,672.296L577.464,672.296L577.464,661.433L591.033,661.433L591.033,659.823L577.464,659.823L577.464,649.92L592.575,649.92Z" style="fill:white;fill-rule:nonzero;"/>
                <path d="M620.536,660.302C620.559,660.28 620.559,660.257 620.536,660.234C620.536,658.589 620.251,657.024 619.68,655.539C619.109,654.054 618.298,652.747 617.247,651.616C616.196,650.485 614.928,649.583 613.443,648.909C611.958,648.235 610.314,647.898 608.509,647.898C606.681,647.898 605.025,648.235 603.54,648.909C602.055,649.583 600.788,650.491 599.737,651.633C598.686,652.775 597.869,654.094 597.287,655.591C596.704,657.087 596.413,658.658 596.413,660.302L596.413,660.371C596.413,662.016 596.698,663.581 597.27,665.065C597.841,666.55 598.652,667.858 599.702,668.989C600.753,670.12 602.015,671.022 603.489,671.696C604.962,672.37 606.613,672.707 608.44,672.707C610.245,672.707 611.896,672.37 613.392,671.696C614.888,671.022 616.162,670.114 617.213,668.972C618.263,667.83 619.08,666.51 619.663,665.014C620.245,663.518 620.536,661.947 620.536,660.302ZM618.686,660.371C618.686,661.856 618.435,663.249 617.932,664.551C617.43,665.854 616.727,666.99 615.825,667.961C614.922,668.932 613.849,669.697 612.604,670.257C611.359,670.816 609.994,671.096 608.509,671.096C607.024,671.096 605.653,670.811 604.397,670.24C603.141,669.669 602.061,668.898 601.159,667.927C600.256,666.956 599.548,665.814 599.034,664.5C598.52,663.186 598.263,661.787 598.263,660.302L598.263,660.234C598.263,658.749 598.515,657.355 599.017,656.053C599.52,654.751 600.222,653.615 601.125,652.644C602.027,651.673 603.101,650.908 604.346,650.348C605.591,649.788 606.956,649.508 608.44,649.508C609.925,649.508 611.296,649.794 612.552,650.365C613.809,650.936 614.888,651.707 615.791,652.678C616.693,653.649 617.401,654.791 617.915,656.105C618.429,657.418 618.686,658.818 618.686,660.302L618.686,660.371Z" style="fill:white;fill-rule:nonzero;"/>
                <path d="M649.663,660.302C649.686,660.28 649.686,660.257 649.663,660.234C649.663,658.589 649.377,657.024 648.806,655.539C648.235,654.054 647.424,652.747 646.373,651.616C645.322,650.485 644.055,649.583 642.57,648.909C641.085,648.235 639.44,647.898 637.635,647.898C635.808,647.898 634.152,648.235 632.667,648.909C631.182,649.583 629.914,650.491 628.863,651.633C627.812,652.775 626.996,654.094 626.413,655.591C625.831,657.087 625.539,658.658 625.539,660.302L625.539,660.371C625.539,662.016 625.825,663.581 626.396,665.065C626.967,666.55 627.778,667.858 628.829,668.989C629.88,670.12 631.142,671.022 632.615,671.696C634.089,672.37 635.739,672.707 637.567,672.707C639.372,672.707 641.022,672.37 642.518,671.696C644.015,671.022 645.288,670.114 646.339,668.972C647.39,667.83 648.207,666.51 648.789,665.014C649.372,663.518 649.663,661.947 649.663,660.302ZM647.812,660.371C647.812,661.856 647.561,663.249 647.059,664.551C646.556,665.854 645.854,666.99 644.951,667.961C644.049,668.932 642.975,669.697 641.73,670.257C640.485,670.816 639.12,671.096 637.635,671.096C636.15,671.096 634.78,670.811 633.523,670.24C632.267,669.669 631.188,668.898 630.285,667.927C629.383,666.956 628.675,665.814 628.161,664.5C627.647,663.186 627.39,661.787 627.39,660.302L627.39,660.234C627.39,658.749 627.641,657.355 628.144,656.053C628.646,654.751 629.349,653.615 630.251,652.644C631.153,651.673 632.227,650.908 633.472,650.348C634.717,649.788 636.082,649.508 637.567,649.508C639.052,649.508 640.422,649.794 641.679,650.365C642.935,650.936 644.015,651.707 644.917,652.678C645.819,653.649 646.527,654.791 647.041,656.105C647.555,657.418 647.812,658.818 647.812,660.302L647.812,660.371Z" style="fill:white;fill-rule:nonzero;"/>
                <path d="M676.459,660.302L676.459,660.234C676.459,658.543 676.151,656.973 675.534,655.522C674.917,654.072 674.043,652.809 672.913,651.736C671.782,650.662 670.434,649.823 668.869,649.217C667.304,648.612 665.585,648.309 663.712,648.309L655.728,648.309L655.728,672.296L663.712,672.296C665.585,672.296 667.304,671.987 668.869,671.37C670.434,670.754 671.782,669.908 672.913,668.835C674.043,667.761 674.917,666.493 675.534,665.031C676.151,663.569 676.459,661.993 676.459,660.302ZM674.609,660.371C674.609,661.815 674.352,663.162 673.838,664.411C673.324,665.66 672.599,666.749 671.662,667.677C670.725,668.605 669.583,669.339 668.235,669.877C666.887,670.416 665.38,670.685 663.712,670.685L657.51,670.685L657.51,649.92L663.712,649.92C665.38,649.92 666.887,650.195 668.235,650.745C669.583,651.295 670.725,652.04 671.662,652.98C672.599,653.919 673.324,655.02 673.838,656.28C674.352,657.541 674.609,658.881 674.609,660.302L674.609,660.371Z" style="fill:white;fill-rule:nonzero;"/>
                <path d="M698.253,666.093L698.253,666.025C698.253,664.266 697.636,662.867 696.402,661.827C695.169,660.788 693.158,659.983 690.371,659.411C688.955,659.114 687.79,658.795 686.876,658.452C685.962,658.109 685.249,657.727 684.735,657.304C684.221,656.881 683.866,656.413 683.672,655.899C683.478,655.385 683.381,654.808 683.381,654.169L683.381,654.1C683.381,653.483 683.518,652.901 683.792,652.353C684.066,651.804 684.46,651.325 684.974,650.913C685.488,650.502 686.105,650.177 686.825,649.937C687.544,649.697 688.35,649.577 689.241,649.577C690.566,649.577 691.805,649.783 692.958,650.194C694.112,650.605 695.26,651.302 696.402,652.284L697.533,650.879C696.322,649.897 695.083,649.166 693.815,648.686C692.547,648.206 691.045,647.966 689.309,647.966C688.19,647.966 687.162,648.126 686.225,648.446C685.288,648.766 684.478,649.211 683.792,649.783C683.107,650.354 682.57,651.022 682.182,651.787C681.793,652.552 681.599,653.381 681.599,654.271L681.599,654.34C681.599,655.254 681.748,656.065 682.045,656.773C682.342,657.481 682.816,658.104 683.467,658.64C684.118,659.177 684.957,659.646 685.985,660.045C687.013,660.445 688.247,660.794 689.686,661.091C691.057,661.365 692.176,661.667 693.044,661.999C693.912,662.33 694.603,662.701 695.117,663.112C695.631,663.523 695.985,663.98 696.18,664.483C696.374,664.985 696.471,665.557 696.471,666.196L696.471,666.265C696.471,666.95 696.322,667.584 696.025,668.167C695.728,668.749 695.317,669.252 694.792,669.674C694.266,670.097 693.627,670.428 692.873,670.668C692.119,670.908 691.297,671.028 690.406,671.028C689.515,671.028 688.692,670.954 687.938,670.805C687.185,670.657 686.465,670.44 685.78,670.154C685.094,669.868 684.426,669.503 683.775,669.057C683.124,668.612 682.467,668.081 681.805,667.464L680.64,668.8C682.079,670.08 683.569,671.039 685.111,671.679C686.653,672.318 688.384,672.638 690.303,672.638C691.468,672.638 692.536,672.478 693.507,672.159C694.478,671.839 695.311,671.393 696.008,670.822C696.705,670.251 697.253,669.56 697.653,668.749C698.053,667.938 698.253,667.053 698.253,666.093Z" style="fill:white;fill-rule:nonzero;"/>
                <path d="M702.365,675.105L702.776,675.962C703.804,675.574 704.535,675.071 704.969,674.454C705.403,673.838 705.62,672.992 705.62,671.919L705.62,669.383L703.358,669.383L703.358,672.296L704.284,672.296C704.329,672.958 704.204,673.495 703.907,673.906C703.61,674.317 703.096,674.717 702.365,675.105Z" style="fill:white;fill-rule:nonzero;"/>
                <rect x="722.513" y="648.309" width="1.782" height="23.986" style="fill:white;fill-rule:nonzero;"/>
                <path d="M751.605,672.296L751.605,648.309L749.892,648.309L749.892,669.177L733.341,648.309L731.662,648.309L731.662,672.296L733.376,672.296L733.376,650.982L750.269,672.296L751.605,672.296Z" style="fill:white;fill-rule:nonzero;"/>
                <path d="M779.121,668.526L777.922,667.361C776.711,668.572 775.466,669.497 774.187,670.137C772.908,670.776 771.4,671.096 769.664,671.096C768.225,671.096 766.888,670.816 765.655,670.257C764.421,669.697 763.353,668.932 762.451,667.961C761.548,666.99 760.834,665.848 760.309,664.534C759.784,663.221 759.521,661.81 759.521,660.302L759.521,660.234C759.521,658.726 759.778,657.321 760.292,656.019C760.806,654.717 761.514,653.58 762.416,652.61C763.319,651.639 764.387,650.879 765.62,650.331C766.854,649.783 768.19,649.508 769.63,649.508C770.52,649.508 771.349,649.6 772.114,649.783C772.879,649.965 773.587,650.211 774.238,650.519C774.889,650.828 775.501,651.199 776.072,651.633C776.643,652.067 777.191,652.535 777.716,653.038L778.984,651.736C778.367,651.165 777.734,650.645 777.082,650.177C776.431,649.708 775.735,649.303 774.992,648.96C774.25,648.618 773.445,648.355 772.576,648.172C771.708,647.989 770.737,647.898 769.664,647.898C767.928,647.898 766.329,648.223 764.866,648.875C763.404,649.526 762.142,650.417 761.08,651.547C760.018,652.678 759.184,653.997 758.579,655.505C757.973,657.013 757.671,658.612 757.671,660.302L757.671,660.371C757.671,662.084 757.968,663.695 758.561,665.202C759.155,666.71 759.984,668.018 761.046,669.126C762.108,670.234 763.37,671.108 764.832,671.747C766.294,672.387 767.882,672.707 769.595,672.707C770.646,672.707 771.617,672.604 772.508,672.398C773.399,672.193 774.227,671.907 774.992,671.542C775.758,671.176 776.477,670.737 777.151,670.223C777.825,669.709 778.482,669.143 779.121,668.526Z" style="fill:white;fill-rule:nonzero;"/>
            </g>
        </g>
    </g>
</svg>
