<?xml version="1.0" encoding="UTF-8" standalone="no"?>
<!DOCTYPE svg PUBLIC "-//W3C//DTD SVG 1.1//EN" "http://www.w3.org/Graphics/SVG/1.1/DTD/svg11.dtd">
<svg width="100%" height="100%" viewBox="0 0 34 43" version="1.1" xmlns="http://www.w3.org/2000/svg" xmlns:xlink="http://www.w3.org/1999/xlink" xml:space="preserve" xmlns:serif="http://www.serif.com/" style="fill-rule:evenodd;clip-rule:evenodd;stroke-linejoin:round;stroke-miterlimit:2;">
    <g transform="matrix(1,0,0,1,-984,-7)">
        <g transform="matrix(3.69557,0,0,0.314932,0,0)">
            <g transform="matrix(0.0227686,0,0,0.39554,266.333,21.6824)">
                <g id="g8" transform="matrix(0.97512,0,0,0.699433,6,4.28571)">
                    <rect id="polygon10" x="2.465" y="0.101" width="399.798" height="351.227" style="fill:rgb(0,153,1);"/>
                </g>
                <g id="g12" transform="matrix(0.97512,0,0,0.699433,6,4.28571)">
                    <rect id="polygon14" x="2.465" y="472.951" width="399.798" height="8.057" style="fill:rgb(0,153,1);"/>
                </g>
                <g id="g16" transform="matrix(0.97512,0,0,0.699433,6,4.28571)">
                    <g id="g18">
                        <path id="path20" d="M22.283,388.898L12.578,388.898L17.532,375.287L22.283,388.898ZM24.375,394.851L27.287,402.837L34.384,402.837L20.086,364.235L15.082,364.235L0.325,402.838L7.369,402.838L10.435,394.852L24.375,394.852L24.375,394.851Z" style="fill:rgb(0,153,1);"/>
                    </g>
                </g>
                <g id="g22" transform="matrix(0.97512,0,0,0.699433,6,4.28571)">
                    <path id="path24" d="M78.852,382.588L78.852,383.783C78.852,395.976 72.418,403.67 62.258,403.67C51.944,403.67 44.388,395.467 44.388,384.123C44.388,372.551 51.993,364.178 62.461,364.178C68.792,364.178 73.847,367.231 77.064,373.061L71.243,376.524C69.201,372.78 66.239,370.905 62.307,370.905C55.976,370.905 51.228,376.577 51.228,384.124C51.228,391.507 55.976,396.997 62.359,396.997C67.208,396.997 70.782,393.827 71.293,389.011L63.279,389.011L63.279,382.589L78.852,382.589L78.852,382.588Z" style="fill:rgb(0,153,1);"/>
                </g>
                <g id="g26" transform="matrix(0.97512,0,0,0.699433,6,4.28571)">
                    <g id="g28">
                        <path id="path30" d="M100.564,382.412L100.564,370.969L102.615,370.969C106.769,370.969 109.025,372.891 109.025,376.576C109.025,380.367 106.769,382.412 102.512,382.412L100.564,382.412ZM108.102,386.9C113.112,385.763 115.869,381.955 115.869,376.177C115.869,369.093 111.477,365.009 103.794,365.009L93.95,365.009L93.95,402.837L100.564,402.837L100.564,387.638L101.436,387.638L110.66,402.837L118.831,402.837L108.102,386.9Z" style="fill:rgb(0,153,1);"/>
                    </g>
                </g>
                <g id="g32" transform="matrix(0.97512,0,0,0.699433,6,4.28571)">
                    <rect id="polygon34" x="132.243" y="365.01" width="6.612" height="37.828" style="fill:rgb(0,153,1);"/>
                </g>
                <g id="g36" transform="matrix(0.97512,0,0,0.699433,6,4.28571)">
                    <path id="path38" d="M180.199,375.158C177.441,372.152 175.043,370.904 171.876,370.904C165.647,370.904 160.746,376.634 160.746,383.894C160.746,391.552 165.494,396.937 172.182,396.937C175.195,396.937 177.543,395.748 180.199,392.8L180.199,401.46C177.186,403.048 174.735,403.669 171.876,403.669C161.767,403.669 153.905,395.067 153.905,383.952C153.905,372.948 161.97,364.177 172.03,364.177C174.888,364.177 177.289,364.851 180.199,366.491L180.199,375.158Z" style="fill:rgb(0,153,1);"/>
                </g>
                <g id="g40" transform="matrix(0.97512,0,0,0.699433,6,4.28571)">
                    <path id="path42" d="M201.909,386.672C201.909,390.527 202.113,391.776 202.983,393.422C204.105,395.578 206.411,396.938 208.968,396.938C211.525,396.938 213.825,395.579 214.953,393.422C215.82,391.776 216.025,390.527 216.025,386.672L216.025,365.01L222.637,365.01L222.637,388.149C222.637,392.573 221.875,395.69 220.147,398.239C217.803,401.637 213.62,403.671 208.967,403.671C204.312,403.671 200.13,401.638 197.789,398.239C196.059,395.69 195.296,392.573 195.296,388.149L195.296,365.01L201.908,365.01L201.908,386.672L201.909,386.672Z" style="fill:rgb(0,153,1);"/>
                </g>
                <g id="g44" transform="matrix(0.97512,0,0,0.699433,6,4.28571)">
                    <path id="polygon46" d="M246.023,396.41L256.488,396.41L256.488,402.832L239.408,402.832L239.408,365.01L246.023,365.01L246.023,396.41Z" style="fill:rgb(0,153,1);"/>
                </g>
                <g id="g48" transform="matrix(0.97512,0,0,0.699433,6,4.28571)">
                    <path id="polygon50" d="M272.2,402.838L272.2,371.437L264.592,371.437L264.592,365.016L286.471,365.016L286.471,371.437L278.812,371.437L278.812,402.838L272.2,402.838Z" style="fill:rgb(0,153,1);"/>
                </g>
                <g id="g52" transform="matrix(0.97512,0,0,0.699433,6,4.28571)">
                    <path id="path54" d="M306.313,386.672C306.313,390.527 306.518,391.776 307.385,393.422C308.513,395.578 310.813,396.938 313.37,396.938C315.927,396.938 318.23,395.579 319.355,393.422C320.225,391.776 320.43,390.527 320.43,386.672L320.43,365.01L327.042,365.01L327.042,388.149C327.042,392.573 326.28,395.69 324.549,398.239C322.211,401.637 318.025,403.671 313.369,403.671C308.717,403.671 304.53,401.638 302.189,398.239C300.46,395.69 299.699,392.573 299.699,388.149L299.699,365.01L306.311,365.01L306.311,386.672L306.313,386.672Z" style="fill:rgb(0,153,1);"/>
                </g>
                <g id="g56" transform="matrix(0.97512,0,0,0.699433,6,4.28571)">
                    <g id="g58">
                        <path id="path60" d="M350.426,382.412L350.426,370.969L352.477,370.969C356.631,370.969 358.89,372.891 358.89,376.576C358.89,380.367 356.631,382.412 352.374,382.412L350.426,382.412ZM357.967,386.9C362.974,385.763 365.731,381.955 365.731,376.177C365.731,369.093 361.339,365.009 353.658,365.009L343.814,365.009L343.814,402.837L350.426,402.837L350.426,387.638L351.299,387.638L360.522,402.837L368.693,402.837L357.967,386.9Z" style="fill:rgb(0,153,1);"/>
                    </g>
                </g>
                <g id="g62" transform="matrix(0.97512,0,0,0.699433,6,4.28571)">
                    <path id="polygon64" d="M388.717,371.437L388.717,379.787L400.462,379.787L400.462,386.209L388.717,386.209L388.717,396.41L400.919,396.41L400.919,402.832L382.104,402.832L382.104,365.016L400.919,365.016L400.919,371.437L388.717,371.437Z" style="fill:rgb(0,153,1);"/>
                </g>
                <g id="g66" transform="matrix(0.97512,0,0,0.699433,6,4.28571)">
                    <g id="g68">
                        <path id="path70" d="M10.495,439.418L10.495,429.586L12.5,429.586C15.841,429.586 17.589,431.291 17.589,434.473C17.589,437.766 15.841,439.418 12.398,439.418L10.495,439.418ZM3.883,461.455L15.379,461.455C22.532,461.455 26.874,457.43 26.874,450.738C26.874,445.64 24.524,442.359 19.98,441.281C22.694,439.529 23.715,437.373 23.715,433.623C23.715,430.5 22.542,427.547 20.652,425.9C18.916,424.371 16.253,423.632 12.294,423.632L3.883,423.632L3.883,461.455ZM10.495,455.503L10.495,445.02L13.013,445.02C17.989,445.02 20.033,446.602 20.033,450.399C20.033,453.803 17.836,455.503 13.394,455.503L10.495,455.503Z" style="fill:rgb(0,153,1);"/>
                    </g>
                </g>
                <g id="g72" transform="matrix(0.97512,0,0,0.699433,6,4.28571)">
                    <rect id="polygon74" x="44.474" y="423.633" width="6.611" height="37.828" style="fill:rgb(0,153,1);"/>
                </g>
                <g id="g76" transform="matrix(0.97512,0,0,0.699433,6,4.28571)">
                    <g id="g78">
                        <path id="path80" d="M86.906,429.527C93.183,429.527 98.235,435.369 98.235,442.517C98.235,449.718 93.13,455.56 86.906,455.56C80.632,455.56 75.529,449.718 75.529,442.517C75.529,435.369 80.632,429.527 86.906,429.527ZM86.906,422.801C76.702,422.801 68.688,431.514 68.688,442.629C68.688,453.744 76.6,462.293 86.906,462.293C97.06,462.293 105.074,453.633 105.074,442.518C105.075,431.461 97.11,422.801 86.906,422.801Z" style="fill:rgb(0,153,1);"/>
                    </g>
                </g>
                <g id="g82" transform="matrix(0.97512,0,0,0.699433,6,4.28571)">
                    <path id="polygon84" d="M129.304,455.027L139.771,455.027L139.771,461.449L122.692,461.449L122.692,423.633L129.304,423.633L129.304,455.027Z" style="fill:rgb(0,153,1);"/>
                </g>
                <g id="g86" transform="matrix(0.97512,0,0,0.699433,6,4.28571)">
                    <g id="g88">
                        <path id="path90" d="M171.504,429.527C177.778,429.527 182.83,435.369 182.83,442.517C182.83,449.718 177.726,455.56 171.504,455.56C165.226,455.56 160.125,449.718 160.125,442.517C160.125,435.369 165.225,429.527 171.504,429.527ZM171.504,422.801C161.297,422.801 153.283,431.514 153.283,442.629C153.283,453.744 161.196,462.293 171.504,462.293C181.655,462.293 189.672,453.633 189.672,442.518C189.672,431.461 181.706,422.801 171.504,422.801Z" style="fill:rgb(0,153,1);"/>
                    </g>
                </g>
                <g id="g92" transform="matrix(0.97512,0,0,0.699433,6,4.28571)">
                    <path id="path94" d="M240.026,441.211L240.026,442.406C240.026,454.599 233.595,462.293 223.435,462.293C213.12,462.293 205.564,454.09 205.564,442.746C205.564,431.174 213.172,422.801 223.637,422.801C229.968,422.801 235.025,425.854 238.241,431.684L232.42,435.141C230.378,431.403 227.416,429.528 223.484,429.528C217.153,429.528 212.404,435.2 212.404,442.747C212.404,450.124 217.153,455.62 223.534,455.62C228.386,455.62 231.963,452.45 232.472,447.634L224.453,447.634L224.453,441.212L240.026,441.212L240.026,441.211Z" style="fill:rgb(0,153,1);"/>
                </g>
                <g id="g96" transform="matrix(0.97512,0,0,0.699433,6,4.28571)">
                    <rect id="polygon98" x="257.68" y="423.633" width="6.613" height="37.828" style="fill:rgb(0,153,1);"/>
                </g>
                <g id="g100" transform="matrix(0.97512,0,0,0.699433,6,4.28571)">
                    <g id="g102">
                        <path id="path104" d="M305.197,446.262L298.318,446.883L304.892,454.031C303.36,455.162 302.038,455.56 299.999,455.56C293.524,455.56 288.734,450.005 288.734,442.458C288.734,435.14 293.729,429.526 300.251,429.526C306.523,429.526 311.618,435.309 311.618,442.516C311.618,445.862 310.853,448.241 308.967,450.514L305.197,446.262ZM319.175,462.182L313.661,456.123C317.033,451.816 318.46,447.85 318.46,442.576C318.46,431.461 310.447,422.801 300.252,422.801C289.907,422.801 281.895,431.403 281.895,442.518C281.895,453.692 289.858,462.293 300.153,462.293C303.924,462.293 306.677,461.502 309.683,459.463L312.487,462.914L319.175,462.182Z" style="fill:rgb(0,153,1);"/>
                    </g>
                </g>
                <g id="g106" transform="matrix(0.97512,0,0,0.699433,6,4.28571)">
                    <path id="path108" d="M342.357,445.295C342.357,449.15 342.562,450.399 343.432,452.045C344.557,454.201 346.86,455.561 349.417,455.561C351.972,455.561 354.277,454.202 355.399,452.045C356.269,450.399 356.474,449.15 356.474,445.295L356.474,423.633L363.086,423.633L363.086,446.772C363.086,451.196 362.321,454.313 360.596,456.862C358.255,460.255 354.072,462.294 349.416,462.294C344.76,462.294 340.577,460.255 338.236,456.862C336.507,454.313 335.743,451.196 335.743,446.772L335.743,423.633L342.355,423.633L342.355,445.295L342.357,445.295Z" style="fill:rgb(0,153,1);"/>
                </g>
                <g id="g110" transform="matrix(0.97512,0,0,0.699433,6,4.28571)">
                    <path id="polygon112" d="M389.024,430.06L389.024,438.41L400.766,438.41L400.766,444.832L389.024,444.832L389.024,455.027L401.226,455.027L401.226,461.449L382.412,461.449L382.412,423.639L401.226,423.639L401.226,430.06L389.024,430.06Z" style="fill:rgb(0,153,1);"/>
                </g>
                <g id="path114" transform="matrix(0.97512,0,0,0.699433,6,4.28571)">
                    <path d="M240.747,109.144C290.309,109.144 318.425,130.588 318.425,166.329C318.425,202.072 295.55,213.03 295.55,213.03C295.55,213.03 337.966,223.038 337.966,273.077C337.966,331.22 270.771,331.852 270.771,331.852L212.631,331.852L212.631,109.144L240.747,109.144ZM240.747,135.353L240.747,207.791C240.747,207.791 253.611,207.791 262.192,206.836C270.77,205.881 293.168,201.117 292.69,170.618C292.215,140.12 271.245,136.307 255.996,134.877L240.747,135.353ZM240.747,231.141L240.747,306.434L269.341,306.434C276.012,306.434 310.324,302.151 310.799,269.268C311.277,236.379 273.627,230.186 265.052,230.186C256.473,230.185 240.747,231.141 240.747,231.141Z" style="fill:white;"/>
                </g>
                <g id="path116" transform="matrix(0.97512,0,0,0.699433,6,4.28571)">
                    <path d="M191.185,331.851L163.069,331.851L163.069,278.794L67.28,278.794C67.28,278.794 59.655,298.81 59.655,330.737L32.492,330.737C32.492,273.549 64.075,173.203 150.202,114.86C182.609,98.18 191.185,122.008 191.185,129.157L191.185,331.851ZM163.069,138.212C87.772,199.689 77.765,251.156 77.765,251.156L163.069,251.156L163.069,138.212Z" style="fill:white;"/>
                </g>
                <g id="path118" transform="matrix(0.97512,0,0,0.699433,6,4.28571)">
                    <path d="M252.184,13.592C252.184,13.592 302.46,35.037 293.167,96.753C293.167,96.753 321.761,58.628 367.985,68.159C367.985,68.159 347.635,125.736 287.211,106.759C229.547,88.651 243.369,22.887 252.184,13.592Z" style="fill:white;"/>
                </g>
            </g>
        </g>
    </g>
</svg>
