<?xml version="1.0" encoding="UTF-8" standalone="no"?>
<!DOCTYPE svg PUBLIC "-//W3C//DTD SVG 1.1//EN" "http://www.w3.org/Graphics/SVG/1.1/DTD/svg11.dtd">
<svg width="100%" height="100%" viewBox="0 0 44 43" version="1.1" xmlns="http://www.w3.org/2000/svg" xmlns:xlink="http://www.w3.org/1999/xlink" xml:space="preserve" xmlns:serif="http://www.serif.com/" style="fill-rule:evenodd;clip-rule:evenodd;stroke-linejoin:round;stroke-miterlimit:2;">
    <g transform="matrix(1,0,0,1,-717,-7)">
        <g transform="matrix(3.69557,0,0,0.314932,0,0)">
            <g transform="matrix(0.0328938,0,0,0.578988,193.376,12.5454)">
                <g id="path0" transform="matrix(1,0,0,0.666667,0,0)">
                    <path d="M188.054,28.555C160.833,30.484 133.32,38.71 111.561,51.426C110.289,52.169 108.988,52.898 108.671,53.045C108.353,53.192 107.083,53.976 105.849,54.787C104.616,55.598 103.55,56.262 103.482,56.262C102.866,56.262 91.428,64.553 86.376,68.661C71.079,81.1 55.326,99.48 46.801,114.836C46.272,115.79 45.472,117.177 45.023,117.919C44.574,118.661 42.863,121.956 41.22,125.241C14.734,178.197 17.887,240.179 49.639,290.751C52.491,295.294 53.06,296.117 57.634,302.312C70.13,319.236 91.551,338.458 108.092,347.591C109.364,348.293 110.751,349.088 111.175,349.358C118.346,353.922 137.055,362.109 145.857,364.535C146.493,364.711 148.527,365.304 150.378,365.853C157.241,367.89 167.624,370.07 176.108,371.255C207.866,375.689 243.892,370.557 272.389,357.539C274.159,356.731 275.692,356.069 275.797,356.069C275.901,356.069 277.402,355.356 279.13,354.484C378.976,304.14 407.343,182.226 339.499,95.038C304.794,50.437 245.651,24.474 188.054,28.555M218.112,32.544C226.348,33.413 231.628,34.291 239.114,36.038C248.879,38.317 257.936,41.105 264.744,43.929C266.331,44.587 268.497,45.461 269.557,45.871C296.895,56.452 326.97,81.513 345.198,108.904C379.616,160.624 382.337,228.044 352.138,280.884C351.121,282.663 350.289,284.187 350.289,284.271C350.289,284.355 349.968,284.894 349.576,285.468C349.184,286.043 347.927,287.987 346.783,289.788C343.263,295.333 336.808,304.092 333.295,308.092C312.861,331.357 289.818,347.615 262.813,357.82C250.127,362.614 240.404,365.163 226.204,367.419C178.867,374.938 125.792,360.63 89.595,330.594C84.281,326.183 82.046,324.123 76.098,318.151C72.277,314.314 67.791,309.528 66.128,307.514C64.466,305.501 62.736,303.419 62.285,302.887C60.653,300.966 52.408,289.204 52.408,288.798C52.408,288.702 51.57,287.282 50.546,285.641C23.361,242.113 19.297,182.494 40.283,135.067C46.216,121.658 56.249,105.039 63.429,96.724C63.887,96.195 65.622,94.127 67.286,92.129C78.229,78.986 96.96,63.435 111.753,55.211C112.495,54.799 114.143,53.881 115.414,53.171C137.688,40.743 161.423,34.036 190.944,31.826C195.079,31.516 212.812,31.985 218.112,32.544M187.091,36.996C157.463,39.281 129.366,48.955 105.01,65.258C92.303,73.763 79.395,85.266 70.35,96.146C69.117,97.63 67.739,99.277 67.288,99.807C63.678,104.052 55.999,115.434 52.598,121.58C33.939,155.305 27.418,195.651 34.878,231.214C36.539,239.129 36.882,240.612 37.738,243.545C49.865,285.115 74.774,317.369 112.764,340.697C157.6,368.228 220.73,372.035 268.786,350.107C293.58,338.793 313.781,323.703 329.673,304.624C330.733,303.353 331.702,302.225 331.828,302.119C332.25,301.765 338.954,292.708 340.528,290.366C369.24,247.663 375.763,194.133 358.209,145.279C352.661,129.841 342.349,111.671 331.985,99.074C324.987,90.568 317.302,82.738 309.634,76.302C275.935,48.015 231.019,33.608 187.091,36.996M236.814,47.572C238.203,48.152 238.419,48.517 237.763,49.174C237.42,49.516 236.637,51.905 235.952,54.691L235.723,55.626L237.148,54.745C238.793,53.728 239.361,54.002 240.679,56.449C241.763,58.462 241.19,58.554 236.15,57.174C235.664,57.041 235.396,57.367 235.093,58.459C234.525,60.504 234.57,60.799 235.499,61.094C238.528,62.055 239.843,65.954 237.68,67.562C235.764,68.986 234.682,68.04 234.682,64.941C234.682,61.534 234.135,61.781 233.206,65.607C229.842,79.466 229.876,79.383 227.527,79.383C225.392,79.383 225.358,78.939 226.995,72.466C228.753,65.511 228.82,65.822 225.992,67.803C222.857,70 221.141,70.007 223.423,67.814C225.79,65.54 227.911,62.588 229.665,59.128L231.216,56.069L229.007,55.384C226.565,54.626 225.195,53.675 227.168,54.106C227.803,54.246 229.027,54.46 229.887,54.582L231.45,54.804L232.069,52.547C232.41,51.305 232.884,49.552 233.123,48.651C233.614,46.794 234.401,46.564 236.814,47.572M172.354,50.317C176.556,51.749 175.963,52.347 168.182,54.528C164.805,55.475 161.413,56.426 160.644,56.642C159.319,57.015 159.211,57.171 158.604,59.587C157.819,62.713 157.754,62.649 160.926,61.854C164.734,60.899 165.219,60.654 165.895,59.347C166.575,58.032 167.664,58.009 170.809,59.246C172.352,59.852 172.486,60.119 171.849,61.309C171.469,62.019 173.664,71.413 175.012,74.849C176.443,78.496 172.1,82.106 169.557,79.383C168.806,78.58 168.113,78.227 167.283,78.227C165.678,78.227 165.763,77.604 167.41,77.295C170.005,76.808 170.485,76.041 169.81,73.457C169.092,70.706 169.125,70.739 167.56,71.229C166.857,71.449 165.042,71.989 163.527,72.428L160.773,73.227L161.889,76.946C163.319,81.709 163.313,82.288 161.824,83.058C159.654,84.18 159.163,83.792 158.149,80.154C155.681,71.302 155.161,69.537 154.95,69.291C154.824,69.144 153.628,70.4 152.292,72.082C148.056,77.414 147.427,77.127 150.423,71.232C153.658,64.865 155.18,58.192 153.276,58.728C145.651,60.875 143.353,61.384 143.353,60.922C143.353,60.58 143.978,60.372 150.674,58.487L153.95,57.565L154.061,54.257C154.188,50.447 154.133,50.496 158.285,50.487C160.879,50.481 160.993,50.591 160.118,52.268C159.374,53.695 159.332,56.038 160.056,55.76C160.341,55.651 162.031,55.174 163.813,54.701C168.077,53.569 168.223,53.477 168.998,51.449C169.74,49.505 169.856,49.466 172.354,50.317M246.393,53.569C249.076,54.93 249.466,54.966 250.482,53.95C251.556,52.876 251.815,52.951 253.767,54.903C255.673,56.809 255.881,57.557 254.705,58.282C253.878,58.793 253.882,58.78 250.299,71.092C248.026,78.9 247.867,79.769 248.708,79.769C249.359,79.769 251.471,77.434 251.822,76.326C252.208,75.112 252.856,75.358 252.517,76.59C252.095,78.125 252.205,79.778 252.827,81.247C253.942,83.879 249.42,84.983 245.382,83.067C242.825,81.854 242.813,81.182 245.2,72.763C250.363,54.553 250.222,55.333 248.307,55.562C247.346,55.677 247.178,56.029 245.502,61.464C241.087,75.778 238.729,78.982 232.107,79.665C229.611,79.923 229.521,79.64 231.762,78.586C236.512,76.353 239.418,70.212 242.644,55.588C243.441,51.974 243.347,52.025 246.393,53.569M163.154,62.056C158.02,63.436 157.979,63.472 158.816,65.872C159.226,67.046 159.333,67.104 160.647,66.866C162.504,66.529 167.245,65.097 167.245,64.873C167.245,64.216 166.336,61.276 166.139,61.295C166.005,61.308 164.662,61.65 163.154,62.056M162.845,67.292C159.158,68.4 159.356,68.215 159.931,70.013C160.643,72.239 160.714,72.255 164.905,71.106C168.714,70.061 168.774,70.027 168.533,69.03C167.771,65.875 167.665,65.842 162.845,67.292M214.037,83.434C222.316,84.402 227.07,85.341 233.911,87.357C235.713,87.888 237.967,88.541 238.921,88.808C260.732,94.91 286.749,114.596 300.829,135.651C325.559,172.633 327.376,220.229 305.498,257.996C304.563,259.609 304.439,259.807 301.631,264.162C289.544,282.906 271.014,298.479 249.326,308.119C231.567,316.013 209.044,319.702 189.277,317.954C134.788,313.136 90.101,273.08 80.902,220.809C71.928,169.816 97.479,119.501 144.316,95.935C160.618,87.733 173.723,84.243 194.027,82.696C197.495,82.432 209.144,82.861 214.037,83.434M95.376,89.017C95.515,89.653 95.746,90.175 95.888,90.177C96.03,90.179 96.753,90.747 97.495,91.44C98.237,92.133 102.312,95.711 106.551,99.392C116.332,107.884 115.878,107.241 113.989,109.923C113.1,111.185 112.294,111.263 111.158,110.195L110.32,109.408L106.323,113.953C104.125,116.452 101.692,119.191 100.917,120.039C97.487,123.789 97.423,123.9 98.275,124.671C99.248,125.552 99.237,126.399 98.228,128.109C97.037,130.127 97.269,130.268 87.283,121.431C86.647,120.868 84.74,119.211 83.044,117.748C72.509,108.657 72.427,108.533 75.869,106.988C77.573,106.224 78.694,105.327 80.391,103.371C81.632,101.941 82.737,100.684 82.847,100.578C86.536,97.012 89.818,92.356 89.429,91.24C88.917,89.77 89.33,89.226 91.562,88.43C94.094,87.528 95.082,87.68 95.376,89.017M311.581,94.972L314.3,97.996L315.531,96.321C316.209,95.4 316.763,94.246 316.763,93.758C316.763,92.646 317.017,92.642 317.977,93.738C320.543,96.669 320.511,99.925 317.911,100.445L316.78,100.671L318.922,103.111C321.033,105.516 321.095,105.553 323.249,105.666L325.434,105.78L325.55,107.802C325.791,111.989 325.61,111.914 319.741,105.395L318.353,103.854L318.96,105.708C319.657,107.835 319.305,108.641 317.986,107.936C317.174,107.501 312.139,107.336 312.139,107.744C312.139,109.018 315.501,111.342 317.497,111.447C319.883,111.573 320.266,112.285 319.665,115.485C319.316,117.345 319.333,117.357 312.868,110.161C309.605,106.53 306.176,102.715 305.247,101.683C303.145,99.348 302.816,99.352 299.983,101.754C295.221,105.792 289.626,107.112 285.356,105.205L284.2,104.689L286.182,104.415C289.868,103.905 292.58,102.315 297.748,97.637C302.056,93.737 302.644,93.72 303.652,97.46C304,98.755 305.973,101.215 305.973,100.356C305.973,100.16 306.583,99.315 307.328,98.478C308.073,97.642 308.865,96.277 309.089,95.445C309.534,93.791 309.782,94.232 306.237,90.366C305.46,89.518 304.827,88.565 304.831,88.247C304.839,87.666 306.517,89.337 311.581,94.972M87.439,96.628C85.662,98.695 84.117,100.472 84.004,100.578C82.263,102.221 78.998,106.422 78.998,107.019C78.998,107.795 80.785,109.524 87.669,115.406C89.364,116.855 91.205,118.457 91.759,118.966L92.767,119.89L95.033,117.309L97.298,114.729L94.618,112.275L91.938,109.822L90.101,111.632C87.792,113.907 87.189,113.533 89.363,111.174C91.118,109.27 91.109,109.136 89.093,107.349C86.744,105.266 86.726,105.266 84.798,107.453C83.286,109.168 82.081,109.954 82.081,109.227C82.081,109.108 83.829,106.984 85.966,104.506C89.641,100.243 89.841,99.923 89.665,98.57C89.442,96.846 89.785,96.52 92.197,96.171C94.582,95.826 94.548,96.167 91.89,99.301C89.426,102.205 89.422,101.809 91.937,104.14C94.229,106.264 94.903,106.077 94.538,103.417C94.288,101.588 95.031,100.963 97.456,100.963C99.207,100.963 99.13,101.35 96.865,103.93C94.614,106.493 94.283,107.444 96.194,105.853C98.621,103.834 100.527,103.502 101.961,104.849C102.734,105.575 102.913,105.6 103.843,105.113L104.872,104.574L99.741,100.168C96.919,97.744 94.347,95.501 94.026,95.183C93.076,94.244 91.248,92.871 90.948,92.871C90.795,92.871 89.216,94.562 87.439,96.628M311.547,98.588C311.562,101.156 310.579,102.738 308.826,102.965C307.924,103.082 307.926,103.088 309.185,104.582L310.448,106.081L312.278,105.059C317.079,102.379 317.088,102.346 313.942,98.909L311.533,96.277L311.547,98.588M99.875,113.084C92.766,121.193 93.143,120.454 95.275,122.093L96.909,123.348L97.877,122.213C98.409,121.589 101.014,118.59 103.665,115.549C106.317,112.508 108.713,109.728 108.988,109.372C109.445,108.783 107.285,106.028 106.33,105.983C106.208,105.978 103.304,109.173 99.875,113.084M96.722,108.137C96.971,108.537 97.866,109.36 98.709,109.966L100.244,111.069L101.182,110.188C102.562,108.891 102.351,108.412 100.289,108.158C99.282,108.033 97.966,107.815 97.363,107.671C96.363,107.434 96.307,107.474 96.722,108.137M153.179,159.135C144.96,161.366 138.162,163.741 132.625,166.315C131.069,167.038 129.722,167.63 129.631,167.63C126.89,167.63 114.619,177.306 110.817,182.466C91.285,208.974 116.778,236.772 169.171,246.096C184.211,248.772 187.439,249.084 199.807,249.06C242.149,248.977 271.871,238.832 290.24,218.191C294.513,213.389 299.458,204.401 300.723,199.133L300.978,198.073L266.689,198.073L262.535,201.391C247.483,213.414 234.443,218.692 214.066,221.009C177.358,225.183 132.39,210.33 132.374,194.027C132.369,187.951 139.666,180.436 148.804,177.107C151.736,176.039 151.753,176.024 152.226,174.24C153.341,170.037 155.212,164.832 157.062,160.785C158.553,157.527 158.768,157.618 153.179,159.135M242.775,159.481C242.775,159.654 243.462,161.484 244.302,163.548C245.141,165.612 246.281,168.752 246.834,170.526L247.839,173.751L250.413,174.595C251.828,175.059 255.293,176.292 258.113,177.335C262.574,178.985 265.085,180.058 271.291,182.968C273.489,183.998 279.391,187.263 282.04,188.913C285.069,190.8 285.066,190.384 282.014,185.465C276.565,176.682 264.28,167.228 252.502,162.753C245.873,160.233 242.775,159.191 242.775,159.481M340.587,164.7C340.655,165.282 340.544,166.239 340.339,166.827C339.802,168.368 340.395,171.091 341.439,171.879C343.185,173.196 341.033,177.988 339.208,176.848C338.508,176.411 337.664,176.453 333.642,177.128C328.3,178.024 328.182,178.011 327.554,176.496C326.958,175.056 327.184,174.031 328.135,173.859C330.181,173.49 329.793,169.942 327.706,169.942C326.29,169.942 325.241,168.574 325.241,166.729C325.241,165.678 324.803,165.803 332.177,164.733C334.615,164.38 337.303,163.952 338.15,163.784C340.208,163.376 340.441,163.463 340.587,164.7M57.406,164.729C57.75,165.04 60.099,165.631 62.625,166.041C67.639,166.856 68.593,167.419 68.593,169.568C68.593,171.448 68.241,171.869 66.667,171.869C65.035,171.869 64.956,172.012 64.519,175.739L64.273,177.842L69.998,178.744C76.89,179.829 77.457,180.113 77.457,182.487C77.457,184.684 77.062,184.848 73.262,184.232C71.648,183.971 69.169,183.603 67.752,183.414C66.336,183.226 64.752,182.965 64.232,182.835C63.333,182.609 63.268,182.715 62.858,185.068C62.238,188.631 62.27,188.812 63.575,189.073C65.423,189.443 66.216,191.015 65.502,192.893C65.049,194.086 64.714,194.085 57.108,192.862C48.762,191.52 48.701,191.485 50.664,189.152C51.771,187.837 52.311,186.021 52.48,183.044L52.601,180.925L49.052,180.347C44.671,179.633 44.557,179.531 45.232,176.929C45.897,174.365 46.375,173.837 47.293,174.652C47.894,175.186 53.127,176.289 53.463,175.953C54.334,175.081 54.283,170.893 53.389,169.961C52.027,168.539 52.149,167.869 54.132,165.886C55.998,164.02 56.447,163.861 57.406,164.729M356.04,169.349C355.372,172.961 356.24,177.949 357.679,178.768C359.949,180.059 357.997,185.824 355.705,184.597C355.117,184.282 353.841,184.294 350.857,184.641C346.277,185.173 346.098,185.106 345.782,182.746C345.6,181.395 345.682,181.164 346.426,180.928C347.133,180.703 347.244,180.451 347.076,179.442C345.992,172.928 345.917,172.64 345.295,172.64C344.254,172.64 343.738,171.807 343.738,170.129L343.738,168.543L349.807,167.566C356.79,166.441 356.588,166.383 356.04,169.349M335.838,168.597C335.626,168.672 334.187,168.935 332.641,169.183L329.829,169.633L330.089,171.425C330.232,172.411 330.37,173.246 330.396,173.281C330.535,173.467 338.973,172.111 339.25,171.858C339.431,171.693 339.459,170.847 339.313,169.979C339.048,168.412 337.787,167.911 335.838,168.597M55.353,171.211C55.231,171.696 55.019,173.056 54.88,174.231L54.629,176.369L58.783,177.011C61.068,177.365 62.988,177.603 63.051,177.54C63.113,177.478 63.373,176.16 63.629,174.613C64.189,171.224 64.307,171.341 59.753,170.757C55.428,170.203 55.611,170.184 55.353,171.211M351.445,171.688C351.127,171.76 350.043,171.928 349.037,172.061C346.909,172.341 346.898,172.384 347.656,177.36L348.11,180.347L349.296,180.323C349.948,180.31 351.695,180.09 353.177,179.833L355.873,179.367L355.749,178.026C355.196,172 354.508,170.987 351.445,171.688M342.683,180.347C342.315,185.74 342.3,185.641 343.698,186.809L345.006,187.902L344.351,189.875C343.506,192.42 342.88,192.968 341.603,192.284C340.8,191.855 340.026,191.878 336.702,192.43C334.532,192.79 332.199,193.173 331.52,193.281C330.448,193.452 330.207,193.326 329.69,192.326C328.54,190.103 329.038,188.825 331.053,188.825C331.853,188.825 331.932,188.373 331.542,186.012C331.319,184.664 331.218,184.566 330.27,184.774C329.032,185.046 328.148,184.204 327.761,182.384C327.451,180.923 326.961,181.106 334.682,179.795C342.043,178.545 342.802,178.598 342.683,180.347M53.382,184.036C53.05,187.574 52.762,187.28 57.327,188.075C61.657,188.829 61.503,188.921 61.883,185.369C62.032,183.984 62.171,182.777 62.194,182.686C62.23,182.541 55.228,181.207 54.092,181.142C53.825,181.127 53.549,182.255 53.382,184.036M335.838,183.862C331.87,184.576 332.084,184.428 332.378,186.239C332.754,188.552 332.786,188.562 337.563,187.829L341.893,187.164L341.663,185.778C341.537,185.016 341.432,184.176 341.43,183.911C341.425,183.349 338.818,183.327 335.838,183.862M71.602,248.613C80.963,250.911 85.205,266.193 78.156,272.226C68.345,280.624 55.252,272.534 56.358,258.757C56.911,251.876 64.451,246.858 71.602,248.613M329.094,250.886C329.094,252.215 327.871,253.565 326.668,253.565C322.886,253.565 319.239,260.818 320.565,265.703C321.881,270.553 329.375,274.155 334.264,272.287C338.931,270.505 341.916,263.688 339.845,259.541C338.859,257.567 339.667,254.898 340.933,255.946C344.792,259.139 342.505,269.567 337.029,273.743C330.153,278.987 319.09,274.317 317.693,265.581C316.955,260.965 320.281,253.703 324.277,251.207C325.529,250.425 329.094,250.188 329.094,250.886M66.667,251.855C58.282,254.105 56.016,263.321 62.228,269.908C68.495,276.553 80.841,269.996 78.986,261.007C77.544,254.021 72.516,250.285 66.667,251.855M105.579,292.892C106.952,294.046 108.512,295.337 109.045,295.761C115.046,300.526 116.485,305.637 112.672,308.636C111.56,309.512 109.395,309.697 107.722,309.061C106.809,308.715 106.757,308.746 107.118,309.421C108.209,311.459 107.482,314.071 104.763,317.885C103.945,319.033 103.276,320.28 103.276,320.657C103.276,321.771 102.776,321.76 101.411,320.618L100.125,319.541L101.026,317.997C106.127,309.254 106.19,309.575 98.169,303.235C95.889,301.433 96.051,301.357 92.293,305.993C88.903,310.173 88.778,310.249 87.487,308.875L86.593,307.923L88.08,306.081C88.897,305.068 90.613,303.013 91.893,301.515C93.173,300.017 95.929,296.755 98.017,294.266C101.39,290.248 101.886,289.8 102.449,290.267C102.798,290.557 104.206,291.738 105.579,292.892M299.768,294.954C301.803,296.948 304.075,299.134 304.817,299.813C306.869,301.69 310.661,305.364 311.851,306.627L312.913,307.753L310.691,309.881L305.153,304.558C302.107,301.63 298.23,297.9 296.539,296.269L293.462,293.304L294.39,292.317C295.686,290.938 295.649,290.919 299.768,294.954M100.084,296.708L97.529,299.774L100.99,302.678C106.462,307.269 108.389,307.964 110.568,306.131C113.163,303.947 112.178,301.544 106.849,297.063C104.989,295.499 103.41,294.09 103.34,293.931C103.064,293.311 102.55,293.75 100.084,296.708M266.986,316.866C268.751,319.67 271.473,323.96 273.036,326.397C276.25,331.412 276.347,331.756 274.796,332.672C273.163,333.637 273.266,333.66 260.715,329.486C254.368,327.375 249.103,325.721 249.013,325.81C248.924,325.899 249.348,326.756 249.955,327.713C255.803,336.931 258.709,341.667 258.85,342.206C259.034,342.908 256.611,344.203 256.382,343.525C256.314,343.324 255.365,341.773 254.273,340.077C253.182,338.382 251.735,336.127 251.06,335.067C250.384,334.008 249.049,331.927 248.094,330.443C243.665,323.562 243.756,323.828 245.499,322.836L246.677,322.166L258.828,326.228C265.511,328.462 271.124,330.238 271.302,330.174C271.479,330.11 270.346,328.064 268.784,325.626C260.505,312.707 260.814,313.322 262.139,312.399C263.526,311.431 263.62,311.517 266.986,316.866M154.982,321.957C159.357,324.028 162.008,327.268 161.774,330.256L161.657,331.753L160.159,331.089C158.906,330.534 158.637,330.21 158.517,329.117C158.023,324.601 149.235,321.279 144.894,323.967C138.851,327.707 137.568,335.985 142.377,340.208C145.625,343.059 153.462,345.505 153.998,343.834C154.116,343.463 154.631,342.151 155.142,340.919C156.524,337.58 156.833,337.952 150.771,335.644C149.961,335.335 149.518,334.906 149.518,334.431C149.518,333.275 150.574,333.153 152.831,334.049C153.976,334.503 155.91,335.256 157.129,335.722C158.348,336.189 159.486,336.686 159.659,336.827C159.832,336.968 159.105,339.317 158.044,342.048L156.115,347.013L154.439,346.928C147.85,346.593 139.009,342.023 137.338,338.089C132.656,327.069 143.957,316.737 154.982,321.957M206.125,331.503C209.329,337.561 216.956,352.514 216.956,352.738C216.956,352.875 216.275,352.987 215.444,352.987C213.944,352.987 213.92,352.963 212.246,349.807L210.561,346.628L195.674,346.628L194.018,349.711C192.397,352.729 192.328,352.796 190.786,352.912C189.097,353.039 188.916,352.82 189.726,351.627C190.01,351.209 192.205,347.052 194.605,342.389C198.473,334.873 200.886,330.265 201.414,329.383C202.254,327.98 204.889,329.165 206.125,331.503M199.897,337.956C198.258,341.134 196.917,343.908 196.917,344.121C196.917,344.365 199.209,344.509 203.083,344.509C206.474,344.509 209.249,344.41 209.249,344.29C209.249,343.871 203.306,332.177 203.092,332.177C202.974,332.177 201.536,334.778 199.897,337.956" style="fill:rgb(22,132,63);"/>
                </g>
                <g id="path1" transform="matrix(1,0,0,0.666667,0,0)">
                    <path d="M196.144,119.801C193.202,120.756 187.142,124.73 181.174,129.62C174.391,135.177 161.079,150.784 161.079,153.178C161.079,153.292 160.385,154.528 159.538,155.923C158.69,157.319 157.996,158.524 157.996,158.602C157.996,158.68 157.576,159.663 157.062,160.785C151.694,172.522 149.134,185.276 149.133,200.294L149.133,206.175L151.156,207.454C155.333,210.095 163.903,213.056 173.988,215.343C186,218.066 209.015,218.076 221.002,215.363C232.221,212.824 239.813,210.201 248.362,205.91C252.795,203.685 252.621,204.083 252.081,197.389C250.521,178.076 244.742,160.627 235.286,146.681C232.749,142.939 232.135,142.164 228.695,138.366C218.092,126.66 202.468,117.749 196.144,119.801M161.85,246.808C161.85,247.783 165.617,254.017 168.68,258.113C177.643,270.094 195.124,282.152 203.661,282.241C212.281,282.331 230.947,267.184 240.662,252.216C244.631,246.1 244.628,246.185 240.848,247.215C225.228,251.471 196.956,253.682 183.237,251.72C174.124,250.417 170.051,249.496 163.873,247.344C162.76,246.956 161.85,246.715 161.85,246.808" style="fill:rgb(235,105,29);"/>
                </g>
            </g>
        </g>
    </g>
</svg>
