<?xml version="1.0" encoding="UTF-8" standalone="no"?>
<!DOCTYPE svg PUBLIC "-//W3C//DTD SVG 1.1//EN" "http://www.w3.org/Graphics/SVG/1.1/DTD/svg11.dtd">
<svg width="100%" height="100%" viewBox="0 0 28 43" version="1.1" xmlns="http://www.w3.org/2000/svg" xmlns:xlink="http://www.w3.org/1999/xlink" xml:space="preserve" xmlns:serif="http://www.serif.com/" style="fill-rule:evenodd;clip-rule:evenodd;stroke-linejoin:round;stroke-miterlimit:2;">
    <g transform="matrix(1,0,0,1,-939,-7)">
        <g transform="matrix(3.69557,0,0,0.314932,0,0)">
            <g transform="matrix(0.0153222,0,0,0.179798,253.995,20.8521)">
                <rect id="path8989" x="14.312" y="517.191" width="473.377" height="236.608" style="fill:rgb(78,146,0);fill-rule:nonzero;"/>
                <rect id="path8991" x="14.312" y="14.201" width="473.377" height="473.524" style="fill:rgb(4,52,177);fill-rule:nonzero;"/>
                <path id="path9033" d="M175.897,686.322L228.75,686.322L228.75,672.169L175.897,672.169L175.897,686.322ZM83.476,629.49L83.476,653.01L106.879,653.01C112.311,653.01 117.67,653.01 122.206,650.999C128.182,647.842 131.984,641.852 132.659,634.511C133.394,626.172 130.472,618.67 124.658,613.825C121.839,611.99 118.697,610.228 114.675,610.066L83.476,610.066L83.476,629.49L68.633,628.903L68.633,595.576L113.852,595.576C124.658,595.576 138.884,602.74 144.742,614.735C150.086,626.245 149.543,642.924 142.1,652.907C133.394,666.076 122.97,667.119 108.861,666.987L68.633,666.987L68.633,628.903L83.476,629.49M390.159,595.517L390.159,610.081L380.587,610.081L397.779,651.336L414.501,610.081L404.312,610.081L404.312,595.517L436.832,595.517L408.628,666.899L387.487,666.899L358.564,595.517L390.159,595.517ZM383.538,672.331L412.49,672.331L442.792,595.502L464.506,595.502L464.506,610.081L453.539,610.081L423.648,686.337L373.422,686.337L341.769,610.081L331.418,610.081L331.418,595.502L351.899,595.502L383.538,672.316L383.538,672.331ZM227.943,595.517L267.627,672.169L300.073,672.169L300.073,595.517L323.578,595.517L323.578,610.066L314.564,610.066L314.564,686.308L258.099,686.308L219.589,612.166L219.589,653.157L228.75,653.157L228.75,666.884L205.054,666.884L205.054,595.502L227.943,595.502L227.943,595.517ZM199.725,666.913L175.897,666.913L175.897,653.186L184.72,653.186L184.72,610.096L175.911,610.096L175.911,595.517L199.725,595.517L199.725,666.913ZM63.436,666.913L38.463,666.913L38.463,653.157L48.431,653.157L48.431,610.096L38.463,610.096L38.463,595.517L63.436,595.517L63.436,666.913ZM404.312,590.305L464.506,590.305L464.506,576.328L404.312,576.328L404.312,590.305ZM390.159,576.328L390.159,590.305L331.418,590.305L331.418,576.328L390.159,576.328ZM270.886,590.305L323.564,590.305L323.564,576.343L270.886,576.343L270.886,590.305ZM241.112,576.328L279.548,650.338L279.548,610.096L270.857,610.096L270.857,595.532L294.523,595.532L294.523,666.928L271.327,666.928L231.158,590.364L175.853,590.364L175.853,576.328L241.112,576.328ZM113.5,576.328C131.969,576.328 155.886,587.853 164.21,608.657C172.872,626.187 169.716,651.865 157.559,666.15C144.243,684.502 125.304,686.484 99.45,686.322L38.463,686.322L38.463,672.316L117.2,672.316C132.88,672.316 147.033,662.656 151.863,645.346C156.062,631.178 154.212,613.15 142.746,601.992C133.937,593.696 122.793,590.305 109.639,590.305L38.463,590.305L38.463,576.328L113.5,576.328" style="fill:white;fill-rule:nonzero;"/>
                <path id="path9037" d="M348.977,311.444L338.994,340.264L316.326,340.264L337.349,279.115L348.977,311.444Z" style="fill:white;fill-rule:nonzero;"/>
                <path id="path9041" d="M379.926,313.543C364.466,271.422 338.539,199.262 331.844,180.103C331.844,171.602 341.695,164.995 351.561,164.995C361.515,164.995 371.161,171.529 371.234,180.103L355.099,229.888L366.801,263.068L381.952,222.224L426.364,344.888L406.646,344.888C406.646,344.888 408.849,392.398 359.68,414.347C359.68,414.347 369.84,419.926 384.007,420.513C400.48,419.485 458.56,397.375 458.854,344.888L450.001,344.888L392.493,184.419L408.511,184.419L408.511,148.904L385.094,148.904C379.368,143.399 372.6,139.259 364.921,136.117C374.288,133.606 382.437,127.117 387.986,119.439C393.521,111.452 395.826,99.428 394.006,88.798L368.005,90.472C368.739,92.454 368.739,93.981 368.739,95.801C368.739,105.271 360.928,112.935 351.693,112.935C342.532,112.935 334.604,105.271 334.604,95.801C334.604,86.449 342.415,78.962 351.708,78.962C360.855,78.962 365.802,83.807 368.005,90.472L394.064,88.798C393.33,84.614 391.745,80.474 389.733,77.126C387.223,72.135 383.523,67.319 379.353,63.957C367.006,54.443 348.522,51.639 333.987,58.628C318.366,66.291 308.353,81.634 309.499,100.279C311.51,117.28 324.151,131.287 339.332,136.117C331.8,138.936 325.311,143.267 319.511,148.919L295.067,148.919L295.067,184.419L311.848,184.419L255.324,344.888L246.838,344.888C246.838,399.049 308.867,420.337 324.298,420.484C340.036,420.63 400.348,399.122 400.186,344.888L391.392,344.888C391.392,344.888 386.577,332.071 379.97,313.543L356.67,316.054L367.006,344.888L279.152,344.888L322.639,221.916L356.67,316.054L379.97,313.543" style="fill:white;fill-rule:nonzero;"/>
                <path id="path9045" d="M157.824,92.336L157.824,95.845C157.824,105.33 150.307,112.993 141.013,112.993C131.544,112.993 123.88,105.33 123.88,95.845C123.88,86.508 131.544,79.006 141.013,79.006C148.941,79.006 155.988,84.687 157.662,92.336L183.487,90.34C182.753,84.849 180.976,79.857 178.143,75.673C175.456,70.828 172.138,67.158 168.013,63.84C155.636,53.841 134.641,51.507 120.606,59.67C106.937,66.673 98.07,80.518 98.07,96.359C98.657,112.993 109.404,127.484 123.601,134.663L123.601,148.978L88.688,148.978L88.688,184.419L123.557,184.419L123.557,379.654C118.125,379.654 93.885,372.519 93.9,340.601L93.9,285.428L44.526,344.903L63.7,344.903C65.712,371.932 74.418,395.907 116.657,415.389C125.568,419.5 131.191,421.966 141.233,428.72C151.745,421.834 157.545,419.265 165.898,415.389C208.079,395.907 216.197,372.02 218.62,344.903L238.499,344.903L188.347,285.443L188.347,341.247C188.347,372.416 163.858,379.64 158.895,379.64L158.895,184.419L193.412,184.419L193.412,148.978L158.851,148.978L158.851,134.663C167.073,130.655 174.561,123.814 178.789,116.326C183.076,108.824 184.632,99.149 183.443,90.34L157.618,92.336" style="fill:white;fill-rule:nonzero;"/>
            </g>
        </g>
    </g>
</svg>
