<?xml version="1.0" encoding="UTF-8" standalone="no"?>
<!DOCTYPE svg PUBLIC "-//W3C//DTD SVG 1.1//EN" "http://www.w3.org/Graphics/SVG/1.1/DTD/svg11.dtd">
<svg width="100%" height="100%" viewBox="0 0 32 43" version="1.1" xmlns="http://www.w3.org/2000/svg" xmlns:xlink="http://www.w3.org/1999/xlink" xml:space="preserve" xmlns:serif="http://www.serif.com/" style="fill-rule:evenodd;clip-rule:evenodd;stroke-linejoin:round;stroke-miterlimit:2;">
    <g transform="matrix(1,0,0,1,-839,-136)">
        <g transform="matrix(3.69557,0,0,0.314932,0,129.024)">
            <g transform="matrix(6.90402e-18,-1.32308,0.0986018,7.08484e-17,226.418,160.146)">
                <path d="M103.35,13.127C103.35,9.807 100.993,7.111 98.089,7.111L8.001,7.111C5.097,7.111 2.739,9.807 2.739,13.127L2.739,87.042C2.739,90.362 5.097,93.058 8.001,93.058L98.089,93.058C100.993,93.058 103.35,90.362 103.35,87.042L103.35,13.127Z" style="fill:rgb(153,153,153);"/>
                <clipPath id="_clip1">
                    <path d="M103.35,13.127C103.35,9.807 100.993,7.111 98.089,7.111L8.001,7.111C5.097,7.111 2.739,9.807 2.739,13.127L2.739,87.042C2.739,90.362 5.097,93.058 8.001,93.058L98.089,93.058C100.993,93.058 103.35,90.362 103.35,87.042L103.35,13.127Z"/>
                </clipPath>
                <g clip-path="url(#_clip1)">
                    <g transform="matrix(1.20301,0,0,1.85764,-27.0352,-56.0463)">
                        <g transform="matrix(16,0,0,16,29.7189,49.6202)">
                            <path d="M0.563,-0.5L0.563,-0.666L0.029,-0.666L0.029,-0.642L0.125,-0.642C0.125,-0.642 0.107,-0.54 0.107,-0.41C0.107,-0.132 0.144,0 0.144,0L0.554,0L0.554,-0.033L0.22,-0.033L0.22,-0.319L0.549,-0.319L0.549,-0.352L0.22,-0.352L0.22,-0.633L0.53,-0.633L0.53,-0.5L0.563,-0.5Z" style="fill:white;fill-rule:nonzero;"/>
                        </g>
                        <g transform="matrix(16,0,0,16,39.5429,49.6202)">
                            <path d="M0.489,-0.472C0.489,-0.472 0.436,-0.511 0.282,-0.511C0.167,-0.511 0.049,-0.425 0.049,-0.242C0.049,-0.114 0.119,0.011 0.307,0.011C0.412,0.011 0.482,-0.03 0.482,-0.03L0.47,-0.053C0.47,-0.053 0.412,-0.022 0.334,-0.022C0.263,-0.022 0.157,-0.073 0.157,-0.243C0.157,-0.366 0.205,-0.482 0.298,-0.482C0.322,-0.482 0.343,-0.481 0.343,-0.481C0.335,-0.456 0.355,-0.409 0.401,-0.401C0.47,-0.39 0.489,-0.455 0.489,-0.472Z" style="fill:white;fill-rule:nonzero;"/>
                        </g>
                        <g transform="matrix(16,0,0,16,47.6549,49.6202)">
                            <path d="M0.572,-0.248C0.574,-0.431 0.473,-0.511 0.31,-0.511C0.166,-0.511 0.058,-0.428 0.058,-0.242C0.058,-0.114 0.127,0.011 0.316,0.011C0.465,0.011 0.57,-0.081 0.572,-0.248ZM0.464,-0.245C0.464,-0.088 0.392,-0.019 0.317,-0.019C0.253,-0.019 0.165,-0.066 0.165,-0.243C0.165,-0.366 0.2,-0.482 0.319,-0.482C0.44,-0.482 0.464,-0.366 0.464,-0.245Z" style="fill:white;fill-rule:nonzero;"/>
                        </g>
                        <g transform="matrix(16,0,0,16,57.4149,49.6202)">
                            <path d="M0.56,-0.211C0.56,-0.332 0.491,-0.374 0.351,-0.374C0.247,-0.374 0.154,-0.377 0.154,-0.492C0.154,-0.581 0.212,-0.643 0.315,-0.643C0.414,-0.643 0.484,-0.618 0.484,-0.618L0.484,-0.5L0.517,-0.5L0.517,-0.642C0.517,-0.642 0.448,-0.674 0.296,-0.674C0.144,-0.674 0.048,-0.595 0.048,-0.462C0.048,-0.308 0.173,-0.28 0.262,-0.282C0.371,-0.284 0.456,-0.278 0.46,-0.18C0.463,-0.102 0.411,-0.024 0.274,-0.024C0.169,-0.024 0.088,-0.068 0.088,-0.068L0.075,-0.047C0.075,-0.047 0.145,0.012 0.284,0.012C0.434,0.012 0.56,-0.068 0.56,-0.211Z" style="fill:white;fill-rule:nonzero;"/>
                        </g>
                        <g transform="matrix(16,0,0,16,67.0309,49.6202)">
                            <path d="M0.572,-0.248C0.574,-0.431 0.473,-0.511 0.31,-0.511C0.166,-0.511 0.058,-0.428 0.058,-0.242C0.058,-0.114 0.127,0.011 0.316,0.011C0.465,0.011 0.57,-0.081 0.572,-0.248ZM0.464,-0.245C0.464,-0.088 0.392,-0.019 0.317,-0.019C0.253,-0.019 0.165,-0.066 0.165,-0.243C0.165,-0.366 0.2,-0.482 0.319,-0.482C0.44,-0.482 0.464,-0.366 0.464,-0.245Z" style="fill:white;fill-rule:nonzero;"/>
                        </g>
                        <g transform="matrix(16,0,0,16,77.2389,49.6202)">
                            <path d="M0.489,-0.472C0.489,-0.472 0.436,-0.511 0.282,-0.511C0.167,-0.511 0.049,-0.425 0.049,-0.242C0.049,-0.114 0.119,0.011 0.307,0.011C0.412,0.011 0.482,-0.03 0.482,-0.03L0.47,-0.053C0.47,-0.053 0.412,-0.022 0.334,-0.022C0.263,-0.022 0.157,-0.073 0.157,-0.243C0.157,-0.366 0.205,-0.482 0.298,-0.482C0.322,-0.482 0.343,-0.481 0.343,-0.481C0.335,-0.456 0.355,-0.409 0.401,-0.401C0.47,-0.39 0.489,-0.455 0.489,-0.472Z" style="fill:white;fill-rule:nonzero;"/>
                        </g>
                        <g transform="matrix(16,0,0,16,85.5429,49.6202)">
                            <path d="M0.228,-0.656C0.228,-0.69 0.2,-0.717 0.167,-0.717C0.133,-0.717 0.106,-0.69 0.106,-0.656C0.106,-0.623 0.133,-0.595 0.167,-0.595C0.2,-0.595 0.228,-0.623 0.228,-0.656ZM0.217,0L0.217,-0.5L0.036,-0.5L0.036,-0.476L0.128,-0.476C0.128,-0.476 0.112,-0.428 0.112,-0.297C0.112,-0.151 0.151,0 0.151,0L0.217,0Z" style="fill:white;fill-rule:nonzero;"/>
                        </g>
                        <g transform="matrix(16,0,0,16,90.2629,49.6202)">
                            <path d="M0.545,0L0.545,-0.024L0.455,-0.024C0.455,-0.024 0.498,-0.148 0.498,-0.324C0.498,-0.48 0.436,-0.511 0.321,-0.511C0.147,-0.511 0.058,-0.47 0.058,-0.47C0.058,-0.453 0.079,-0.389 0.146,-0.399C0.19,-0.406 0.211,-0.45 0.205,-0.477C0.205,-0.477 0.224,-0.483 0.285,-0.483C0.379,-0.483 0.393,-0.422 0.393,-0.347L0.393,-0.283C0.393,-0.283 0.336,-0.292 0.276,-0.292C0.203,-0.292 0.07,-0.259 0.07,-0.131C0.07,-0.018 0.149,0.013 0.221,0.013C0.328,0.013 0.391,-0.097 0.391,-0.124L0.393,-0.124L0.393,0L0.545,0ZM0.393,-0.255C0.393,-0.174 0.374,-0.052 0.254,-0.052C0.206,-0.052 0.167,-0.087 0.167,-0.145C0.167,-0.222 0.215,-0.263 0.287,-0.263C0.35,-0.263 0.393,-0.255 0.393,-0.255Z" style="fill:white;fill-rule:nonzero;"/>
                        </g>
                        <g transform="matrix(16,0,0,16,99.2069,49.6202)">
                            <path d="M0.211,0L0.211,-0.69L0.031,-0.69L0.031,-0.666L0.126,-0.666C0.126,-0.666 0.107,-0.545 0.107,-0.414C0.107,-0.137 0.145,0 0.145,0L0.211,0Z" style="fill:white;fill-rule:nonzero;"/>
                        </g>
                    </g>
                    <g transform="matrix(0.493371,0,0,0.56417,-2.12696,-3.28516)">
                        <g transform="matrix(16,0,0,16,24.7514,94.1986)">
                            <path d="M0.531,-0.263L0.671,-0.219C0.649,-0.141 0.614,-0.083 0.564,-0.045C0.514,-0.007 0.45,0.012 0.374,0.012C0.278,0.012 0.2,-0.02 0.139,-0.085C0.078,-0.15 0.047,-0.239 0.047,-0.352C0.047,-0.471 0.078,-0.563 0.14,-0.629C0.201,-0.695 0.282,-0.728 0.382,-0.728C0.47,-0.728 0.541,-0.702 0.596,-0.65C0.628,-0.62 0.653,-0.576 0.669,-0.519L0.526,-0.484C0.517,-0.521 0.5,-0.551 0.473,-0.572C0.446,-0.594 0.413,-0.604 0.375,-0.604C0.322,-0.604 0.279,-0.585 0.246,-0.547C0.213,-0.509 0.196,-0.448 0.196,-0.362C0.196,-0.272 0.213,-0.207 0.245,-0.169C0.278,-0.131 0.32,-0.111 0.372,-0.111C0.41,-0.111 0.444,-0.124 0.471,-0.148C0.499,-0.172 0.519,-0.211 0.531,-0.263Z" style="fill:white;fill-rule:nonzero;"/>
                        </g>
                        <g transform="matrix(16,0,0,16,36.2581,94.1986)">
                            <path d="M0.073,0L0.073,-0.716L0.604,-0.716L0.604,-0.595L0.217,-0.595L0.217,-0.436L0.577,-0.436L0.577,-0.315L0.217,-0.315L0.217,-0.121L0.617,-0.121L0.617,0L0.073,0Z" style="fill:white;fill-rule:nonzero;"/>
                        </g>
                        <g transform="matrix(16,0,0,16,46.882,94.1986)">
                            <path d="M0.073,0L0.073,-0.716L0.377,-0.716C0.454,-0.716 0.51,-0.709 0.544,-0.697C0.579,-0.684 0.607,-0.661 0.627,-0.628C0.648,-0.595 0.659,-0.557 0.659,-0.515C0.659,-0.461 0.643,-0.417 0.611,-0.382C0.58,-0.347 0.533,-0.325 0.47,-0.316C0.501,-0.298 0.527,-0.278 0.547,-0.256C0.567,-0.234 0.595,-0.195 0.629,-0.14L0.717,0L0.544,0L0.439,-0.156C0.402,-0.211 0.377,-0.247 0.363,-0.261C0.35,-0.275 0.335,-0.285 0.32,-0.291C0.305,-0.296 0.28,-0.299 0.247,-0.299L0.218,-0.299L0.218,0L0.073,0ZM0.218,-0.413L0.325,-0.413C0.394,-0.413 0.437,-0.416 0.455,-0.422C0.472,-0.428 0.485,-0.438 0.495,-0.452C0.505,-0.466 0.51,-0.484 0.51,-0.506C0.51,-0.53 0.503,-0.549 0.49,-0.564C0.478,-0.579 0.459,-0.588 0.436,-0.592C0.424,-0.594 0.389,-0.595 0.331,-0.595L0.218,-0.595L0.218,-0.413Z" style="fill:white;fill-rule:nonzero;"/>
                        </g>
                        <g transform="matrix(16,0,0,16,58.3887,94.1986)">
                            <path d="M0.234,0L0.234,-0.595L0.021,-0.595L0.021,-0.716L0.59,-0.716L0.59,-0.595L0.378,-0.595L0.378,0L0.234,0Z" style="fill:white;fill-rule:nonzero;"/>
                        </g>
                        <g transform="matrix(16,0,0,16,68.1141,94.1986)">
                            <rect x="0.068" y="-0.716" width="0.145" height="0.716" style="fill:white;fill-rule:nonzero;"/>
                        </g>
                        <g transform="matrix(16,0,0,16,72.5114,94.1986)">
                            <path d="M0.074,0L0.074,-0.716L0.564,-0.716L0.564,-0.595L0.218,-0.595L0.218,-0.425L0.517,-0.425L0.517,-0.304L0.218,-0.304L0.218,0L0.074,0Z" style="fill:white;fill-rule:nonzero;"/>
                        </g>
                        <g transform="matrix(16,0,0,16,82.2369,94.1986)">
                            <rect x="0.068" y="-0.716" width="0.145" height="0.716" style="fill:white;fill-rule:nonzero;"/>
                        </g>
                        <g transform="matrix(16,0,0,16,86.6342,94.1986)">
                            <path d="M0.073,0L0.073,-0.716L0.604,-0.716L0.604,-0.595L0.217,-0.595L0.217,-0.436L0.577,-0.436L0.577,-0.315L0.217,-0.315L0.217,-0.121L0.617,-0.121L0.617,0L0.073,0Z" style="fill:white;fill-rule:nonzero;"/>
                        </g>
                        <g transform="matrix(16,0,0,16,97.2581,94.1986)">
                            <path d="M0.072,-0.716L0.336,-0.716C0.396,-0.716 0.441,-0.711 0.473,-0.702C0.515,-0.69 0.551,-0.668 0.581,-0.636C0.611,-0.605 0.633,-0.566 0.649,-0.52C0.665,-0.475 0.672,-0.418 0.672,-0.351C0.672,-0.292 0.665,-0.241 0.65,-0.199C0.632,-0.147 0.607,-0.104 0.574,-0.072C0.549,-0.048 0.515,-0.029 0.472,-0.015C0.44,-0.005 0.398,0 0.344,0L0.072,0L0.072,-0.716ZM0.217,-0.595L0.217,-0.121L0.325,-0.121C0.365,-0.121 0.394,-0.123 0.412,-0.127C0.436,-0.133 0.455,-0.143 0.47,-0.157C0.486,-0.171 0.499,-0.194 0.508,-0.226C0.518,-0.258 0.523,-0.302 0.523,-0.357C0.523,-0.413 0.518,-0.455 0.508,-0.485C0.499,-0.514 0.485,-0.538 0.467,-0.554C0.45,-0.571 0.427,-0.582 0.4,-0.588C0.38,-0.592 0.341,-0.595 0.282,-0.595L0.217,-0.595Z" style="fill:white;fill-rule:nonzero;"/>
                        </g>
                    </g>
                    <g transform="matrix(0.900805,0,0,1.03007,-12.2855,-31.2821)">
                        <g transform="matrix(16,0,0,16,24.7514,94.1986)">
                            <rect x="0.082" y="-0.716" width="0.222" height="0.716" style="fill:white;fill-rule:nonzero;"/>
                        </g>
                        <g transform="matrix(16,0,0,16,30.658,94.1986)">
                            <path d="M0.074,-0.716L0.488,-0.716C0.557,-0.716 0.61,-0.699 0.647,-0.665C0.684,-0.63 0.702,-0.588 0.702,-0.538C0.702,-0.495 0.689,-0.459 0.663,-0.429C0.645,-0.409 0.619,-0.393 0.585,-0.381C0.637,-0.368 0.675,-0.347 0.699,-0.317C0.723,-0.287 0.735,-0.249 0.735,-0.204C0.735,-0.167 0.727,-0.133 0.709,-0.104C0.692,-0.074 0.669,-0.05 0.639,-0.033C0.62,-0.022 0.592,-0.015 0.555,-0.01C0.505,-0.003 0.472,0 0.456,0L0.074,0L0.074,-0.716ZM0.297,-0.435L0.393,-0.435C0.428,-0.435 0.452,-0.441 0.465,-0.453C0.479,-0.465 0.485,-0.482 0.485,-0.504C0.485,-0.525 0.479,-0.542 0.465,-0.553C0.452,-0.565 0.428,-0.571 0.395,-0.571L0.297,-0.571L0.297,-0.435ZM0.297,-0.154L0.41,-0.154C0.448,-0.154 0.475,-0.161 0.49,-0.174C0.506,-0.188 0.514,-0.206 0.514,-0.229C0.514,-0.25 0.506,-0.267 0.49,-0.28C0.475,-0.292 0.448,-0.299 0.409,-0.299L0.297,-0.299L0.297,-0.154Z" style="fill:white;fill-rule:nonzero;"/>
                        </g>
                        <g transform="matrix(16,0,0,16,42.7833,94.1986)">
                            <path d="M0.076,-0.716L0.405,-0.716C0.47,-0.716 0.522,-0.707 0.562,-0.689C0.602,-0.672 0.635,-0.647 0.661,-0.614C0.687,-0.581 0.706,-0.543 0.717,-0.499C0.729,-0.455 0.735,-0.409 0.735,-0.36C0.735,-0.284 0.726,-0.225 0.709,-0.182C0.691,-0.14 0.667,-0.105 0.636,-0.076C0.605,-0.048 0.572,-0.029 0.537,-0.02C0.488,-0.007 0.444,0 0.405,0L0.076,0L0.076,-0.716ZM0.297,-0.554L0.297,-0.163L0.352,-0.163C0.398,-0.163 0.431,-0.168 0.45,-0.178C0.47,-0.188 0.485,-0.206 0.496,-0.232C0.507,-0.257 0.513,-0.299 0.513,-0.356C0.513,-0.432 0.5,-0.484 0.476,-0.512C0.451,-0.54 0.41,-0.554 0.353,-0.554L0.297,-0.554Z" style="fill:white;fill-rule:nonzero;"/>
                        </g>
                    </g>
                    <g transform="matrix(0.416526,0,0,0.476298,0.0712902,3.53003)">
                        <path d="M127.828,131.518C127.828,131.518 152.202,125.133 180.806,106.688C182.951,105.305 183.569,102.44 182.186,100.295C180.803,98.15 177.938,97.532 175.793,98.915C148.608,116.445 125.472,122.574 125.472,122.574C123.004,123.224 121.528,125.755 122.178,128.224C122.828,130.692 125.36,132.168 127.828,131.518Z" style="fill:white;"/>
                    </g>
                    <g transform="matrix(0.416526,0,0,0.476298,0.0712902,3.53003)">
                        <path d="M184.378,124.395C184.378,124.395 203.049,121.903 212.637,122.598C215.183,122.782 217.399,120.866 217.584,118.32C217.769,115.774 215.852,113.557 213.306,113.373C203.082,112.631 183.169,115.225 183.169,115.225C180.639,115.559 178.855,117.884 179.189,120.415C179.522,122.945 181.848,124.729 184.378,124.395Z" style="fill:white;"/>
                    </g>
                    <g transform="matrix(0.433697,0,0,0.476298,-3.00158,3.53003)">
                        <path d="M176.789,164.713C176.789,164.713 168.221,157.065 153.913,151.006C146.597,147.907 137.791,145.388 127.864,144.393C104.343,142.034 78.427,148.213 53.255,146.896C39.865,146.196 26.872,142.792 14.786,133.459C7.966,128.743 -1.399,130.452 -6.115,137.272C-10.83,144.092 -9.122,153.457 -2.302,158.173C11.418,166.627 25.238,170.676 39.334,171.582C54.788,172.575 70.318,170.22 85.665,167.266C99.806,164.545 113.66,161.388 127.064,161.316C135.299,161.271 142.745,162.587 149.021,164.495C161.509,168.294 169.382,173.843 169.382,173.843C171.902,175.887 175.607,175.501 177.651,172.982C179.695,170.462 179.309,166.757 176.789,164.713Z" style="fill:white;"/>
                    </g>
                    <g transform="matrix(0.416526,0,0,0.476298,0.0712902,3.53003)">
                        <path d="M195.502,141.547C195.502,141.547 215.666,143.841 230.005,147.676C232.471,148.336 235.008,146.87 235.668,144.404C236.327,141.938 234.861,139.401 232.395,138.741C217.497,134.756 196.551,132.357 196.551,132.357C194.015,132.068 191.721,133.892 191.432,136.428C191.142,138.964 192.966,141.258 195.502,141.547Z" style="fill:white;"/>
                    </g>
                    <g transform="matrix(0.416526,0,0,0.476298,0.0712902,3.53003)">
                        <path d="M181.853,153.521C181.853,153.521 198.157,159.782 210.694,169.31C212.727,170.855 215.63,170.459 217.175,168.427C218.719,166.394 218.323,163.491 216.291,161.946C202.76,151.662 185.173,144.888 185.173,144.888C182.791,143.972 180.113,145.162 179.197,147.545C178.28,149.927 179.471,152.605 181.853,153.521Z" style="fill:white;"/>
                    </g>
                </g>
            </g>
        </g>
    </g>
</svg>
