<?xml version="1.0" encoding="UTF-8" standalone="no"?>
<!DOCTYPE svg PUBLIC "-//W3C//DTD SVG 1.1//EN" "http://www.w3.org/Graphics/SVG/1.1/DTD/svg11.dtd">
<svg width="100%" height="100%" viewBox="0 0 64 43" version="1.1" xmlns="http://www.w3.org/2000/svg" xmlns:xlink="http://www.w3.org/1999/xlink" xml:space="preserve" xmlns:serif="http://www.serif.com/" style="fill-rule:evenodd;clip-rule:evenodd;stroke-linejoin:round;stroke-miterlimit:2;">
    <g transform="matrix(1,0,0,1,-548,-7)">
        <g transform="matrix(3.69557,0,0,0.314932,0,0)">
            <g transform="matrix(0.0423056,0,0,0.496435,148.476,23.4055)">
                <rect id="rect2927" x="0" y="0" width="400" height="268" style="fill:rgb(151,190,13);"/>
                <path id="path2889" d="M145.62,62.718C157.082,63.437 168.392,64.776 178.195,68.814C169.007,72.245 162.032,76.301 154.055,80.045L160.36,53.89C165.358,63.87 170.642,74.474 173.425,84.454C164.34,75.603 155.047,69.042 145.62,62.718Z" style="fill:white;fill-rule:nonzero;"/>
                <path id="path2891" d="M195.933,60.062L221.788,69.439L201.555,78.952C203.515,70.408 205.696,61.755 208.485,52.797C211.421,63.837 214.443,75.234 216.549,85.86C209.994,76.574 202.869,68.585 195.933,60.062Z" style="fill:white;fill-rule:nonzero;"/>
                <path id="path2893" d="M247.183,69.281C254.801,70.575 262.826,70.24 270.851,69.282C264.282,75.181 257.601,80.967 250.618,86.452C253.711,77.684 256.589,68.7 259.267,59.515C261.121,68.557 262.976,77.599 264.83,86.641C259.312,81.931 253.169,76.146 247.183,69.281Z" style="fill:white;fill-rule:nonzero;"/>
                <path id="path2895" d="M299.058,68.499C305.384,66.626 313.586,61.879 320.694,58.501C314.783,66.208 308.872,73.484 302.961,80.358C304.934,72.437 307.774,64.199 310.36,55.609C312.338,61.559 313.843,67.045 316.549,72.422C310.719,72.091 304.888,70.903 299.058,68.499Z" style="fill:white;fill-rule:nonzero;"/>
                <path id="path2897" d="M276.87,112.874C287.566,110.977 294.743,107.737 303.351,104.751C295.827,112.454 286.977,122.911 280.774,127.858L290.36,99.828C292.513,107.634 295.085,115.021 297.643,122.422C290.434,120.687 283.664,117.101 276.87,112.874Z" style="fill:white;fill-rule:nonzero;"/>
                <path id="path2899" d="M250.776,148.03C260.467,150.41 269.078,152.108 279.288,151.313C272.912,157.458 265.04,161.36 257.024,165.045C259.688,157.193 262.324,149.281 264.579,140.609C267.94,149.442 270.8,159.839 274.674,166.641C265.11,160.97 257.891,154.518 250.776,148.03Z" style="fill:white;fill-rule:nonzero;"/>
                <path id="path2901" d="M222.808,170.843C231.791,174.656 240.305,178.594 249.757,180.376C242.893,183.376 236.014,186.36 228.743,188.952C230.782,181.275 232.595,174.067 235.048,166.39C238.051,175.969 241.366,185.444 245.612,194.61C237.513,188.435 229.718,179.456 222.808,170.843Z" style="fill:white;fill-rule:nonzero;"/>
                <path id="path2903" d="M186.089,184.905C195.28,187.561 204.472,191.536 213.663,195.845C205.992,199.049 198.497,202.78 191.242,207.233C194.33,197.717 197.699,188.004 199.735,178.734C202.578,189.754 206.32,201.303 209.049,212.579C203.504,205.958 193.726,193.401 186.089,184.905Z" style="fill:white;fill-rule:nonzero;"/>
                <path id="path2905" d="M131.245,192.249C141.799,190.377 152.12,189.905 162.257,190.532C152.494,199.257 144.572,206.755 135.93,214.733C139.959,202.108 143.988,189.484 148.017,176.859C150.542,188.778 152.717,201.398 154.83,214.141C148.701,207.298 139.606,199.048 131.245,192.249Z" style="fill:white;fill-rule:nonzero;"/>
                <path id="path2907" d="M112.026,97.093C123.911,93.508 135.473,93.318 146.945,94.282L120.774,111.452C123.604,102.421 126.352,93.39 129.579,84.359C134.501,93.173 138.963,101.991 142.643,110.391C134.414,104.45 123.126,100.573 112.026,97.093Z" style="fill:white;fill-rule:nonzero;"/>
                <path id="path2909" d="M89.058,147.874C100.645,141.975 112.388,137.496 123.976,137.407L95.93,164.733L107.235,127.64C111.461,137.395 115.625,148.133 117.799,157.891C108.901,153.66 99.603,150.046 89.058,147.874Z" style="fill:white;fill-rule:nonzero;"/>
                <path id="path2911" d="M68.745,210.999C75.212,208.654 86.671,199.738 93.523,197.777C112.706,164.866 189.74,119.381 225.587,115.732C226.594,115.63 226.477,116.341 225.628,116.589C188.038,127.557 124.927,161.934 101.319,199.282C92.241,213.643 88.678,215.682 76.868,229.264C80.615,214.858 84.448,200.424 89.423,185.609C93.986,196.873 97.26,208.567 100.612,220.234C91.286,215.198 80.153,212.288 68.745,210.999Z" style="fill:white;fill-rule:nonzero;"/>
            </g>
        </g>
    </g>
</svg>
