<?xml version="1.0" encoding="UTF-8" standalone="no"?>
<!DOCTYPE svg PUBLIC "-//W3C//DTD SVG 1.1//EN" "http://www.w3.org/Graphics/SVG/1.1/DTD/svg11.dtd">
<svg width="100%" height="100%" viewBox="0 0 36 43" version="1.1" xmlns="http://www.w3.org/2000/svg" xmlns:xlink="http://www.w3.org/1999/xlink" xml:space="preserve" xmlns:serif="http://www.serif.com/" style="fill-rule:evenodd;clip-rule:evenodd;stroke-linejoin:round;stroke-miterlimit:2;">
    <g transform="matrix(1,0,0,1,-6,-136)">
        <g transform="matrix(3.69557,0,0,0.314932,0,129.024)">
            <g transform="matrix(0.0706822,0,0,0.829419,22.3288,404.119)">
                <g transform="matrix(0.597807,0,0,0.597807,-172.661,-442.22)">
                    <path d="M0,-19.146C-5.279,-19.146 -9.575,-14.854 -9.575,-9.577C-9.575,-4.298 -5.279,0 0,0C5.273,0 9.563,-4.298 9.563,-9.577C9.563,-14.854 5.273,-19.146 0,-19.146M0,1.331C-6.021,1.331 -10.911,-3.56 -10.911,-9.577C-10.911,-15.586 -6.021,-20.477 0,-20.477C6.008,-20.477 10.893,-15.586 10.893,-9.577C10.893,-3.56 6.008,1.331 0,1.331" style="fill:rgb(153,153,153);fill-rule:nonzero;"/>
                </g>
                <g transform="matrix(0.597807,0,0,0.597807,-172.193,-447.668)">
                    <path d="M0,-1.508C1.367,-1.508 2.029,-1.985 2.029,-3.227C2.029,-3.899 1.737,-4.88 0.188,-4.88L-3.092,-4.88L-3.092,-1.508L0,-1.508ZM-5.668,-7.054L0.699,-7.054C4.053,-7.054 4.666,-4.582 4.666,-3.491C4.666,-2.106 3.961,-0.912 2.716,-0.49C3.749,-0.031 4.313,0.354 4.313,2.705C4.313,4.546 4.313,4.999 4.879,5.215L4.879,5.546L1.969,5.546C1.786,4.947 1.683,4.3 1.683,3.003C1.683,1.281 1.58,0.616 -0.37,0.616L-3.092,0.616L-3.092,5.546L-5.668,5.546L-5.668,-7.054Z" style="fill:rgb(153,153,153);fill-rule:nonzero;"/>
                </g>
                <g transform="matrix(0.597807,0,0,0.597807,-167.391,-372.268)">
                    <path d="M0,-47.643C0,-101.464 -43.634,-145.103 -97.462,-145.103C-151.286,-145.103 -194.922,-101.464 -194.922,-47.643C-194.922,6.187 -151.286,49.808 -97.462,49.808C-43.634,49.808 0,6.187 0,-47.643M-80.006,80.24C-81.349,80.935 -82.819,80.996 -83.487,81.023C-84.636,81.075 -85.426,81.114 -87.503,81.114L-89.97,81.114L-89.964,70.619L-89.964,70.267L-86.816,70.267C-83.244,70.267 -81.635,70.306 -80.231,71.002C-77.595,72.344 -77.467,74.841 -77.473,75.623L-77.485,75.623L-77.473,75.673L-77.473,75.686C-77.467,78.159 -78.657,79.546 -80.006,80.24M-78.348,84.346L-78.147,84.292C-76.379,83.751 -72.018,81.715 -72.011,75.716C-72.018,72.053 -73.518,69.605 -75.468,68.001C-78.202,65.783 -80.973,65.78 -85.298,65.735L-95.29,65.735L-95.29,97.454L-89.97,97.454L-89.97,85.424L-83.998,85.424L-77.564,97.454L-71.434,97.454L-78.561,84.414L-78.348,84.346ZM-60.298,86.531L-55.334,70.06L-50.413,86.531L-60.298,86.531ZM-58.615,65.735L-69.308,97.46L-63.578,97.46L-61.701,91.114L-49.016,91.121L-47.133,97.454L-41.403,97.454L-52.229,65.735L-58.615,65.735ZM-122.073,70.549L-113.31,70.549L-113.31,97.454L-107.939,97.454L-107.939,70.549L-98.981,70.549L-98.981,65.735L-122.073,65.735L-122.073,70.549ZM14.805,70.461L14.805,65.735L-7.546,65.735L-7.546,97.454L14.732,97.454L14.732,92.685L-2.272,92.685L-2.272,83.307L13.329,83.307L13.329,78.772L-2.272,78.772L-2.272,70.461L14.805,70.461ZM-17.552,81.977C-17.546,88.753 -20.146,90.996 -22.601,91.928C-24.04,92.457 -25.699,92.685 -30.298,92.685L-33.208,92.685L-33.208,70.549L-29.648,70.549C-25.584,70.595 -24.515,70.643 -22.704,71.455C-18.002,73.723 -17.552,78.867 -17.552,81.925L-17.552,81.977ZM-17.91,68.192C-21.228,65.826 -24.515,65.78 -27.309,65.735L-38.579,65.735L-38.579,97.454L-28.549,97.454C-24.739,97.412 -21.422,97.357 -18.293,95.522C-13.682,92.867 -11.823,87.357 -11.811,81.877C-11.811,78.28 -12.644,71.898 -17.91,68.192M-204.4,70.461L-188.972,70.461L-188.972,65.735L-209.722,65.735L-209.722,97.46L-204.4,97.46L-204.4,83.726L-190.855,83.726L-190.855,79.231L-204.4,79.231L-204.4,70.461ZM-131.888,80.24C-133.233,80.935 -134.71,80.996 -135.381,81.023C-136.526,81.066 -137.319,81.117 -139.394,81.117L-141.854,81.117L-141.854,70.267L-138.701,70.267C-135.129,70.267 -133.513,70.306 -132.116,71.002C-129.467,72.35 -129.352,74.875 -129.354,75.634L-129.4,75.634L-129.352,75.673C-129.352,75.673 -129.354,75.686 -129.352,75.686C-129.352,78.159 -130.542,79.546 -131.888,80.24M-130.232,84.359L-130.032,84.297C-128.267,83.742 -123.899,81.715 -123.899,75.722C-123.908,72.053 -125.405,69.598 -127.347,68.001C-130.093,65.783 -132.86,65.78 -137.191,65.735L-147.17,65.735L-147.17,97.454L-141.854,97.454L-141.854,85.427L-135.876,85.427L-129.455,97.454L-123.31,97.454L-130.445,84.414L-130.232,84.359ZM-159.044,97.46L-153.768,97.454L-153.768,65.735L-159.044,65.735L-159.044,97.46ZM-171.86,86.531L-181.757,86.531L-176.775,70.057L-171.997,86.086L-171.86,86.531ZM-180.074,65.735L-190.767,97.454L-185.035,97.454L-183.154,91.114L-170.472,91.114L-168.58,97.454L-162.863,97.454L-173.689,65.735L-180.074,65.735Z" style="fill:rgb(153,153,153);fill-rule:nonzero;"/>
                </g>
                <g transform="matrix(0.597807,0,0,0.597807,-217.794,-415.264)">
                    <path d="M0,17.437C-12.881,17.437 -23.31,7.009 -23.31,-5.856C-23.31,-18.732 -12.881,-29.164 0,-29.164C12.855,-29.164 23.299,-18.732 23.299,-5.856C23.299,7.009 12.855,17.437 0,17.437M54.423,81.926L54.416,81.935C67.49,66.504 75.382,46.024 75.382,24.208C75.382,13.242 73.39,2.747 69.757,-6.937C57.77,-39.929 24.908,-64.498 -12.213,-64.498C-12.869,-64.498 -14.625,-64.452 -14.625,-64.452C-21.529,-64.209 -28.456,-62.982 -34.115,-61.248C-36.763,-60.436 -46.18,-57.201 -53.088,-50.16C-60.351,-42.654 -64.813,-32.447 -64.813,-21.181C-64.813,-2.806 -52.149,12.355 -35.09,19.296C-27.76,22.185 -19.752,23.996 -13.872,25.435C-3.651,27.923 17.867,31.51 35.783,43.342L36.47,43.789C47.667,51.428 54.423,62.665 54.423,80.878" style="fill:white;fill-rule:nonzero;"/>
                </g>
                <g transform="matrix(0.597807,0,0,0.597807,-278.747,-386.251)">
                    <path d="M0,-24.022C0,-47.555 9.322,-69.168 24.362,-85.033C22.445,-80.097 19.723,-71.112 19.723,-60.717C19.723,-48.873 23.226,-34.93 35.343,-22.157L37.563,-19.812C54.845,-1.607 70.376,14.732 70.376,36.494C70.376,43.934 68.544,52.017 64.359,61.011C27.269,50.474 0,16.379 0,-24.022" style="fill:white;fill-rule:nonzero;"/>
                </g>
                <g transform="matrix(0.597807,0,0,0.597807,-198.52,-309.781)">
                    <path d="M0,15.017C-3.529,15.017 -6.185,12.153 -6.185,7.359C-6.185,2.921 -3.742,-0.032 -0.097,-0.032C4.095,-0.032 6.246,3.799 6.154,7.957C6.058,13.088 2.655,15.017 0,15.017M-0.066,-3.679C-5.881,-3.679 -10.291,1.023 -10.291,7.538C-10.291,10.221 -9.563,12.991 -7.442,15.44C-5.279,17.946 -2.813,18.696 -0.134,18.696C6.434,18.696 10.104,13.605 10.128,7.511C10.164,0.239 5.213,-3.679 -0.066,-3.679M-17.922,18.155L-13.997,18.155L-13.997,-3.136L-17.922,-3.136L-17.922,18.155ZM-36.227,0.482L-30.474,0.482L-30.474,18.155L-26.488,18.155L-26.488,0.482L-20.607,0.482L-20.607,-3.136L-36.227,-3.136L-36.227,0.482ZM26.854,11.91L17.437,-3.136L13.852,-3.136L13.852,18.155L17.746,18.155L17.497,3.228L26.823,18.155L30.292,18.155L30.292,-3.136L26.367,-3.136L26.854,11.91ZM58.354,14.534L58.354,-3.172L54.338,-3.172L54.338,18.155L66.792,18.155L66.792,14.534L58.354,14.534ZM-47.34,10.531L-44.406,0.722L-41.47,10.531L-47.34,10.531ZM-46.724,-3.136L-53.889,18.155L-49.633,18.155L-48.412,13.994L-40.419,13.994L-39.167,18.155L-34.933,18.155L-42.192,-3.136L-46.724,-3.136ZM39.338,10.531L42.303,0.722L45.213,10.531L39.338,10.531ZM39.976,-3.136L32.795,18.155L37.048,18.155L38.287,13.994L46.276,13.994L47.516,18.155L51.756,18.155L44.502,-3.136L39.976,-3.136ZM-129.77,0.482L-124.01,0.482L-124.01,18.155L-120.037,18.155L-120.037,0.482L-114.153,0.482L-114.153,-3.136L-129.77,-3.136L-129.77,0.482ZM-157.649,18.155L-153.731,18.155L-153.731,-3.136L-157.649,-3.136L-157.649,18.155ZM-135.945,11.91L-145.365,-3.136L-148.947,-3.136L-148.947,18.155L-145.062,18.155L-145.305,3.228L-135.985,18.155L-132.516,18.155L-132.516,-3.136L-136.437,-3.136L-135.945,11.91ZM-107.574,8.863L-97.331,8.863L-97.331,5.427L-107.574,5.427L-107.574,0.424L-96.362,0.424L-96.362,-3.136L-111.495,-3.136L-111.495,18.155L-95.605,18.155L-95.605,14.565L-107.574,14.565L-107.574,8.863ZM-84.335,6.901C-85.101,6.931 -85.611,6.964 -86.969,6.964L-88.352,6.964L-88.352,0.296L-86.514,0.296C-84.166,0.296 -83.133,0.33 -82.292,0.755C-80.645,1.594 -80.608,3.167 -80.608,3.62C-80.608,6.724 -83.47,6.873 -84.335,6.901M-76.568,3.65C-76.568,1.174 -77.583,-0.511 -78.919,-1.599C-80.794,-3.112 -82.686,-3.112 -85.523,-3.136L-92.31,-3.136L-92.31,18.155L-88.352,18.155L-88.352,10.254L-84.8,10.254L-80.584,18.155L-76.016,18.155L-80.76,9.5C-79.551,9.136 -76.568,7.721 -76.568,3.65M-59.837,11.91L-69.248,-3.136L-72.844,-3.136L-72.844,18.155L-68.947,18.155L-69.187,3.228L-59.874,18.155L-56.404,18.155L-56.404,-3.136L-60.311,-3.136L-59.837,11.91Z" style="fill:rgb(153,153,153);fill-rule:nonzero;"/>
                </g>
            </g>
        </g>
    </g>
</svg>
