<?xml version="1.0" encoding="UTF-8" standalone="no"?>
<!DOCTYPE svg PUBLIC "-//W3C//DTD SVG 1.1//EN" "http://www.w3.org/Graphics/SVG/1.1/DTD/svg11.dtd">
<svg width="100%" height="100%" viewBox="0 0 36 45" version="1.1" xmlns="http://www.w3.org/2000/svg" xmlns:xlink="http://www.w3.org/1999/xlink" xml:space="preserve" xmlns:serif="http://www.serif.com/" style="fill-rule:evenodd;clip-rule:evenodd;stroke-miterlimit:3.864;">
    <g transform="matrix(1,0,0,1,-887,-6)">
        <g transform="matrix(3.69557,0,0,0.314932,0,0)">
            <g transform="matrix(0.152187,0,0,1.78583,252.356,-165.325)">
                <g transform="matrix(0.14903,0,0,0.14903,-97.6686,94.4303)">
                    <path d="M168.5,77.2L485.5,77.2C502.6,77.2 516.4,91 516.4,108.1L516.4,544.5C516.4,561.6 502.5,575.4 485.5,575.4L168.5,575.4C151.4,575.4 137.6,561.6 137.6,544.5L137.6,108.1C137.6,91 151.4,77.2 168.5,77.2" style="fill:white;fill-rule:nonzero;"/>
                </g>
                <g transform="matrix(0.14903,0,0,0.14903,-97.6686,94.4303)">
                    <path d="M168.5,77.2L485.5,77.2C502.6,77.2 516.4,91 516.4,108.1L516.4,544.5C516.4,561.6 502.5,575.4 485.5,575.4L168.5,575.4C151.4,575.4 137.6,561.6 137.6,544.5L137.6,108.1C137.6,91 151.4,77.2 168.5,77.2Z" style="fill:none;fill-rule:nonzero;stroke:rgb(247,177,70);stroke-width:8.82px;"/>
                </g>
                <g transform="matrix(0.14903,0,0,0.14903,-97.6686,94.4303)">
                    <path d="M251.9,494.1C250.5,493.2 248.8,492.9 247,492.9C245.3,492.9 244,493.2 242.9,494C241.7,494.9 240.4,496.6 240.4,499.7C240.4,500.1 240.4,502.9 240.5,503.3L238.3,503.3L238.3,506.2L240.5,506.2L240.5,526L244.7,526L244.7,506.2L249.6,506.2L250.7,503.3L244.7,503.3L244.7,499.6C244.7,497.3 245.9,496 247.8,496C248.8,496 249.7,496.4 250.7,496.9L251.9,494.1Z" style="fill:rgb(247,177,70);fill-rule:nonzero;"/>
                </g>
                <g transform="matrix(0.14903,0,0,0.14903,-97.6686,94.4303)">
                    <path d="M272,524.1C270.2,523 270.2,521.7 270.2,518.6C270.2,515.3 270.4,511.8 270.4,510.2C270.4,508 270.3,507.2 269.9,506.2C269,503.8 266.6,502.6 263.3,502.6C258.9,502.6 256,504.3 253.8,505.6L255.7,508.6C257.6,507.2 260.3,506 262.7,506C265.9,506 266.3,507.8 266.3,510.5L266.3,512L264.7,512C257.3,512 253.1,514.8 253.1,520.1C253.1,524.5 255.9,526.8 260.5,526.8C264.4,526.8 266.4,524.5 266.9,523.8C267.4,525.4 268.5,526.5 270,527.1L272,524.1ZM266.1,514.8L266,520.6C265,522.4 263.1,523.6 261.2,523.6C258.9,523.6 257.6,522.2 257.6,519.7C257.6,518.2 257.9,517.4 258.8,516.4C259.7,515.4 261.6,514.8 264.7,514.8C265.1,514.7 265.5,514.8 266.1,514.8" style="fill:rgb(247,177,70);"/>
                </g>
                <g transform="matrix(0.14903,0,0,0.14903,-97.6686,94.4303)">
                    <path d="M283.8,496.3C283.8,494.6 282.4,493.3 280.8,493.3C279.2,493.3 277.8,494.7 277.8,496.3C277.8,497.9 279.1,499.3 280.7,499.3C282.5,499.3 283.8,497.9 283.8,496.3M283,526L283,502.7L278.7,503.4L278.7,526L283,526Z" style="fill:rgb(247,177,70);"/>
                </g>
                <g transform="matrix(0.14903,0,0,0.14903,-97.6686,94.4303)">
                    <path d="M303,502.8C302.6,502.7 302.1,502.6 301.6,502.6C299.2,502.6 297.3,503.9 295.5,506.6L295.5,506.2C295.5,505.1 295.1,503.6 294.7,502.7L290.7,503.8C291.2,505.2 291.5,506.7 291.5,509.5L291.5,526L295.7,526L295.7,511.3C295.7,508.8 297.9,506.7 300.4,506.7C300.9,506.7 301.2,506.8 301.6,506.9L303,502.8Z" style="fill:rgb(247,177,70);"/>
                </g>
                <g transform="matrix(0.14903,0,0,0.14903,-97.6686,94.4303)">
                    <path d="M329.1,503.3L323.6,503.3C323.6,501 323.8,498.1 324,496.5L319.7,497.5C319.5,499.2 319.4,501.5 319.4,503.3L316.7,503.3L316.7,506.2L319.4,506.2L319.4,520.9C319.4,524.2 320.1,524.7 321.1,525.5C321.8,526.2 323.5,526.6 325,526.6C326.5,526.6 327.9,526.3 329.1,525.7L328.6,523.1C327.9,523.4 327.2,523.6 326.5,523.6C324.2,523.6 323.5,522.7 323.5,519.9L323.5,506.2L328,506.2L329.1,503.3Z" style="fill:rgb(247,177,70);fill-rule:nonzero;"/>
                </g>
                <g transform="matrix(0.14903,0,0,0.14903,-97.6686,94.4303)">
                    <path d="M346.7,502.8C346.4,502.7 345.8,502.6 345.3,502.6C342.9,502.6 340.9,503.9 339.1,506.6L339.1,506.2C339.1,505.1 338.7,503.6 338.3,502.7L334.2,503.8C334.8,505.2 335.1,506.7 335.1,509.5L335.1,526L339.3,526L339.3,511.3C339.3,508.8 341.5,506.7 344,506.7C344.5,506.7 344.8,506.8 345.2,506.9L346.7,502.8Z" style="fill:rgb(247,177,70);"/>
                </g>
                <g transform="matrix(0.14903,0,0,0.14903,-97.6686,94.4303)">
                    <path d="M368.5,524.1C366.7,523 366.6,521.7 366.6,518.6C366.6,515.3 366.8,511.8 366.8,510.2C366.8,508 366.7,507.2 366.3,506.2C365.4,503.8 363,502.6 359.7,502.6C355.3,502.6 352.4,504.3 350.2,505.6L352.1,508.6C354,507.2 356.7,506 359.1,506C362.3,506 362.6,507.8 362.6,510.5L362.6,512L361,512C353.7,512 349.4,514.8 349.4,520.1C349.4,524.5 352.2,526.8 356.8,526.8C360.8,526.8 362.7,524.5 363.2,523.8C363.8,525.4 364.8,526.5 366.3,527.1L368.5,524.1ZM362.6,514.8L362.4,520.6C361.4,522.4 359.6,523.6 357.7,523.6C355.4,523.6 354.1,522.2 354.1,519.7C354.1,518.2 354.4,517.4 355.3,516.4C356.2,515.4 358.1,514.8 361.2,514.8C361.6,514.7 362,514.8 362.6,514.8" style="fill:rgb(247,177,70);"/>
                </g>
                <g transform="matrix(0.14903,0,0,0.14903,-97.6686,94.4303)">
                    <path d="M393.1,526C392.6,524.6 392.5,522 392.5,518.4L392.5,493.3L388.3,492.6L388.3,501.5C388.3,503 388.4,504.9 388.4,505.5C386.8,503.6 385,502.9 382.9,502.9C381.3,502.9 379.9,503.3 378.5,504.2C375.4,506.2 373.7,510 373.7,514.9C373.7,522.1 377.1,526.4 382.9,526.4C385.3,526.4 387.2,525.6 388.8,523.9C388.9,525 389,525.4 389.2,526L393.1,526ZM388.2,520.2C387.4,521.6 385.8,522.8 383.4,522.8C381.8,522.8 380.8,522.4 380,521.6C378.8,520.3 378.2,519.1 378.2,514.7C378.2,511.7 378.5,509.9 379.4,508.4C380.3,506.9 381.6,506.1 383.4,506.1C385.5,506.1 387,506.8 388.2,508.2L388.2,520.2Z" style="fill:rgb(247,177,70);"/>
                </g>
                <g transform="matrix(0.14903,0,0,0.14903,-97.6686,94.4303)">
                    <path d="M418.1,515.5L418.1,514.8C418.1,509.6 417.3,507 415.3,505C413.7,503.4 411.7,502.5 409.1,502.5C406.3,502.5 404.1,503.5 402.2,505.6C400.3,507.9 399.5,510.5 399.5,514.4C399.5,521.8 403.4,526.4 409.7,526.4C412.7,526.4 415.3,525.4 417.5,523.5L415.9,521C414.3,522.5 412.4,523.2 410.3,523.2C408.1,523.2 406.3,522.3 405.1,520.5C404.4,519.4 404.1,517.9 404.1,516L404.1,515.5L418.1,515.5ZM413.7,512.4L404.3,512.4C404.3,508.3 405.9,505.7 409,505.7C410.4,505.7 411.6,506.4 412.3,507.3C413.2,508.4 413.7,510.3 413.7,512.4" style="fill:rgb(247,177,70);"/>
                </g>
                <g transform="matrix(0.14903,0,0,0.14903,-97.6686,94.4303)">
                    <path d="M169,75.5L485,75.5C502.4,75.5 516.4,89.6 516.4,106.9C516.4,106.9 516.3,428.5 516.3,454.3L137.2,454.3C137.2,430.6 137.6,106.9 137.6,106.9C137.6,89.5 151.7,75.5 169,75.5" style="fill:rgb(255,133,79);fill-rule:nonzero;"/>
                </g>
                <g transform="matrix(0.14903,0,0,0.14903,-97.6686,94.4303)">
                    <path d="M169,75.5L485,75.5C502.4,75.5 516.4,89.6 516.4,106.9C516.4,106.9 516.3,428.5 516.3,454.3L137.2,454.3C137.2,430.6 137.6,106.9 137.6,106.9C137.6,89.5 151.7,75.5 169,75.5Z" style="fill:none;fill-rule:nonzero;stroke:rgb(247,177,70);stroke-width:7.12px;"/>
                </g>
                <g transform="matrix(0.14903,0,0,0.14903,-97.6686,94.4303)">
                    <path d="M211.4,338.1C207.8,335.9 203.6,335 198.8,335C194.5,335 191.1,335.8 188.3,337.8C185.2,340 181.9,344.4 181.9,352.2C181.9,353.1 181.9,360.2 182.1,361.4L176.5,361.4L176.5,368.9L182,368.9L182,419L192.7,419L192.7,368.8L205.1,368.8L207.9,361.3L192.6,361.3L192.6,352C192.6,346.1 195.5,342.8 200.3,342.8C202.9,342.8 205.3,343.7 207.8,345L211.4,338.1Z" style="fill:white;fill-rule:nonzero;"/>
                </g>
                <g transform="matrix(0.14903,0,0,0.14903,-97.6686,94.4303)">
                    <path d="M261.5,390.7C261.5,373.3 253.2,359.7 236.2,359.7C221,359.7 211.4,371.4 211.4,390.1C211.4,408.9 220.9,420.6 236.4,420.6C251.7,420.6 261.5,409 261.5,390.7M249.7,391.1C249.7,406.2 244.8,412.4 236.7,412.4C227.7,412.4 223.2,406.5 223.2,388.9C223.2,374.4 227,367.8 236.2,367.8C244.5,367.9 249.7,373.3 249.7,391.1" style="fill:white;"/>
                </g>
                <g transform="matrix(0.14903,0,0,0.14903,-97.6686,94.4303)">
                    <path d="M306.4,360C305.5,359.7 304.2,359.4 302.8,359.4C296.7,359.4 291.7,362.7 287.1,369.4L287.1,368.4C287.1,365.5 286.2,361.7 285.1,359.5L274.9,362.1C276.3,365.7 277.1,369.5 277.1,376.5L277.1,419L287.7,419L287.7,381.8C287.7,375.5 293.2,370.1 299.7,370.1C300.8,370.1 301.6,370.3 302.7,370.7L306.4,360Z" style="fill:white;"/>
                </g>
                <g transform="matrix(0.14903,0,0,0.14903,-97.6686,94.4303)">
                    <path d="M359.5,418.9L357.6,412.3C356.3,412.6 354.7,412.3 354,411.5C352.8,410.5 352.5,409.1 352.5,403L352.5,351.1C352.5,344 352.5,338.4 351.5,334.6L340.4,336.9C341.3,341.4 341.7,345.3 341.7,353.5L341.7,405.8C341.7,411.4 342.2,413.4 343.9,415.8C346.1,418.9 348.7,420.2 352.9,420.2C355.5,420.1 357.3,419.8 359.5,418.9" style="fill:white;fill-rule:nonzero;"/>
                </g>
                <g transform="matrix(0.14903,0,0,0.14903,-97.6686,94.4303)">
                    <path d="M385.2,343.6C385.2,339.2 381.7,335.9 377.6,335.9C373.5,335.9 370.1,339.4 370.1,343.6C370.1,347.7 373.3,351.2 377.5,351.2C381.7,351.2 385.2,347.7 385.2,343.6M383,419L383,359.9L372.1,361.6L372.1,419L383,419Z" style="fill:white;"/>
                </g>
                <g transform="matrix(0.14903,0,0,0.14903,-97.6686,94.4303)">
                    <path d="M431.6,338.1C428,335.9 423.8,335 419.1,335C414.8,335 411.4,335.8 408.6,337.8C405.5,340 402.2,344.4 402.2,352.2C402.2,353.1 402.2,360.2 402.4,361.4L396.7,361.4L396.7,368.9L402.2,368.9L402.2,419L413,419L413,368.8L425.4,368.8L428.2,361.3L412.9,361.3L412.9,352C412.9,346.1 415.8,342.8 420.6,342.8C423.3,342.8 425.6,343.7 428.1,345L431.6,338.1Z" style="fill:white;fill-rule:nonzero;"/>
                </g>
                <g transform="matrix(0.14903,0,0,0.14903,-97.6686,94.4303)">
                    <path d="M478.7,392.4L478.7,390.6C478.6,377.3 476.7,370.9 471.7,365.7C467.7,361.6 462.5,359.5 456.1,359.5C448.9,359.5 443.3,362 438.7,367.4C433.7,373.3 431.8,379.7 431.8,389.7C431.8,408.6 441.6,420.2 457.6,420.2C465.1,420.2 471.9,417.8 477.5,412.8L473.5,406.5C469.4,410.2 464.8,412 459.4,412C453.9,412 449.1,409.8 446.1,405.2C444.4,402.4 443.7,398.6 443.7,393.7L443.7,392.3L478.7,392.3L478.7,392.4ZM467.6,384.6L443.7,384.6C443.7,374.1 447.7,367.6 455.8,367.6C459.5,367.6 462.2,369.3 464.1,371.6C466.4,374.4 467.6,379 467.6,384.6" style="fill:white;"/>
                </g>
                <g transform="matrix(0.14903,0,0,0.14903,-97.6686,94.4303)">
                    <path d="M240.9,140.1C233.1,135.7 225.1,133.7 215.6,133.7C195.6,133.7 181.4,144.6 181.4,167.9C181.4,178.3 182.1,184.6 182.1,184.6L171.2,184.6L171.2,201.5L181.6,201.5L181.6,297L205.8,297L205.8,201.5L228.7,201.5L234.9,184.6L205.6,184.6L205.6,167.5C205.6,157.5 210.9,151.7 219.4,151.7C224.1,151.7 227.4,153 232.9,155.7L240.9,140.1Z" style="fill:white;fill-rule:nonzero;"/>
                </g>
                <g transform="matrix(0.14903,0,0,0.14903,-97.6686,94.4303)">
                    <path d="M342.6,286C333.9,280 332.6,275.1 332.8,260L333.3,227.8C333.5,211.1 333.5,205.2 331.5,200.3C326.6,188.1 314.8,181.6 297.3,181.6C280.4,181.6 266.4,186.3 249.6,196.9L260.5,214.4C260.5,214.4 277.8,201.5 294,201.5C307.3,201.5 309.5,208.4 309.5,221.3L309.5,227.3L302,227.3C266,227.3 246.5,240.4 246.5,266.4C246.5,285.9 258,300.2 283.8,300.2C295.8,300.2 305.6,296.6 314.7,286.4C317.4,293.5 323.1,298.8 330,301.5L342.6,286ZM309,244L308.6,270.7C303.7,277.8 296.2,282.5 288.4,282.5C278.6,282.5 272.9,275.8 272.9,265.2C272.9,251 280.2,243.9 304.7,243.9C306.3,243.8 309,244 309,244" style="fill:white;"/>
                </g>
                <g transform="matrix(0.14903,0,0,0.14903,-97.6686,94.4303)">
                    <path d="M392.1,296.9L392.1,181.9L367.4,186.3L367.4,296.9L392.1,296.9Z" style="fill:white;"/>
                </g>
                <g transform="matrix(0.14903,0,0,0.14903,-97.6686,94.4303)">
                    <path d="M485.7,183.2C482.8,181.9 480.6,181.4 477,181.4C466.1,181.4 457.2,187.2 448.3,199.4C448.3,193.2 446.7,186.7 444.1,181.6L421.7,187.4C424.1,194.3 425.7,203.4 425.7,217.6L425.7,296.9L450.1,296.9L450.1,221C452.3,211.9 461,204.3 471.2,204.3C473.9,204.3 475.6,205 478.1,205.9L485.7,183.2Z" style="fill:white;fill-rule:nonzero;"/>
                </g>
                <g transform="matrix(0.14903,0,0,0.14903,-97.6686,94.4303)">
                    <path d="M428.3,98.4C429.4,113.4 435.1,156.7 381.9,165.6C364,168.6 364.3,170 367.4,150.9C376.7,101.5 418.5,111.3 428.3,98.4" style="fill:white;fill-rule:nonzero;"/>
                </g>
            </g>
        </g>
    </g>
</svg>
