<?xml version="1.0" encoding="UTF-8" standalone="no"?>
<!DOCTYPE svg PUBLIC "-//W3C//DTD SVG 1.1//EN" "http://www.w3.org/Graphics/SVG/1.1/DTD/svg11.dtd">
<svg width="100%" height="100%" viewBox="0 0 43 43" version="1.1" xmlns="http://www.w3.org/2000/svg" xmlns:xlink="http://www.w3.org/1999/xlink" xml:space="preserve" xmlns:serif="http://www.serif.com/" style="fill-rule:evenodd;clip-rule:evenodd;stroke-linejoin:round;stroke-miterlimit:2;">
    <g transform="matrix(1,0,0,1,-318,-7)">
        <g transform="matrix(3.69557,0,0,0.314932,0,0)">
            <g transform="matrix(0.0644199,0,0,0.755935,69.0426,-178.689)">
                <path d="M396.607,279.133L308.607,279.133L264.607,355.344L308.607,431.554L396.607,431.554L440.607,355.344L396.607,279.133Z" style="fill:rgb(18,81,49);fill-rule:nonzero;"/>
                <path d="M428.818,311.344L352.607,267.344L276.397,311.344L276.397,399.344L352.607,443.344L428.818,399.344L428.818,311.344Z" style="fill:rgb(3,157,83);fill-rule:nonzero;"/>
                <path d="M421.197,315.743L422.197,314.011L352.607,273.834L282.019,314.588L282.019,396.098L352.607,436.853L423.197,396.098L423.197,314.588L422.197,314.011L421.197,315.743L419.197,315.743L419.197,393.789L352.607,432.234L286.019,393.789L286.019,316.898L352.607,278.453L420.197,317.475L421.197,315.743L419.197,315.743L421.197,315.743Z" style="fill:white;fill-rule:nonzero;"/>
                <path d="M354.567,372.117C358.472,367.348 360.274,361.581 360.579,355.344C360.851,349.782 360.475,344.188 360.647,338.619C360.725,336.148 361.449,333.7 361.879,331.241C362.283,331.283 362.688,331.325 363.092,331.367C363.896,336.996 364.386,342.7 365.59,348.231C366.785,353.725 367.986,359.442 370.449,364.353C375.077,373.583 383.114,376.984 392.816,375.032C395.362,374.52 397.893,373.921 400.556,373.334C395.406,363.747 389.801,361.197 379.425,363.416C382.855,355.021 389.551,352.756 396.589,357.906C399.294,359.886 401.522,362.585 404.001,364.918C406.984,367.725 410.003,370.49 413.218,373.471C413.218,373.574 413.24,373.699 413.215,373.812C412.116,378.633 410.489,382.146 404.547,381.909C400.083,381.731 395.548,383.441 391.05,384.337C381.21,386.295 371.398,380.8 367.603,370.96C366.273,367.517 365.433,363.862 364.164,359.614C363.292,368.03 360.946,375.173 355.093,380.491C348.966,386.058 341.867,386.15 333.737,384.611C337.932,382.782 341.563,381.423 345.003,379.651C345.003,379.651 350.991,376.133 354.567,372.117Z" style="fill:white;fill-rule:nonzero;"/>
                <path d="M352.688,365.471C352.688,361.154 352.942,356.954 352.635,352.8C351.958,343.633 347.19,336.775 340.745,331.116C339.987,330.45 337.488,330.466 337.128,331.063C333.254,337.487 335.796,345.086 342.552,346.345C344.159,346.644 346.181,347.937 346.896,349.387C348.451,352.535 349.897,356.003 350.293,359.479C351.238,367.792 350.268,369.327 343.122,373.006C343.122,373.006 351.297,372.732 352.688,365.471Z" style="fill:white;fill-rule:nonzero;"/>
                <path d="M307.646,357.293C306.951,360.682 306.375,363.258 305.9,365.854C304.543,373.283 308.764,378.547 315.95,378.272C317.76,378.204 319.636,377.91 321.337,377.284C324.466,376.134 326.394,374.185 326.281,370.071C326.013,360.254 326.438,342.759 326.414,332.933C326.41,331.488 326.565,329.88 326.043,328.629C324.257,324.353 325.933,321.563 329.282,319.167C330.698,321.858 332.136,324.529 333.496,327.244C333.723,327.695 333.838,328.475 333.622,328.869C331.09,333.499 331.894,346.223 331.802,351.122C331.682,357.549 331.815,363.98 331.762,370.41C331.667,381.853 319.172,390.691 309.075,386.479C304.448,384.548 302.638,380.547 302.249,375.654C301.856,370.72 304.32,362.222 307.646,357.293Z" style="fill:white;fill-rule:nonzero;"/>
                <path d="M333.737,301.548L336.852,297.113L339.254,297.113L339.254,316.569L336.773,316.569L336.773,301.627L335.664,303.158L333.737,301.548Z" style="fill:white;fill-rule:nonzero;"/>
                <path d="M340.996,302.683C340.996,299.33 342.29,297.113 345.115,297.113C347.939,297.113 349.259,299.33 349.259,302.683L349.259,310.946C349.259,314.299 347.939,316.57 345.115,316.57C342.29,316.57 340.996,314.246 340.996,310.946L340.996,302.683ZM343.478,310.946C343.478,311.738 343.557,312.346 343.689,312.768C343.953,313.613 344.323,313.956 344.692,314.035C344.877,314.062 345.009,314.088 345.115,314.088C345.326,314.088 345.748,314.088 346.091,313.692C346.276,313.507 346.435,313.19 346.567,312.768C346.699,312.346 346.751,311.738 346.751,310.946L346.751,302.683C346.751,301.918 346.699,301.31 346.567,300.888C346.303,300.07 345.933,299.726 345.563,299.647C345.379,299.621 345.22,299.594 345.115,299.594C344.903,299.594 344.481,299.594 344.138,299.99C343.953,300.175 343.821,300.492 343.689,300.888C343.557,301.31 343.478,301.918 343.478,302.683L343.478,310.946Z" style="fill:white;fill-rule:nonzero;"/>
                <path d="M350.922,302.683C350.922,299.33 352.216,297.113 355.04,297.113C357.865,297.113 359.185,299.33 359.185,302.683L359.185,310.946C359.185,314.299 357.865,316.57 355.04,316.57C352.216,316.57 350.922,314.246 350.922,310.946L350.922,302.683ZM353.404,310.946C353.404,311.738 353.483,312.346 353.615,312.768C353.879,313.613 354.248,313.956 354.618,314.035C354.803,314.062 354.935,314.088 355.04,314.088C355.252,314.088 355.674,314.088 356.017,313.692C356.202,313.507 356.36,313.19 356.492,312.768C356.624,312.346 356.677,311.738 356.677,310.946L356.677,302.683C356.677,301.918 356.624,301.31 356.492,300.888C356.228,300.07 355.859,299.726 355.489,299.647C355.304,299.621 355.146,299.594 355.04,299.594C354.829,299.594 354.407,299.594 354.064,299.99C353.879,300.175 353.747,300.492 353.615,300.888C353.483,301.31 353.404,301.918 353.404,302.683L353.404,310.946Z" style="fill:white;fill-rule:nonzero;"/>
                <path d="M363.41,316.517L370.617,297.06L373.283,297.06L366.076,316.517L363.41,316.517ZM366.842,303.396C366.842,304.346 366.525,305.138 365.997,305.719C365.469,306.3 364.703,306.643 363.832,306.643C362.116,306.643 360.849,305.297 360.849,303.396L360.849,301.126C360.849,300.175 361.166,299.357 361.694,298.776C362.222,298.195 362.987,297.878 363.832,297.878C365.601,297.878 366.842,299.225 366.842,301.126L366.842,303.396ZM363.33,303.396C363.33,303.898 363.489,304.162 363.832,304.162C364.175,304.162 364.334,303.898 364.334,303.396L364.334,301.126C364.334,300.624 364.175,300.36 363.832,300.36C363.489,300.36 363.33,300.624 363.33,301.126L363.33,303.396ZM375.791,312.504C375.791,313.454 375.474,314.246 374.946,314.827C374.418,315.408 373.653,315.751 372.808,315.751C371.039,315.751 369.798,314.405 369.798,312.504L369.798,310.234C369.798,308.333 371.039,306.986 372.808,306.986C373.653,306.986 374.418,307.303 374.946,307.884C375.474,308.465 375.791,309.283 375.791,310.234L375.791,312.504ZM373.31,310.234C373.31,309.732 373.151,309.468 372.808,309.468C372.465,309.468 372.306,309.732 372.306,310.234L372.306,312.504C372.306,313.006 372.465,313.27 372.808,313.27C373.151,313.27 373.31,313.006 373.31,312.504L373.31,310.234Z" style="fill:white;fill-rule:nonzero;"/>
                <path d="M341.391,393.024L341.391,395.713L335.356,395.713L335.356,402.205L341.391,402.205L341.391,404.893L335.356,404.893L335.356,414.102L332.668,414.102L332.668,393.024L341.391,393.024Z" style="fill:white;fill-rule:nonzero;"/>
                <path d="M343.306,399.002C343.306,397.143 343.707,395.684 344.507,394.655C344.822,394.283 345.251,393.882 345.88,393.539C346.509,393.225 347.282,392.996 348.311,392.996C350.37,392.996 351.514,393.882 352.115,394.655C352.916,395.684 353.316,397.143 353.316,399.002L353.316,408.068C353.316,409.927 352.916,411.386 352.115,412.415C351.514,413.187 350.37,414.074 348.311,414.074C346.281,414.074 345.108,413.187 344.507,412.415C343.707,411.386 343.306,409.927 343.306,408.068L343.306,399.002ZM345.995,408.068C345.995,409.755 346.366,410.556 346.853,410.957C347.339,411.357 347.882,411.386 348.311,411.386C348.683,411.386 349.284,411.357 349.77,410.957C350.256,410.556 350.628,409.755 350.628,408.068L350.628,399.002C350.628,397.372 350.256,396.514 349.77,396.113C349.284,395.713 348.683,395.713 348.311,395.713C347.882,395.713 347.339,395.713 346.853,396.113C346.366,396.514 345.995,397.372 345.995,399.002L345.995,408.068Z" style="fill:white;fill-rule:nonzero;"/>
                <path d="M354.889,399.002C354.889,397.143 355.29,395.684 356.09,394.655C356.405,394.283 356.834,393.882 357.463,393.539C358.092,393.225 358.865,392.996 359.894,392.996C361.953,392.996 363.097,393.882 363.698,394.655C364.499,395.684 364.899,397.143 364.899,399.002L364.899,408.068C364.899,409.927 364.499,411.386 363.698,412.415C363.097,413.187 361.953,414.074 359.894,414.074C357.864,414.074 356.691,413.187 356.09,412.415C355.29,411.386 354.889,409.927 354.889,408.068L354.889,399.002ZM357.578,408.068C357.578,409.755 357.949,410.556 358.436,410.957C358.922,411.357 359.465,411.386 359.894,411.386C360.266,411.386 360.867,411.357 361.353,410.957C361.839,410.556 362.211,409.755 362.211,408.068L362.211,399.002C362.211,397.372 361.839,396.514 361.353,396.113C360.867,395.713 360.266,395.713 359.894,395.713C359.465,395.713 358.922,395.713 358.436,396.113C357.949,396.514 357.578,397.372 357.578,399.002L357.578,408.068Z" style="fill:white;fill-rule:nonzero;"/>
                <path d="M366.472,414.103L366.472,393.024L370.676,393.024C374.309,393.024 376.025,395.255 376.025,399.116L376.025,407.982C376.025,411.843 374.309,414.103 370.676,414.103L366.472,414.103ZM369.161,395.713L369.161,411.414L370.676,411.414C371.363,411.414 372.021,411.328 372.507,410.871C372.964,410.413 373.308,409.555 373.308,407.982L373.308,399.116C373.308,397.543 372.964,396.685 372.507,396.228C372.021,395.77 371.363,395.713 370.676,395.713L369.161,395.713Z" style="fill:white;fill-rule:nonzero;"/>
            </g>
        </g>
    </g>
</svg>
