<?xml version="1.0" encoding="UTF-8" standalone="no"?>
<!DOCTYPE svg PUBLIC "-//W3C//DTD SVG 1.1//EN" "http://www.w3.org/Graphics/SVG/1.1/DTD/svg11.dtd">
<svg width="100%" height="100%" viewBox="0 0 43 43" version="1.1" xmlns="http://www.w3.org/2000/svg" xmlns:xlink="http://www.w3.org/1999/xlink" xml:space="preserve" xmlns:serif="http://www.serif.com/" style="fill-rule:evenodd;clip-rule:evenodd;stroke-linejoin:round;stroke-miterlimit:2;">
    <g transform="matrix(1,0,0,1,-59,-7)">
        <g transform="matrix(3.69557,0,0,0.314932,0,0)">
            <g transform="matrix(0.295975,0,0,3.47311,-9.90325,-418.401)">
                <g transform="matrix(0.0797792,0,0,0.0797792,83.3676,124.094)">
                    <path d="M168.875,192.184L168.875,149.567L57.644,149.567L57.644,192.184L83.163,192.184L83.163,283.344L57.644,283.344L57.644,325.961L168.875,325.961L168.875,283.344L143.356,283.344L143.356,192.184L168.875,192.184Z" style="fill:rgb(0,83,159);fill-rule:nonzero;"/>
                    <path d="M291.625,217.25C284.75,215.25 249.375,205.125 243.25,203.125C237.125,201.125 232.125,198.25 232.125,194.625C232.125,191 237.75,187.125 249.125,187.125C285,187.125 302.234,209.25 302.234,209.25C302.234,209.25 304.176,211.837 304.827,212.765L339.439,212.765L339.439,152.402L302.282,152.402L302.282,163.384C299.444,161.424 278.492,147.75 246,147.75C203.125,147.75 179.25,170 179.25,203.25C179.25,236.5 209.375,250.25 217.75,253.75C226.125,257.25 258.875,266.5 272.875,270.875C286.875,275.25 292,278.375 292,280.625C292,282.875 285.875,288.75 268.375,288.75C237.892,288.75 222.194,270.774 219.439,267.293L219.439,267.266C218.563,266.092 217.535,264.703 217.186,264.18C216.782,263.575 215.845,262.232 215.195,261.304L180.583,261.304L180.583,325.765L219.439,325.765L219.439,312.304C223.96,315.313 247.103,329.75 274.875,329.75C305.875,329.75 345.375,316.25 345.375,274.125C345.375,232 298.5,219.25 291.625,217.25Z" style="fill:rgb(0,83,159);fill-rule:nonzero;"/>
                    <path d="M444.035,147.157C392.357,147.157 349.973,172.995 349.973,238.952C349.973,304.909 395.984,329.614 444.261,329.614C492.538,329.614 538.096,305.135 538.096,239.633C538.096,174.131 492.54,147.157 444.035,147.157ZM444.489,285.643C426.809,285.643 415.476,281.563 415.476,238.726C415.476,195.888 423.863,191.355 445.168,191.355C458.087,191.355 473.727,192.261 473.727,237.366C473.727,282.471 462.169,285.643 444.489,285.643Z" style="fill:rgb(0,83,159);fill-rule:nonzero;"/>
                    <path d="M131.76,130.114C143.377,112.96 157.663,97.754 174.04,85.126C180.662,90.022 187.701,94.463 195.101,98.421C182.703,112.241 171.595,127.552 169.755,130.114L177.194,130.114C181.659,124.096 190.895,111.99 200.634,101.257C211.279,106.49 222.592,110.77 234.396,114.03C231.254,120.696 228.879,126.525 227.485,130.114L233.948,130.114C235.433,126.418 237.609,121.263 240.324,115.567C255.382,119.246 271.16,121.308 287.301,121.622L287.301,130.115L293.301,130.115L293.301,121.651C309.324,121.534 325.015,119.708 340.02,116.277C342.578,121.688 344.637,126.573 346.06,130.114L352.523,130.114C351.183,126.667 348.941,121.157 345.98,114.818C357.995,111.692 369.524,107.524 380.382,102.373C389.748,112.821 398.504,124.305 402.815,130.114L410.253,130.114C408.47,127.631 397.937,113.108 385.968,99.609C394.197,95.356 401.999,90.517 409.292,85.126C425.669,97.754 439.956,112.96 451.572,130.114L458.789,130.114C423.301,75.343 361.647,39.027 291.665,39.027C221.683,39.027 160.029,75.343 124.541,130.114L131.76,130.114ZM237.073,108.543C225.845,105.51 215.072,101.534 204.916,96.67C206.296,95.236 207.675,93.847 209.038,92.532C222.945,79.121 245.819,64.395 250.833,61.225C254.902,63.46 259.342,65.35 264.065,66.85C260.397,71.66 253.195,81.424 245.352,93.809C242.299,98.629 239.518,103.695 237.073,108.543ZM287.301,115.62C272.105,115.316 257.247,113.424 243.045,110.056C245.266,105.714 247.744,101.246 250.421,97.02C259.457,82.753 267.609,72.041 270.325,68.556C275.744,69.829 281.439,70.634 287.301,70.897L287.301,115.62ZM293.301,115.65L293.301,70.965C299.084,70.867 304.742,70.255 310.157,69.166C313.261,73.181 321.029,83.505 329.588,97.02C332.404,101.467 335.001,106.181 337.31,110.736C323.158,113.866 308.386,115.538 293.301,115.65ZM343.325,109.315C340.788,104.235 337.871,98.885 334.656,93.809C327.218,82.063 320.354,72.673 316.537,67.631C321.56,66.22 326.302,64.386 330.656,62.167C337.695,66.679 358.139,80.159 370.97,92.532C372.673,94.175 374.399,95.93 376.123,97.75C365.755,102.537 354.765,106.412 343.325,109.315ZM404.268,81.375C397.229,86.456 389.708,91.008 381.789,95.01C379.576,92.636 377.344,90.343 375.135,88.213C363.134,76.64 345.265,64.499 336.51,58.798C339.484,56.87 342.204,54.738 344.629,52.417C366.3,58.609 386.419,68.51 404.268,81.375ZM291.667,45.027C307.511,45.027 322.91,46.96 337.655,50.578C326.465,59.667 309.698,64.999 291.667,64.999C273.554,64.999 256.833,59.684 245.658,50.583C260.408,46.962 275.814,45.027 291.667,45.027ZM238.702,52.417C240.676,54.309 242.837,56.079 245.178,57.711C237.246,62.815 217.709,75.836 204.874,88.212C203.026,89.994 201.163,91.892 199.307,93.854C192.208,90.137 185.438,85.974 179.067,81.375C196.913,68.51 217.031,58.61 238.702,52.417Z" style="fill:rgb(0,83,159);fill-rule:nonzero;"/>
                    <path d="M451.582,345.947C440.212,362.74 426.282,377.664 410.339,390.132C402.746,384.422 394.596,379.318 385.977,374.86C396.36,363.148 405.663,350.666 409.107,345.948L401.635,345.948C397.029,352.098 388.966,362.531 380.39,372.098C369.532,366.945 358.004,362.774 345.987,359.649C348.528,354.208 350.535,349.386 351.901,345.948L345.419,345.948C344.045,349.3 342.218,353.553 340.023,358.196C325.027,354.77 309.338,352.945 293.302,352.829L293.302,345.948L287.302,345.948L287.302,352.856C271.148,353.169 255.371,355.229 240.322,358.903C237.978,353.986 236.035,349.469 234.592,345.948L228.109,345.948C229.54,349.552 231.676,354.676 234.392,360.438C222.585,363.699 211.268,367.973 200.624,373.209C191.68,363.35 183.163,352.337 178.376,345.947L170.904,345.947C174.462,350.822 184.289,364.004 195.101,376.054C187.314,380.224 179.92,384.923 172.995,390.131C157.051,377.663 143.121,362.739 131.752,345.946L124.546,345.946C160.035,400.717 221.687,437.033 291.668,437.033C361.648,437.033 423.301,400.718 458.79,345.946L451.582,345.946L451.582,345.947ZM343.328,365.155C354.772,368.057 365.762,371.931 376.131,376.72C374.404,378.542 372.677,380.3 370.971,381.946C358.18,394.279 337.801,407.728 330.709,412.276C326.355,410.048 321.607,408.214 316.568,406.803C320.392,401.752 327.238,392.38 334.656,380.667C337.873,375.59 340.79,370.237 343.328,365.155ZM293.301,358.828C308.398,358.94 323.17,360.607 337.313,363.733C335.003,368.291 332.406,373.006 329.587,377.457C321.04,390.953 313.284,401.266 310.171,405.293C304.771,404.217 299.113,403.61 293.3,403.514L293.3,358.828L293.301,358.828ZM287.301,358.858L287.301,403.576C281.417,403.837 275.716,404.632 270.304,405.896C267.569,402.385 259.443,391.703 250.421,377.457C247.742,373.228 245.262,368.757 243.04,364.411C257.234,361.047 272.092,359.161 287.301,358.858ZM237.07,365.929C239.516,370.78 242.299,375.846 245.352,380.668C253.189,393.043 260.386,402.801 264.057,407.615C259.327,409.114 254.892,411.006 250.825,413.247C245.792,410.063 222.938,395.348 209.039,381.946C207.674,380.63 206.295,379.239 204.913,377.804C215.067,372.938 225.839,368.961 237.07,365.929ZM177.98,393.893C184.667,388.977 191.797,384.545 199.298,380.616C201.156,382.58 203.023,384.481 204.873,386.265C217.705,398.638 237.236,411.656 245.171,416.762C242.344,418.741 239.767,420.917 237.477,423.279C215.835,416.937 195.76,406.897 177.98,393.893ZM291.667,431.034C275.304,431.034 259.412,428.979 244.23,425.128C255.316,415.386 272.92,409.479 291.667,409.479C310.391,409.479 328.012,415.39 339.099,425.129C323.918,428.98 308.028,431.034 291.667,431.034ZM345.853,423.279C343.131,420.474 340.02,417.916 336.549,415.653C345.319,409.942 363.152,397.82 375.135,386.264C377.345,384.133 379.577,381.839 381.792,379.463C390.115,383.673 398.003,388.489 405.353,393.892C387.572,406.898 367.496,416.938 345.853,423.279Z" style="fill:rgb(0,83,159);fill-rule:nonzero;"/>
                </g>
                <g transform="matrix(1.31795,0,0,1.31795,32.6934,-45.7105)">
                    <g transform="matrix(6,0,0,6,48.6567,160.194)">
                        <path d="M0.503,-0.084L0.503,0L0.03,0C0.03,-0.021 0.033,-0.042 0.041,-0.061C0.053,-0.093 0.072,-0.125 0.098,-0.156C0.125,-0.188 0.163,-0.224 0.213,-0.265C0.291,-0.328 0.344,-0.379 0.371,-0.416C0.398,-0.454 0.412,-0.489 0.412,-0.522C0.412,-0.557 0.4,-0.586 0.375,-0.61C0.35,-0.634 0.317,-0.646 0.277,-0.646C0.235,-0.646 0.201,-0.633 0.176,-0.608C0.15,-0.583 0.138,-0.547 0.137,-0.502L0.047,-0.512C0.053,-0.579 0.076,-0.63 0.117,-0.666C0.157,-0.701 0.211,-0.719 0.279,-0.719C0.348,-0.719 0.402,-0.7 0.442,-0.662C0.482,-0.624 0.502,-0.576 0.502,-0.52C0.502,-0.491 0.497,-0.463 0.485,-0.436C0.473,-0.408 0.454,-0.379 0.427,-0.348C0.399,-0.318 0.354,-0.276 0.291,-0.222C0.238,-0.178 0.204,-0.148 0.189,-0.132C0.174,-0.116 0.162,-0.1 0.152,-0.084L0.503,-0.084Z" style="fill:rgb(0,83,159);fill-rule:nonzero;"/>
                    </g>
                    <g transform="matrix(6,0,0,6,51.9936,160.194)">
                        <path d="M0.503,-0.084L0.503,0L0.03,0C0.03,-0.021 0.033,-0.042 0.041,-0.061C0.053,-0.093 0.072,-0.125 0.098,-0.156C0.125,-0.188 0.163,-0.224 0.213,-0.265C0.291,-0.328 0.344,-0.379 0.371,-0.416C0.398,-0.454 0.412,-0.489 0.412,-0.522C0.412,-0.557 0.4,-0.586 0.375,-0.61C0.35,-0.634 0.317,-0.646 0.277,-0.646C0.235,-0.646 0.201,-0.633 0.176,-0.608C0.15,-0.583 0.138,-0.547 0.137,-0.502L0.047,-0.512C0.053,-0.579 0.076,-0.63 0.117,-0.666C0.157,-0.701 0.211,-0.719 0.279,-0.719C0.348,-0.719 0.402,-0.7 0.442,-0.662C0.482,-0.624 0.502,-0.576 0.502,-0.52C0.502,-0.491 0.497,-0.463 0.485,-0.436C0.473,-0.408 0.454,-0.379 0.427,-0.348C0.399,-0.318 0.354,-0.276 0.291,-0.222C0.238,-0.178 0.204,-0.148 0.189,-0.132C0.174,-0.116 0.162,-0.1 0.152,-0.084L0.503,-0.084Z" style="fill:rgb(0,83,159);fill-rule:nonzero;"/>
                    </g>
                    <g transform="matrix(6,0,0,6,55.3305,160.194)">
                        <path d="M0.042,-0.353C0.042,-0.438 0.05,-0.506 0.068,-0.557C0.085,-0.609 0.111,-0.649 0.145,-0.677C0.18,-0.705 0.223,-0.719 0.275,-0.719C0.313,-0.719 0.347,-0.711 0.376,-0.696C0.405,-0.68 0.429,-0.658 0.448,-0.629C0.467,-0.6 0.481,-0.564 0.492,-0.522C0.503,-0.48 0.508,-0.424 0.508,-0.353C0.508,-0.269 0.5,-0.201 0.482,-0.15C0.465,-0.098 0.439,-0.058 0.405,-0.03C0.371,-0.002 0.327,0.012 0.275,0.012C0.206,0.012 0.152,-0.013 0.112,-0.062C0.065,-0.122 0.042,-0.219 0.042,-0.353ZM0.132,-0.353C0.132,-0.236 0.146,-0.157 0.173,-0.118C0.201,-0.08 0.235,-0.06 0.275,-0.06C0.315,-0.06 0.349,-0.08 0.377,-0.119C0.404,-0.158 0.418,-0.236 0.418,-0.353C0.418,-0.471 0.404,-0.549 0.377,-0.588C0.349,-0.627 0.315,-0.646 0.274,-0.646C0.234,-0.646 0.201,-0.629 0.177,-0.595C0.147,-0.551 0.132,-0.471 0.132,-0.353Z" style="fill:rgb(0,83,159);fill-rule:nonzero;"/>
                    </g>
                    <g transform="matrix(6,0,0,6,58.6674,160.194)">
                        <path d="M0.042,-0.353C0.042,-0.438 0.05,-0.506 0.068,-0.557C0.085,-0.609 0.111,-0.649 0.145,-0.677C0.18,-0.705 0.223,-0.719 0.275,-0.719C0.313,-0.719 0.347,-0.711 0.376,-0.696C0.405,-0.68 0.429,-0.658 0.448,-0.629C0.467,-0.6 0.481,-0.564 0.492,-0.522C0.503,-0.48 0.508,-0.424 0.508,-0.353C0.508,-0.269 0.5,-0.201 0.482,-0.15C0.465,-0.098 0.439,-0.058 0.405,-0.03C0.371,-0.002 0.327,0.012 0.275,0.012C0.206,0.012 0.152,-0.013 0.112,-0.062C0.065,-0.122 0.042,-0.219 0.042,-0.353ZM0.132,-0.353C0.132,-0.236 0.146,-0.157 0.173,-0.118C0.201,-0.08 0.235,-0.06 0.275,-0.06C0.315,-0.06 0.349,-0.08 0.377,-0.119C0.404,-0.158 0.418,-0.236 0.418,-0.353C0.418,-0.471 0.404,-0.549 0.377,-0.588C0.349,-0.627 0.315,-0.646 0.274,-0.646C0.234,-0.646 0.201,-0.629 0.177,-0.595C0.147,-0.551 0.132,-0.471 0.132,-0.353Z" style="fill:rgb(0,83,159);fill-rule:nonzero;"/>
                    </g>
                    <g transform="matrix(6,0,0,6,62.0043,160.194)">
                        <path d="M0.042,-0.353C0.042,-0.438 0.05,-0.506 0.068,-0.557C0.085,-0.609 0.111,-0.649 0.145,-0.677C0.18,-0.705 0.223,-0.719 0.275,-0.719C0.313,-0.719 0.347,-0.711 0.376,-0.696C0.405,-0.68 0.429,-0.658 0.448,-0.629C0.467,-0.6 0.481,-0.564 0.492,-0.522C0.503,-0.48 0.508,-0.424 0.508,-0.353C0.508,-0.269 0.5,-0.201 0.482,-0.15C0.465,-0.098 0.439,-0.058 0.405,-0.03C0.371,-0.002 0.327,0.012 0.275,0.012C0.206,0.012 0.152,-0.013 0.112,-0.062C0.065,-0.122 0.042,-0.219 0.042,-0.353ZM0.132,-0.353C0.132,-0.236 0.146,-0.157 0.173,-0.118C0.201,-0.08 0.235,-0.06 0.275,-0.06C0.315,-0.06 0.349,-0.08 0.377,-0.119C0.404,-0.158 0.418,-0.236 0.418,-0.353C0.418,-0.471 0.404,-0.549 0.377,-0.588C0.349,-0.627 0.315,-0.646 0.274,-0.646C0.234,-0.646 0.201,-0.629 0.177,-0.595C0.147,-0.551 0.132,-0.471 0.132,-0.353Z" style="fill:rgb(0,83,159);fill-rule:nonzero;"/>
                    </g>
                </g>
            </g>
        </g>
    </g>
</svg>
