<?xml version="1.0" encoding="UTF-8" standalone="no"?>
<!DOCTYPE svg PUBLIC "-//W3C//DTD SVG 1.1//EN" "http://www.w3.org/Graphics/SVG/1.1/DTD/svg11.dtd">
<svg width="100%" height="100%" viewBox="0 0 60 43" version="1.1" xmlns="http://www.w3.org/2000/svg" xmlns:xlink="http://www.w3.org/1999/xlink" xml:space="preserve" xmlns:serif="http://www.serif.com/" style="fill-rule:evenodd;clip-rule:evenodd;stroke-linejoin:round;stroke-miterlimit:2;">
    <g transform="matrix(1,0,0,1,-240,-136)">
        <g transform="matrix(3.69557,0,0,0.314932,0,129.024)">
            <g transform="matrix(0.0757336,0,0,0.888696,61.9417,-42.2447)">
                <path d="M121.545,79.104L123.641,79.104C130.932,75.747 139.065,73.872 147.639,73.872C156.285,73.872 164.482,75.779 171.814,79.186C179.146,75.779 187.343,73.872 195.99,73.872C227.283,73.872 252.69,98.847 252.69,129.608C252.69,160.37 227.283,185.344 195.99,185.344C187.343,185.344 179.146,183.438 171.814,180.031C164.482,183.438 156.285,185.344 147.639,185.344C139.065,185.344 130.932,183.469 123.641,180.113L121.545,180.113C114.446,183.469 106.528,185.344 98.179,185.344C67.709,185.344 42.972,160.37 42.972,129.608C42.972,98.847 67.709,73.872 98.179,73.872C106.528,73.872 114.446,75.747 121.545,79.104ZM112.907,85.563C108.283,83.98 103.33,83.122 98.179,83.122C72.79,83.122 52.221,103.976 52.221,129.608C52.221,155.241 72.79,176.095 98.179,176.095C103.33,176.095 108.283,175.236 112.907,173.654C99.545,163.455 90.939,147.512 90.939,129.608C90.939,111.705 99.545,95.762 112.907,85.563ZM132.129,173.549C136.992,175.199 142.211,176.095 147.639,176.095C154.891,176.095 161.767,174.5 167.917,171.643C170.388,170.494 173.24,170.494 175.712,171.643C181.862,174.5 188.738,176.095 195.99,176.095C222.135,176.095 243.441,155.309 243.441,129.608C243.441,103.908 222.135,83.122 195.99,83.122C188.738,83.122 181.862,84.716 175.712,87.574C173.24,88.722 170.388,88.722 167.917,87.574C161.767,84.716 154.891,83.122 147.639,83.122C142.211,83.122 136.992,84.018 132.129,85.667C145.064,95.872 153.386,111.767 153.386,129.608C153.386,147.45 145.064,163.345 132.129,173.549ZM104.258,148.464C107.367,155.313 112.118,161.288 118.016,165.914L118.016,153.784L104.258,148.464ZM127.266,154.167L127.266,165.591C132.475,161.275 136.73,155.827 139.663,149.624L127.266,154.167ZM144.097,127.671L127.266,135.104L127.266,144.316L143.307,138.438C143.852,135.576 144.137,132.625 144.137,129.608C144.137,128.96 144.123,128.314 144.097,127.671ZM100.319,126.131C100.232,127.28 100.188,128.439 100.188,129.608C100.188,132.202 100.405,134.745 100.822,137.219L118.016,143.867L118.016,134.603L100.319,126.131ZM139.664,109.596L127.266,115.129L127.266,124.993L142.73,118.164C141.983,115.182 140.95,112.315 139.664,109.596ZM105.1,108.997C103.859,111.45 102.831,114.026 102.043,116.702L118.016,124.349L118.016,114.761L105.1,108.997ZM127.266,105.001L134.859,101.612C132.649,98.655 130.098,95.973 127.266,93.626L127.266,105.001ZM118.016,93.303C115.091,95.596 112.448,98.221 110.148,101.121L118.016,104.632L118.016,93.303Z" style="fill:rgb(153,153,153);"/>
                <g transform="matrix(2.30746,0,0,2.30746,-116.297,-261.181)">
                    <g transform="matrix(16,0,0,16,87.3873,209.882)">
                        <path d="M0.531,-0.263L0.671,-0.219C0.649,-0.141 0.614,-0.083 0.564,-0.045C0.514,-0.007 0.45,0.012 0.374,0.012C0.278,0.012 0.2,-0.02 0.139,-0.085C0.078,-0.15 0.047,-0.239 0.047,-0.352C0.047,-0.471 0.078,-0.563 0.14,-0.629C0.201,-0.695 0.282,-0.728 0.382,-0.728C0.47,-0.728 0.541,-0.702 0.596,-0.65C0.628,-0.62 0.653,-0.576 0.669,-0.519L0.526,-0.484C0.517,-0.521 0.5,-0.551 0.473,-0.572C0.446,-0.594 0.413,-0.604 0.375,-0.604C0.322,-0.604 0.279,-0.585 0.246,-0.547C0.213,-0.509 0.196,-0.448 0.196,-0.362C0.196,-0.272 0.213,-0.207 0.245,-0.169C0.278,-0.131 0.32,-0.111 0.372,-0.111C0.41,-0.111 0.444,-0.124 0.471,-0.148C0.499,-0.172 0.519,-0.211 0.531,-0.263Z" style="fill:rgb(153,153,153);fill-rule:nonzero;"/>
                    </g>
                    <g transform="matrix(16,0,0,16,98.942,209.882)">
                        <path d="M0.073,0L0.073,-0.716L0.604,-0.716L0.604,-0.595L0.217,-0.595L0.217,-0.436L0.577,-0.436L0.577,-0.315L0.217,-0.315L0.217,-0.121L0.617,-0.121L0.617,0L0.073,0Z" style="fill:rgb(153,153,153);fill-rule:nonzero;"/>
                    </g>
                    <g transform="matrix(16,0,0,16,109.614,209.882)">
                        <path d="M0.073,0L0.073,-0.716L0.377,-0.716C0.454,-0.716 0.51,-0.709 0.544,-0.697C0.579,-0.684 0.607,-0.661 0.627,-0.628C0.648,-0.595 0.659,-0.557 0.659,-0.515C0.659,-0.461 0.643,-0.417 0.611,-0.382C0.58,-0.347 0.533,-0.325 0.47,-0.316C0.501,-0.298 0.527,-0.278 0.547,-0.256C0.567,-0.234 0.595,-0.195 0.629,-0.14L0.717,0L0.544,0L0.439,-0.156C0.402,-0.211 0.377,-0.247 0.363,-0.261C0.35,-0.275 0.335,-0.285 0.32,-0.291C0.305,-0.296 0.28,-0.299 0.247,-0.299L0.218,-0.299L0.218,0L0.073,0ZM0.218,-0.413L0.325,-0.413C0.394,-0.413 0.437,-0.416 0.455,-0.422C0.472,-0.428 0.485,-0.438 0.495,-0.452C0.505,-0.466 0.51,-0.484 0.51,-0.506C0.51,-0.53 0.503,-0.549 0.49,-0.564C0.478,-0.579 0.459,-0.588 0.436,-0.592C0.424,-0.594 0.389,-0.595 0.331,-0.595L0.218,-0.595L0.218,-0.413Z" style="fill:rgb(153,153,153);fill-rule:nonzero;"/>
                    </g>
                    <g transform="matrix(16,0,0,16,121.169,209.882)">
                        <path d="M0.073,0L0.073,-0.716L0.604,-0.716L0.604,-0.595L0.217,-0.595L0.217,-0.436L0.577,-0.436L0.577,-0.315L0.217,-0.315L0.217,-0.121L0.617,-0.121L0.617,0L0.073,0Z" style="fill:rgb(153,153,153);fill-rule:nonzero;"/>
                    </g>
                    <g transform="matrix(16,0,0,16,131.84,209.882)">
                        <path d="M0.036,-0.233L0.177,-0.247C0.185,-0.199 0.202,-0.165 0.228,-0.143C0.254,-0.12 0.289,-0.109 0.333,-0.109C0.38,-0.109 0.415,-0.119 0.438,-0.139C0.462,-0.159 0.474,-0.182 0.474,-0.208C0.474,-0.225 0.469,-0.239 0.459,-0.251C0.449,-0.263 0.431,-0.273 0.407,-0.282C0.39,-0.288 0.351,-0.299 0.291,-0.313C0.214,-0.333 0.159,-0.356 0.128,-0.384C0.084,-0.424 0.062,-0.472 0.062,-0.528C0.062,-0.565 0.072,-0.599 0.093,-0.631C0.114,-0.662 0.143,-0.687 0.182,-0.703C0.221,-0.72 0.268,-0.728 0.323,-0.728C0.413,-0.728 0.481,-0.708 0.526,-0.669C0.572,-0.63 0.595,-0.577 0.598,-0.511L0.453,-0.505C0.447,-0.542 0.434,-0.568 0.413,-0.584C0.393,-0.6 0.362,-0.608 0.322,-0.608C0.28,-0.608 0.247,-0.6 0.223,-0.583C0.208,-0.571 0.2,-0.557 0.2,-0.538C0.2,-0.521 0.207,-0.507 0.222,-0.495C0.24,-0.479 0.284,-0.463 0.354,-0.447C0.425,-0.43 0.477,-0.413 0.51,-0.395C0.544,-0.378 0.571,-0.353 0.59,-0.323C0.609,-0.292 0.618,-0.254 0.618,-0.208C0.618,-0.167 0.607,-0.129 0.584,-0.093C0.561,-0.057 0.529,-0.031 0.487,-0.013C0.446,0.004 0.394,0.013 0.332,0.013C0.241,0.013 0.172,-0.008 0.123,-0.05C0.075,-0.092 0.046,-0.153 0.036,-0.233Z" style="fill:rgb(153,153,153);fill-rule:nonzero;"/>
                    </g>
                </g>
                <path d="M157.46,132.309C157.46,132.309 158.306,141.85 167.617,142.742C170.27,142.996 172.975,141.954 175.052,140.245C177.158,138.513 178.586,136.113 178.783,133.826C179.205,128.926 179.015,119.373 178.917,114.597L175.674,114.663C175.769,119.354 175.965,128.735 175.551,133.547C175.42,135.06 174.385,136.594 172.991,137.74C171.57,138.909 169.741,139.687 167.926,139.513C161.27,138.875 160.692,132.028 160.692,132.028L157.46,132.309ZM225.85,129.992L215.785,129.986C215.679,129.986 215.574,129.975 215.471,129.955C215.471,129.955 209.174,128.696 209.201,122.377C209.233,114.806 217.436,114.918 217.399,114.917L230.554,114.922L230.553,118.166L217.398,118.162C217.386,118.162 217.374,118.161 217.362,118.161C217.362,118.161 212.464,117.971 212.445,122.391C212.431,125.645 215.321,126.574 215.972,126.742L225.978,126.748C226.046,126.748 226.114,126.752 226.182,126.761C226.182,126.761 229.699,127.208 231.575,130.247C232.349,131.502 232.87,133.208 232.673,135.542C232.459,138.071 231.488,139.646 230.451,140.648C228.77,142.272 226.809,142.427 226.809,142.427C226.753,142.432 226.698,142.435 226.642,142.434L211.804,142.308L211.832,139.064L226.546,139.189C226.89,139.12 229.164,138.539 229.44,135.269C229.563,133.812 229.298,132.735 228.814,131.951C227.881,130.439 226.229,130.06 225.85,129.992ZM183.751,125.896C183.75,125.853 183.75,125.809 183.75,125.765C183.75,119.733 188.733,114.835 194.871,114.835C201.008,114.835 205.991,119.733 205.991,125.765C205.991,125.847 205.991,125.93 205.989,126.012L205.989,141.348L202.745,141.348L202.745,133.48C200.731,135.465 197.946,136.694 194.871,136.694C191.794,136.694 189.008,135.464 186.994,133.477L186.994,141.348L183.75,141.348L183.75,125.896L183.751,125.896ZM202.746,125.896C202.747,125.852 202.747,125.808 202.747,125.765C202.747,121.507 199.203,118.079 194.871,118.079C190.539,118.079 186.994,121.507 186.994,125.765C186.994,130.022 190.539,133.45 194.871,133.45C199.132,133.45 202.632,130.132 202.745,125.971L202.745,125.896L202.746,125.896Z" style="fill:rgb(153,153,153);"/>
            </g>
        </g>
    </g>
</svg>
