<?xml version="1.0" encoding="UTF-8" standalone="no"?>
<!DOCTYPE svg PUBLIC "-//W3C//DTD SVG 1.1//EN" "http://www.w3.org/Graphics/SVG/1.1/DTD/svg11.dtd">
<svg width="100%" height="100%" viewBox="0 0 43 43" version="1.1" xmlns="http://www.w3.org/2000/svg" xmlns:xlink="http://www.w3.org/1999/xlink" xml:space="preserve" xmlns:serif="http://www.serif.com/" style="fill-rule:evenodd;clip-rule:evenodd;stroke-linejoin:round;stroke-miterlimit:2;">
    <g transform="matrix(1,0,0,1,-378,-136)">
        <g transform="matrix(3.69557,0,0,0.314932,0,129.024)">
            <g transform="matrix(0.00115633,0,0,-0.0135689,102.321,91.5561)">
                <path d="M4622.6,5016.9C3928.8,4946 3409.4,4802.2 2840.2,4522.4C2340,4277.1 1983.5,4024.1 1577.2,3631.2C1159.4,3223 854.6,2803.2 595.9,2278.1C354.4,1783.6 206.8,1298.7 124.4,725.7C91.8,499.5 91.8,-255.6 124.4,-481.8C260.5,-1432.4 628.5,-2285.3 1207.3,-2988.7C2560.4,-4631.2 4802.8,-5217.7 6778.8,-4447.2C8043.7,-3952.7 9071,-2923.5 9569.3,-1650.9C9772.5,-1127.7 9876,-625.6 9897,-41C9943,1285.3 9450.4,2563.6 8522.8,3521.9C8101.1,3957 7689.1,4257.9 7152.4,4520.4C6669.4,4758.1 6224.8,4898 5686.2,4980.4C5492.8,5009.2 4789.4,5034.1 4622.6,5016.9ZM5410.4,4547.3C6127.2,4478.3 6874.7,4215.7 7440,3834.3C7974.7,3474 8494.1,2933.5 8800.8,2416C9943.1,499.4 9515.7,-1936.5 7790.8,-3329.9C6686.8,-4221 5272.4,-4529.6 3896.3,-4182.7C3112.4,-3983.4 2449.3,-3602 1860.9,-3013.6C1515.9,-2666.7 1316.6,-2406 1100,-2015.1C676.4,-1248.5 486.7,-330.4 571,535.9C699.4,1858.3 1400.9,3042.8 2504.8,3799.8C3215.9,4286.6 4078.3,4556.9 4959.9,4566.4C5092.2,4566.4 5295.4,4558.8 5410.4,4547.3Z" style="fill:rgb(153,153,153);fill-rule:nonzero;"/>
                <g transform="matrix(1,0,0,1,-27.6678,63.7808)">
                    <g transform="matrix(1,0,0,1,39.4546,866.532)">
                        <path d="M3810,1383C3752.5,1260.3 3725.7,1130 3735.2,1020.8C3748.6,888.6 3796.5,829.1 3969,725.7C3999.7,708.5 3999.7,698.9 3970.9,591.5C3928.7,434.3 3913.4,70.2 3940.2,-108.1C3951.7,-186.7 3999.6,-407.1 4047.5,-596.8C4093.5,-786.5 4143.3,-993.5 4156.7,-1056.8L4181.6,-1171.8L4831.3,-1177.5C5189.7,-1179.4 5488.7,-1175.6 5496.4,-1167.9C5504.1,-1158.3 5529,-1072.1 5550.1,-974.3C5638.3,-568 5837.6,-79.3 6071.4,298.3C6234.3,562.8 6318.6,750.6 6332.1,871.4C6353.2,1089.9 6268.9,1218.3 6050.4,1295C5948.8,1331.4 5920.1,1350.6 5897.1,1400.4C5843.4,1517.3 5732.3,1469.4 5665.2,1298.8C5628.8,1203 5611.5,1049.6 5628.8,974.9C5649.9,879.1 5711.2,817.7 5858.8,746.8C5975.7,691.2 5983.4,683.5 5989.1,616.5C5996.8,528.3 5977.6,491.9 5720.8,104.8C5525.3,-190.4 5322.2,-558.3 5322.2,-617.8C5322.2,-638.9 5264.7,-644.6 4998.3,-644.6L4672.5,-644.6L4758.7,-449.1C4873.7,-186.5 4998.3,177.6 5073,469L5134.3,710.5L5249.3,722C5312.5,727.8 5373.9,741.2 5387.3,754.6C5398.8,766.1 5408.4,838.9 5408.4,923.3C5408.4,1044.1 5400.7,1084.3 5364.3,1141.8C5316.4,1218.5 5207.1,1279.8 5082.6,1302.8C4996.3,1316.2 4942.7,1356.5 4917.8,1421.6C4906.3,1452.3 4885.2,1463.8 4845,1463.8C4795.2,1463.8 4781.7,1450.4 4733.8,1354.6C4664.8,1210.9 4651.4,1025 4705,927.2C4739.5,865.9 4866,750.9 4921.6,731.7C4948.4,722.1 4802.8,246.8 4676.3,-79C4569,-353.1 4423.3,-648.2 4402.2,-640.6C4371.5,-631 4256.5,-364.6 4197.1,-167.2C4153,-23.5 4147.3,30.2 4147.3,256.4C4149.2,398.2 4156.9,553.5 4166.5,599.5L4181.8,683.8L4302.5,708.7C4367.7,722.1 4429,737.5 4438.6,745.1C4473.1,764.3 4484.6,923.3 4459.7,1024.9C4446.3,1080.5 4411.8,1151.4 4379.2,1185.9C4325.5,1249.1 4287.2,1266.4 4118.6,1310.5C4055.4,1325.8 4026.6,1348.8 3995.9,1398.7C3967.1,1448.5 3944.2,1463.9 3903.9,1463.9C3859.8,1463.5 3842.6,1450.1 3810,1383Z" style="fill:rgb(153,153,153);fill-rule:nonzero;"/>
                        <path d="M1676.9,1411.8C1596.4,1319.8 1558.1,1206.7 1556.2,1057.2C1556.2,892.4 1585,833 1701.9,764C1761.3,729.5 1811.1,725.7 2303.7,716.1C2892.1,706.5 2907.4,702.7 3009,581.9C3099.1,474.6 3104.8,428.6 3112.5,-410.9L3122.1,-1200.5L3168.1,-1212C3225.6,-1227.3 3298.4,-1181.3 3348.2,-1098.9C3384.6,-1041.4 3386.5,-997.3 3386.5,-165.5C3386.5,777.5 3376.9,890.5 3283,1049.6C3256.2,1095.6 3202.5,1147.3 3156.5,1174.2C3003.2,1260.4 2905.4,1273.9 2384.1,1287.3C1893.5,1300.7 1887.7,1300.7 1851.3,1346.7C1832.1,1371.6 1814.9,1402.3 1814.9,1417.6C1814.8,1455.9 1711.4,1452 1676.9,1411.8Z" style="fill:rgb(153,153,153);fill-rule:nonzero;"/>
                        <path d="M6734.7,1409.9C6617.8,1281.5 6573.7,967.2 6656.1,856C6748.1,733.3 6780.7,725.7 7286.7,716.1C7744.8,706.5 7746.7,706.5 7836.8,654.8C7995.9,560.9 8053.4,367.3 8040,-31.3C8030.4,-293.9 7997.8,-408.9 7894.3,-518.1C7790.8,-627.3 7756.3,-635 7181.3,-644.6L6654.2,-654.2L6602.5,-865C6573.7,-980 6548.8,-1096.9 6545,-1123.7L6539.3,-1171.6L6989.7,-1177.3C7635.6,-1185 7817.7,-1148.5 8015.1,-968.4C8222,-777 8283.3,-547 8283.3,54.8C8281.4,493.7 8252.6,677.7 8149.1,894.3C8001.5,1206.7 7827.1,1291 7323.1,1291C7150.6,1291 6987.7,1300.6 6960.9,1310.2C6932.1,1321.7 6899.6,1354.3 6888.1,1386.9C6863.1,1453.9 6784.5,1465.4 6734.7,1409.9Z" style="fill:rgb(153,153,153);fill-rule:nonzero;"/>
                    </g>
                    <g transform="matrix(329.378,0,0,-329.378,-13775.6,50587.8)">
                        <g transform="matrix(5.31126,0,0,5.31126,45.6373,160.194)">
                            <path d="M0.075,0L0.075,-0.716L0.219,-0.716L0.219,-0.398L0.511,-0.716L0.706,-0.716L0.436,-0.437L0.72,0L0.533,0L0.336,-0.336L0.219,-0.216L0.219,0L0.075,0Z" style="fill:rgb(153,153,153);fill-rule:nonzero;"/>
                        </g>
                        <g transform="matrix(5.31126,0,0,5.31126,49.4729,160.194)">
                            <path d="M0.043,-0.354C0.043,-0.426 0.054,-0.488 0.076,-0.537C0.092,-0.574 0.115,-0.606 0.143,-0.635C0.171,-0.664 0.202,-0.686 0.235,-0.7C0.28,-0.719 0.331,-0.728 0.39,-0.728C0.495,-0.728 0.58,-0.695 0.643,-0.63C0.706,-0.564 0.738,-0.473 0.738,-0.357C0.738,-0.241 0.706,-0.151 0.644,-0.086C0.581,-0.02 0.497,0.012 0.392,0.012C0.285,0.012 0.201,-0.02 0.138,-0.085C0.075,-0.15 0.043,-0.24 0.043,-0.354ZM0.192,-0.358C0.192,-0.277 0.211,-0.216 0.249,-0.174C0.286,-0.132 0.333,-0.111 0.391,-0.111C0.449,-0.111 0.496,-0.132 0.533,-0.174C0.57,-0.215 0.588,-0.277 0.588,-0.36C0.588,-0.442 0.57,-0.504 0.534,-0.544C0.498,-0.584 0.451,-0.604 0.391,-0.604C0.332,-0.604 0.284,-0.584 0.247,-0.543C0.211,-0.502 0.192,-0.441 0.192,-0.358Z" style="fill:rgb(153,153,153);fill-rule:nonzero;"/>
                        </g>
                        <g transform="matrix(5.31126,0,0,5.31126,53.6042,160.194)">
                            <path d="M0.036,-0.233L0.177,-0.247C0.185,-0.199 0.202,-0.165 0.228,-0.143C0.254,-0.12 0.289,-0.109 0.333,-0.109C0.38,-0.109 0.415,-0.119 0.438,-0.139C0.462,-0.159 0.474,-0.182 0.474,-0.208C0.474,-0.225 0.469,-0.239 0.459,-0.251C0.449,-0.263 0.431,-0.273 0.407,-0.282C0.39,-0.288 0.351,-0.299 0.291,-0.313C0.214,-0.333 0.159,-0.356 0.128,-0.384C0.084,-0.424 0.062,-0.472 0.062,-0.528C0.062,-0.565 0.072,-0.599 0.093,-0.631C0.114,-0.662 0.143,-0.687 0.182,-0.703C0.221,-0.72 0.268,-0.728 0.323,-0.728C0.413,-0.728 0.481,-0.708 0.526,-0.669C0.572,-0.63 0.595,-0.577 0.598,-0.511L0.453,-0.505C0.447,-0.542 0.434,-0.568 0.413,-0.584C0.393,-0.6 0.362,-0.608 0.322,-0.608C0.28,-0.608 0.247,-0.6 0.223,-0.583C0.208,-0.571 0.2,-0.557 0.2,-0.538C0.2,-0.521 0.207,-0.507 0.222,-0.495C0.24,-0.479 0.284,-0.463 0.354,-0.447C0.425,-0.43 0.477,-0.413 0.51,-0.395C0.544,-0.378 0.571,-0.353 0.59,-0.323C0.609,-0.292 0.618,-0.254 0.618,-0.208C0.618,-0.167 0.607,-0.129 0.584,-0.093C0.561,-0.057 0.529,-0.031 0.487,-0.013C0.446,0.004 0.394,0.013 0.332,0.013C0.241,0.013 0.172,-0.008 0.123,-0.05C0.075,-0.092 0.046,-0.153 0.036,-0.233Z" style="fill:rgb(153,153,153);fill-rule:nonzero;"/>
                        </g>
                        <g transform="matrix(5.31126,0,0,5.31126,57.1468,160.194)">
                            <path d="M0.073,0L0.073,-0.716L0.218,-0.716L0.218,-0.434L0.501,-0.434L0.501,-0.716L0.646,-0.716L0.646,0L0.501,0L0.501,-0.313L0.218,-0.313L0.218,0L0.073,0Z" style="fill:rgb(153,153,153);fill-rule:nonzero;"/>
                        </g>
                        <g transform="matrix(5.31126,0,0,5.31126,60.9824,160.194)">
                            <path d="M0.073,0L0.073,-0.716L0.604,-0.716L0.604,-0.595L0.217,-0.595L0.217,-0.436L0.577,-0.436L0.577,-0.315L0.217,-0.315L0.217,-0.121L0.617,-0.121L0.617,0L0.073,0Z" style="fill:rgb(153,153,153);fill-rule:nonzero;"/>
                        </g>
                        <g transform="matrix(5.31126,0,0,5.31126,64.525,160.194)">
                            <path d="M0.073,0L0.073,-0.716L0.377,-0.716C0.454,-0.716 0.51,-0.709 0.544,-0.697C0.579,-0.684 0.607,-0.661 0.627,-0.628C0.648,-0.595 0.659,-0.557 0.659,-0.515C0.659,-0.461 0.643,-0.417 0.611,-0.382C0.58,-0.347 0.533,-0.325 0.47,-0.316C0.501,-0.298 0.527,-0.278 0.547,-0.256C0.567,-0.234 0.595,-0.195 0.629,-0.14L0.717,0L0.544,0L0.439,-0.156C0.402,-0.211 0.377,-0.247 0.363,-0.261C0.35,-0.275 0.335,-0.285 0.32,-0.291C0.305,-0.296 0.28,-0.299 0.247,-0.299L0.218,-0.299L0.218,0L0.073,0ZM0.218,-0.413L0.325,-0.413C0.394,-0.413 0.437,-0.416 0.455,-0.422C0.472,-0.428 0.485,-0.438 0.495,-0.452C0.505,-0.466 0.51,-0.484 0.51,-0.506C0.51,-0.53 0.503,-0.549 0.49,-0.564C0.478,-0.579 0.459,-0.588 0.436,-0.592C0.424,-0.594 0.389,-0.595 0.331,-0.595L0.218,-0.595L0.218,-0.413Z" style="fill:rgb(153,153,153);fill-rule:nonzero;"/>
                        </g>
                    </g>
                </g>
            </g>
        </g>
    </g>
</svg>
