<?xml version="1.0" encoding="UTF-8" standalone="no"?>
<!DOCTYPE svg PUBLIC "-//W3C//DTD SVG 1.1//EN" "http://www.w3.org/Graphics/SVG/1.1/DTD/svg11.dtd">
<svg width="100%" height="100%" viewBox="0 0 42 43" version="1.1" xmlns="http://www.w3.org/2000/svg" xmlns:xlink="http://www.w3.org/1999/xlink" xml:space="preserve" xmlns:serif="http://www.serif.com/" style="fill-rule:evenodd;clip-rule:evenodd;stroke-linejoin:round;stroke-miterlimit:2;">
    <g transform="matrix(1,0,0,1,-1036,-136)">
        <g transform="matrix(3.69557,0,0,0.314932,0,129.024)">
            <g transform="matrix(0.180466,0,0,2.23935,280.35,22.8151)">
                <path d="M13.1,19.5C10.7,19.5 9.2,21.7 9.2,24.8C9.2,27.8 10.6,30 13,30C15.3,30 16.9,28.2 16.9,24.6C16.9,21.9 15.6,19.5 13.1,19.5ZM13,28.4C11.7,28.4 11,26.8 11,24.7C11,22.8 11.6,21 13,21C14.4,21 15,22.7 15,24.6C15,26.8 14.3,28.4 13,28.4Z" style="fill:rgb(153,153,153);fill-rule:nonzero;"/>
                <path d="M21.4,25C22.2,24.6 22.8,23.7 22.8,22.4C22.8,19.7 20.7,19.5 19.7,19.5C18.9,19.5 18.1,19.6 17.6,19.7L17.6,29.8L19.2,29.8L19.2,25.7L19.7,25.7C20.4,25.7 20.8,26.1 21,27.4C21.2,28.6 21.4,29.5 21.5,29.8L23.1,29.8C22.9,29.4 22.7,28.2 22.5,27C22.3,26 22,25.3 21.4,25ZM19.8,24.2L19.2,24.2L19.2,21.1C19.3,21 19.6,21 19.9,21C20.5,21 21.3,21.3 21.3,22.6C21.2,23.6 20.7,24.2 19.8,24.2Z" style="fill:rgb(153,153,153);fill-rule:nonzero;"/>
                <path d="M27.4,25.7L28.7,25.7L28.7,28.2C28.5,28.3 28.2,28.3 27.8,28.3C26.3,28.3 25.2,27.1 25.2,24.7C25.2,22.2 26.4,21.1 28,21.1C28.8,21.1 29.3,21.3 29.7,21.5L30.1,19.9C29.7,19.7 28.9,19.5 28,19.5C25.5,19.5 23.5,21.3 23.5,24.8C23.5,26.4 23.9,27.8 24.7,28.7C25.4,29.6 26.5,29.9 27.8,29.9C28.8,29.9 29.8,29.6 30.3,29.4L30.3,24.1L27.4,24.1L27.4,25.7Z" style="fill:rgb(153,153,153);fill-rule:nonzero;"/>
                <path d="M33.1,19.6L30.8,29.8L32.4,29.8L33,27.1L35.2,27.1L35.8,29.8L37.4,29.8L35.1,19.6L33.1,19.6ZM33.2,25.7L33.7,23.4C33.8,22.8 34,22 34.1,21.3C34.2,21.9 34.3,22.8 34.5,23.4L35,25.7L33.2,25.7Z" style="fill:rgb(153,153,153);fill-rule:nonzero;"/>
                <path d="M42.9,22.7C42.9,24.4 42.9,25.8 43,27.1C42.7,26 42.2,24.8 41.7,23.8L39.9,19.7L38.1,19.7L38.1,29.9L39.6,29.9L39.6,26.8C39.6,25 39.6,23.5 39.5,22.3C39.9,23.4 40.4,24.7 40.8,25.7L42.6,29.9L44.3,29.9L44.3,19.6L42.8,19.6L42.8,22.7L42.9,22.7Z" style="fill:rgb(153,153,153);fill-rule:nonzero;"/>
                <rect x="45.5" y="19.6" width="1.6" height="10.2" style="fill:rgb(153,153,153);"/>
                <path d="M52.1,21.1C52.7,21.1 53.1,21.3 53.5,21.4L53.8,19.8C53.6,19.6 52.9,19.4 52,19.4C49.7,19.4 47.8,21.2 47.8,24.8C47.8,27.8 49.2,29.9 51.8,29.9C52.7,29.9 53.4,29.7 53.7,29.5L53.5,28C53.2,28.2 52.6,28.3 52.1,28.3C50.5,28.3 49.5,27.1 49.5,24.7C49.5,22.3 50.7,21.1 52.1,21.1Z" style="fill:rgb(153,153,153);fill-rule:nonzero;"/>
                <path d="M39.9,49.5C39.1,49.5 38.7,50.4 38.7,51.4C38.7,52.5 39.1,53.3 39.9,53.3C40.7,53.3 41.1,52.4 41.1,51.4C41.1,50.4 40.7,49.5 39.9,49.5Z" style="fill:rgb(153,153,153);fill-rule:nonzero;"/>
                <path d="M44.2,49.5L43.7,49.5L43.7,51.1L44.1,51.1C44.7,51.1 45,50.8 45,50.2C45.1,49.6 44.6,49.5 44.2,49.5Z" style="fill:rgb(153,153,153);fill-rule:nonzero;"/>
                <path d="M29,49.6C28.9,49.9 28.8,50.4 28.7,50.7L28.4,51.9L29.5,51.9L29.2,50.7C29.2,50.4 29.1,49.9 29,49.6Z" style="fill:rgb(153,153,153);fill-rule:nonzero;"/>
                <path d="M24.1,49.5L23.6,49.5L23.6,51.1L24,51.1C24.6,51.1 24.9,50.8 24.9,50.2C25,49.6 24.4,49.5 24.1,49.5Z" style="fill:rgb(153,153,153);fill-rule:nonzero;"/>
                <path d="M62.4,54.5C62.4,54 62.5,53.2 62.3,52.7C62.1,52.2 62.6,51.7 62.6,51.4C62.7,51 62,49.9 62.4,49.3C62.8,48.7 62.5,48.7 62.3,48.2C62.1,47.7 62.2,46.2 62.4,45.4C62.7,44.6 62.1,44.9 62,44.4C61.8,43.8 62.3,42.6 62.4,42.3C62.5,41.9 62,40.9 62.1,40.5C62.2,40.1 62.4,39.7 62.2,39C62,38.3 62.5,37.7 62.6,37C62.7,36.4 62.2,35.7 62.3,34.8C62.3,33.9 62.6,33.2 62.6,32.6C62.7,32 61.8,31.5 62.1,31.1C62.4,30.8 62.4,30 62.4,29.3C62.5,28.6 62.1,28.3 62.2,28C62.2,27.7 62.9,27.6 62.4,26.7C61.9,25.8 62.5,24.9 62.6,24.1C62.7,23.4 62.1,23.4 62.4,22.3C62.6,21.2 62.1,21.6 62.3,21C62.5,20.4 62.2,20.3 62.3,20.1C62.4,19.9 62.8,19.6 62.6,18.9C62.4,18.2 62.4,17.3 62.6,16.6C62.8,16 62,15.9 62.4,15.2C62.8,14.5 62.3,13.6 62.3,13.6C63,12.4 62.2,12.1 62.3,11.8C62.4,11.5 62.4,11.3 62.3,10.6C62.2,10 62.4,9.5 62.4,9.1C62.4,8.7 62.3,7.7 62.5,6.2C62.7,4.7 62.3,5.1 62.3,3.7C62.3,2.3 62.3,1.7 61.1,0.9C60,0.1 60.5,0.7 59.8,0.6C59.1,0.5 58.8,0.7 58.8,0.7L58.2,0.5C57.6,0.3 57.9,1.4 56.8,0.7C55.8,0 55.9,1.2 55.5,0.7C55.1,0.2 54.7,1 54.3,1C53.9,1 53.7,0.5 53.3,0.7C53,1 52.9,0.7 52.9,0.7C51.8,-0.1 51.8,1 51.6,0.8C51.4,0.7 51,1 50.3,0.8C49.6,0.6 49.2,0.5 48.7,0.8C48.2,1.1 48.4,1.6 47.2,0.9C45.9,0.2 45.7,1.1 45.4,0.9C45,0.7 44.6,1.3 44.1,1C43.6,0.7 42.8,0.8 42.3,0.6C41.8,0.4 41.5,0.9 40.8,0.9C40.2,0.9 39.7,0.6 39.4,0.9C39.1,1.2 38.6,1 38.6,1C38,0.4 37.6,1.2 37.1,0.8C36.6,0.4 35.9,0.8 35.9,0.8C35.2,1.1 35.4,1.1 34.6,0.9C33.8,0.7 33.8,0.7 33.6,0.7C33.3,0.7 33,0.5 32.6,0.3C32.2,0.1 31.9,0.8 31.3,0.7C30.7,0.6 30.3,0.7 30.1,0.7C29.9,0.7 29.8,0.7 29.4,0.6C29,0.5 28.3,0.8 27.6,0.9C27,1 27.3,0.6 26.3,0.6C25.3,0.6 25.5,0.7 25,0.8C24.5,0.9 23.5,0.9 22.9,0.9C22.3,0.9 22.6,0.6 21.6,0.4C20.6,0.2 20.7,0.6 20.4,0.7C20.1,1 20.1,1 19.9,0.7C19.7,0.4 19.3,0.5 19,0.3C18.7,0.1 18,0.8 17.6,0.8C17.1,0.8 17.4,0.3 16.7,0.5C15.9,0.7 15.6,0.5 15.4,0.3C15,0.1 14,0.8 13.5,0.6C13.1,0.4 12.9,0.3 12.5,0.6C12.1,0.9 11.8,0.8 11.8,0.8C11.2,0.2 11.2,0.7 10.9,0.7C10.6,0.7 10.7,0.3 10.2,0.7C9.7,1 10.1,0.3 9.4,0.4C8.7,0.5 9,1 8.3,0.8C7.5,0.7 7,0.5 6.7,0.6C6.3,0.7 6.1,0.8 5.8,1C5.5,1.2 5.1,0.5 4.8,0.6C4.5,0.7 3.4,0.6 3.4,0.6C0.6,0.6 0.8,3.9 0.8,3.9C0.8,3.9 0.9,5.1 0.9,6C0.9,6.9 0.3,6 0.5,7C0.8,8 1,9.8 0.8,10.4C0.6,11.1 0.9,11.2 0.9,11.7C0.9,12.2 0.9,13.3 0.7,13.6C0.4,14 1,14.1 1,14.5C0.9,14.9 0.5,14.9 0.7,15.4C1,15.9 0.7,16.9 0.8,17.7C0.8,18.5 1.2,17.8 0.8,19.1C0.4,20.4 1.1,20.8 1,21.6C0.8,22.4 1,21.6 0.7,22.1C0.4,22.6 1.2,24.5 0.8,25C0.4,25.5 0.5,26.9 0.4,27.3C0.4,27.8 1.2,27.9 1,29.1C0.8,30.3 1.3,31.4 0.9,31.7C0.6,32 0.9,33.5 1,33.9C1.1,34.3 0.4,34.6 0.7,34.9C1,35.2 1,35.9 0.6,36.6C0.3,37.3 0.9,37.7 0.8,38.1C0.7,38.5 1.2,39.4 1,40C0.8,40.7 0.7,40.1 0.8,40.7C0.9,41.2 0.7,41.6 0.4,41.7C0.1,41.8 1,42.7 0.8,43.2C0.6,43.7 0.3,44.1 0.6,44.5C0.9,44.9 0.9,46.5 0.6,46.8C0.3,47.1 1.1,47 0.6,47.7C0.1,48.4 1.2,49.3 0.8,49.5C0.4,49.7 0.7,50.3 0.5,50.8C0.2,51.3 1.1,51.4 0.8,51.8C0.5,52.2 0.5,52.1 0.5,52.5C0.5,52.9 1,53.6 0.6,54.3C0.2,55 1,55.5 0.9,55.8C0.8,56.2 0.6,55.5 0.6,57.1C0.6,58.6 2,59.3 2.5,59.5C3,59.7 3.7,59.6 4.5,59.5C5.3,59.4 5.6,59.2 5.7,59.3C5.7,59.5 6.5,59.9 6.7,59.6C6.9,59.3 7.8,59.2 8.3,59.2C8.8,59.2 8.6,59.7 9.1,59.6C9.6,59.4 11.2,58.9 11.7,59.2C12.2,59.5 12.7,59.6 13.5,59.4C14.3,59.2 14.3,59.5 15.1,59.3C15.9,59 15.7,59.3 16.1,59.6C16.6,59.8 16.9,59 17.2,59.3C17.6,59.6 18.1,59.5 18.2,59.1C18.3,58.8 18.7,59.2 19.2,59C19.6,58.8 20.1,59.1 20.4,59.3C20.7,59.5 21,59.8 21.4,59.4C21.8,59 22.2,59.2 22.8,59.2C23.3,59.2 23.6,59.3 24.3,59.1C25.1,58.9 25.3,59.4 26.4,59.4C27.4,59.4 27.3,59.2 27.9,58.9C28.5,58.6 28.9,59.4 29.3,59.6C29.7,59.9 30.6,59.1 31.2,59C31.8,58.9 31.8,59.5 32.7,59.4C33.6,59.4 32.9,58.6 33.7,58.9C34.5,59.2 34.5,59.2 35,59C35.5,58.8 36,58.8 36.3,59.1C36.6,59.4 37.1,59.6 37.4,59.3C37.7,59 38.2,59.1 38.5,59.4C38.8,59.7 40,59.5 41.6,59C43.1,58.5 43.6,59 44.7,59.3C45.8,59.6 46,59.3 46.5,58.9C47,58.5 48.8,59.3 49.8,59.4C50.7,59.6 50.8,59.1 51.3,58.9C51.8,58.6 52.9,59.4 53.3,59.6C53.6,59.8 54.5,58.9 55.1,59C55.7,59 56,59.6 56.2,59.2C56.4,58.8 57.2,59.1 57.3,59.5C57.3,59.9 57.9,59.3 58.3,59.5C58.6,59.7 58.7,59 59.2,59.3C59.7,59.7 60.4,59.3 60.4,59.3C62.9,59.3 62.5,57 62.7,56.4C62.8,55.8 62.4,54.9 62.4,54.5ZM12.2,54.1L12.1,52C12.1,51.3 12,50.6 12,49.9C11.8,50.5 11.6,51.3 11.5,51.9L10.8,54.1L10,54.1L9.4,52C9.2,51.4 9.1,50.7 8.9,50C8.9,50.7 8.9,51.5 8.8,52.1L8.7,54.2L7.9,54.2L8.3,48.8L9.6,48.8L10.2,50.8C10.4,51.5 10.5,52.1 10.6,52.7C10.7,52.1 10.9,51.4 11.1,50.8L11.7,48.8L13,48.8L13.3,54.2L12.2,54.2L12.2,54.1ZM17,54.1L16.6,52.7L15.2,52.7L14.8,54.1L13.7,54.1L15.2,48.7L16.5,48.7L18,54.1L17,54.1ZM21.8,49.6L19.9,49.6L19.9,51L21.6,51L21.6,51.8L19.9,51.8L19.9,54L18.9,54L18.9,48.6L21.8,48.6L21.8,49.6ZM25.1,54.1C25,53.9 24.9,53.5 24.8,52.8C24.7,52.1 24.4,51.9 24,51.9L23.6,51.9L23.6,54.1L22.6,54.1L22.6,48.8C23,48.7 23.5,48.7 24,48.7C24.7,48.7 26.1,48.8 26.1,50.2C26.1,50.9 25.7,51.3 25.2,51.5C25.6,51.6 25.8,52 25.9,52.6C26.1,53.2 26.2,53.9 26.3,54.1L25.1,54.1ZM30.1,54.1L29.7,52.7L28.3,52.7L27.9,54.1L26.8,54.1L28.3,48.7L29.6,48.7L31.1,54.1L30.1,54.1ZM35.9,54.1L34.7,51.7L34.3,52.2L34.3,54L33.3,54L33.3,48.6L34.3,48.6L34.3,51C34.4,50.8 34.5,50.6 34.6,50.4L35.8,48.6L37,48.6L35.4,50.9L37.1,54L35.9,54L35.9,54.1ZM39.9,54.2C38.5,54.2 37.7,53 37.7,51.4C37.7,49.8 38.6,48.6 40,48.6C41.5,48.6 42.2,49.9 42.2,51.3C42.1,53.3 41.2,54.2 39.9,54.2ZM45.3,54.1C45.2,53.9 45.1,53.5 45,52.8C44.9,52.1 44.6,51.9 44.2,51.9L43.8,51.9L43.8,54.1L42.8,54.1L42.8,48.8C43.2,48.7 43.7,48.7 44.2,48.7C44.9,48.7 46.3,48.8 46.3,50.2C46.3,50.9 45.9,51.3 45.4,51.5C45.8,51.6 46,52 46.1,52.6C46.3,53.2 46.4,53.9 46.5,54.1L45.3,54.1ZM50.1,54.1L47.1,54.1L47.1,48.7L50,48.7L50,49.6L48.1,49.6L48.1,50.9L49.9,50.9L49.9,51.7L48.1,51.7L48.1,53.2L50.1,53.2L50.1,54.1ZM54.1,54.1L53.7,52.7L52.3,52.7L51.9,54.1L50.8,54.1L52.3,48.7L53.6,48.7L55.1,54.1L54.1,54.1ZM56.3,11.4C56.7,11.9 56.6,13.3 56.3,13.6C56,13.9 56.3,14.2 56.4,14.5C56.6,14.8 56.3,15.2 56.3,15.9C56.3,16.6 56.7,17.5 56.7,18C56.7,18.5 56.2,18.7 56.3,19.1C56.4,19.5 56.6,21.5 56.5,22.1C56.4,22.7 55.7,23 56.2,23.6C56.7,24.2 56.4,24.5 56.2,24.9C56,25.3 56.5,25.4 56.4,25.9C56.3,26.4 56.1,26.5 56.3,28C56.5,29.5 56.7,32.7 56.4,32.9C56.1,33.1 56.5,33.5 56.3,34.2C56.1,34.9 57,35.2 56.6,35.5C56.2,35.8 56.4,36.6 56.3,37.8C56.2,38.9 55.6,39.9 56,40.4C56.4,40.9 56.4,41.8 56.3,42.2C56.2,42.6 56.8,43 56.3,43.5C55.8,44 56.5,43.8 56.3,44.5C56.1,45.3 56.3,46.1 56.3,46.1C56.3,48.9 55.6,47.1 55.6,47.1C55.6,47.1 53.8,44.6 48.2,42.3C42.6,40 32.1,43.1 30.1,43.6C28.2,44.1 28.6,44.4 20,44.4C11.3,44.4 6.8,35.9 6.8,35.9L6.8,34C6.8,34 6.8,33.2 6.5,32.6C6.2,31.9 6.5,31.5 6.5,31.5C6.4,30.2 7.1,30.3 6.8,29.6C6.5,28.8 6.5,29 6.3,28.2C6.1,27.4 6.8,27.7 6.6,26.3C6.4,24.9 7,24.4 6.7,23.9C6.4,23.4 6.7,22.7 6.8,22C6.9,21.3 6.7,21.2 6.8,20.5C6.9,19.7 7,17.7 6.8,16.9C6.6,16 7.3,15.5 7,14.9C6.7,14.2 6.9,14.1 6.9,12.9C6.9,11.6 6.6,10.8 6.5,10.4C6.4,9.9 6.8,9.9 6.8,8.4C6.8,7 7.4,6.7 7.9,6.5C8.4,6.3 8.9,6.6 9.8,6.4C10.7,6.2 10.5,6.1 11.2,6.5C11.9,6.9 12,6.5 12.7,6.7C13.4,6.9 13.2,6.4 13.5,6.2C13.8,6 13.5,6.7 14.3,6.5C15,6.5 14.8,6.1 15,6.4C15.1,6.7 15.8,6.6 16.2,6.8C16.5,7 17.8,6.4 18.5,6.3C19,6.2 19.5,6.4 20,6.6C20.5,6.8 22,6.5 22.6,6.5C23.1,6.5 23.5,6.7 24.5,6.7C25.5,6.7 25,6.1 26,6.5C27,6.9 27.3,6.8 28,6.8C28.7,6.8 29.1,6.7 29.3,6.4C29.5,6.1 31.3,5.9 32.1,6.4C33,6.9 34.4,6.7 34.7,6.6C35,6.6 35.3,6.3 35.7,6.4C36.2,6.4 36,6.8 36.7,6.5C37.5,6.2 37.7,6.9 39.1,6.7C40.6,6.5 41.6,6.8 42.9,6.8C44.2,6.8 42.9,6.3 45,6.6C47.1,7 46.2,6.3 47.2,6.6C48.2,6.9 48.5,6.8 49.2,6.6C50,6.4 50.3,6.9 50.9,6.6C51.4,6.4 51.3,7.1 52.5,6.8C53.7,6.5 55.4,6.7 55.9,6.8C56.4,6.9 56.4,7.5 56.4,8.7C56.7,10 55.9,11 56.3,11.4Z" style="fill:rgb(153,153,153);fill-rule:nonzero;"/>
                <path d="M53,49.6C52.9,49.9 52.8,50.4 52.7,50.7L52.4,51.9L53.5,51.9L53.2,50.7C53.1,50.4 53.1,49.9 53,49.6Z" style="fill:rgb(153,153,153);fill-rule:nonzero;"/>
                <path d="M15.9,49.6C15.8,49.9 15.7,50.4 15.6,50.7L15.3,51.9L16.4,51.9L16.1,50.7C16,50.4 16,49.9 15.9,49.6Z" style="fill:rgb(153,153,153);fill-rule:nonzero;"/>
            </g>
        </g>
    </g>
</svg>
