<?xml version="1.0" encoding="UTF-8" standalone="no"?>
<!DOCTYPE svg PUBLIC "-//W3C//DTD SVG 1.1//EN" "http://www.w3.org/Graphics/SVG/1.1/DTD/svg11.dtd">
<svg width="100%" height="100%" viewBox="0 0 70 43" version="1.1" xmlns="http://www.w3.org/2000/svg" xmlns:xlink="http://www.w3.org/1999/xlink" xml:space="preserve" xmlns:serif="http://www.serif.com/" style="fill-rule:evenodd;clip-rule:evenodd;">
    <g transform="matrix(1,0,0,1,-629,-136)">
        <g transform="matrix(3.69557,0,0,0.314932,0,129.024)">
            <g transform="matrix(0.0271762,0,0,0.318899,171.066,0.827454)">
                <rect x="-24.2" y="70.8" width="343.9" height="308.1" style="fill:rgb(206,206,206);"/>
                <path d="M207.6,134.3C204.6,118.3 167,116.9 140.9,178C127,147 106.1,114.8 76.8,97.4C60.3,87.5 23.3,99 61.8,186.5C61.8,186.5 44,217.3 64.3,236.7C94,265.1 121.2,253.5 154.8,257.7C148.5,267.7 163,282.4 164.4,265.8C164.6,263.2 164.2,259.5 163.5,255.8C172,244.8 216.9,183.7 207.6,134.3" style="fill:rgb(153,153,153);fill-rule:nonzero;"/>
                <rect x="319.7" y="70.8" width="345.1" height="308.1" style="fill:rgb(113,113,113);"/>
                <path d="M170.8,378.9C189.2,271.1 243.7,172.7 310.5,86.1C276.9,101.6 234,147.8 196.5,200.3C184.8,227.4 168.4,249.6 163.7,255.7C164.4,259.5 164.9,263.2 164.6,265.8C163.6,277.4 156.1,273.6 154,266.8C140.4,290.7 129.1,313.8 121.3,334.2C102.8,285.9 59.2,246.1 2.2,224.5C47.9,280 76.2,325.7 88,378.9L-24.2,378.9L-24.2,488L664.9,488L664.9,378.9" style="fill:rgb(153,153,153);fill-rule:nonzero;"/>
                <path d="M192.1,157.6C190.7,141.2 162.7,142.3 145.7,187.5C145.7,187.5 145.6,187.7 145.3,188.2C154.7,211.5 160.2,233.2 162.4,246.2C168.6,236.5 195.1,192.6 192.1,157.6" style="fill:white;fill-rule:nonzero;"/>
                <path d="M154.8,252.4C162,255.5 136.8,164 87.7,134.2C75.3,126.6 54,133.1 80.5,192.8C80.5,192.8 60.7,224.7 91.1,238.9C110.2,247.8 135,243.8 154.8,252.4" style="fill:white;fill-rule:nonzero;"/>
                <path d="M46.5,456.6L46.3,456.6L27,403.3L16.8,403.3L42,468.8L50.4,468.8L76.1,403.3L66.4,403.3" style="fill:white;fill-rule:nonzero;"/>
                <path d="M46.5,456.6L46.3,456.6L27,403.3L16.8,403.3L42,468.8L50.4,468.8L76.1,403.3L66.4,403.3L46.5,456.6Z" style="fill:none;fill-rule:nonzero;stroke:white;stroke-width:3.61px;"/>
                <path d="M124,439.4L155.1,439.4L155.1,431.1L124,431.1L124,411.6L157.4,411.6L157.4,403.3L115.1,403.3L115.1,468.7L159.1,468.7L159.1,460.4L124,460.4" style="fill:white;fill-rule:nonzero;"/>
                <path d="M124,439.4L155.1,439.4L155.1,431.1L124,431.1L124,411.6L157.4,411.6L157.4,403.3L115.1,403.3L115.1,468.7L159.1,468.7L159.1,460.4L124,460.4L124,439.4Z" style="fill:none;fill-rule:nonzero;stroke:white;stroke-width:3.61px;"/>
                <path d="M246.8,421.6C246.8,413.4 242.6,403.3 225.8,403.3L202.8,403.3L202.8,468.8L211.7,468.8L211.7,440L221.6,440L238.3,468.8L249.4,468.8L230.8,438.9C240.6,437.8 246.8,429.9 246.8,421.6M211.7,432.1L211.7,411L223.4,411C230.4,411 237.4,412.7 237.4,421.6C237.4,430.5 230.4,432.1 223.4,432.1L211.7,432.1Z" style="fill:white;fill-rule:nonzero;"/>
                <path d="M211.7,432.1L211.7,411L223.4,411C230.4,411 237.4,412.7 237.4,421.6C237.4,430.5 230.4,432.1 223.4,432.1L211.7,432.1Z" style="fill:none;fill-rule:nonzero;stroke:white;stroke-width:3.61px;"/>
                <path d="M246.8,421.6C246.8,413.4 242.5,403.3 225.8,403.3L202.8,403.3L202.8,468.8L211.7,468.8L211.7,440L221.6,440L238.2,468.8L249.3,468.8L230.7,438.9C240.6,437.8 246.8,429.9 246.8,421.6Z" style="fill:none;fill-rule:nonzero;stroke:white;stroke-width:3.61px;"/>
                <rect x="290.4" y="403.3" width="8.9" height="65.5" style="fill:white;"/>
                <rect x="290.4" y="403.3" width="8.9" height="65.5" style="fill:none;stroke:white;stroke-width:3.61px;"/>
                <path d="M347.2,468.8L356.1,468.8L356.1,440.5L386.1,440.5L386.1,432.2L356.1,432.2L356.1,411.6L388.3,411.6L388.3,403.3L347.2,403.3" style="fill:white;fill-rule:nonzero;"/>
                <path d="M347.2,468.8L356.1,468.8L356.1,440.5L386.1,440.5L386.1,432.2L356.1,432.2L356.1,411.6L388.3,411.6L388.3,403.3L347.2,403.3L347.2,468.8Z" style="fill:none;fill-rule:nonzero;stroke:white;stroke-width:3.61px;"/>
                <rect x="431.3" y="403.3" width="8.9" height="65.5" style="fill:white;"/>
                <rect x="431.3" y="403.3" width="8.9" height="65.5" style="fill:none;stroke:white;stroke-width:3.61px;"/>
                <path d="M496.8,439.4L527.9,439.4L527.9,431.1L496.8,431.1L496.8,411.6L530.2,411.6L530.2,403.3L487.9,403.3L487.9,468.7L531.8,468.7L531.8,460.4L496.8,460.4" style="fill:white;fill-rule:nonzero;"/>
                <path d="M496.8,439.4L527.9,439.4L527.9,431.1L496.8,431.1L496.8,411.6L530.2,411.6L530.2,403.3L487.9,403.3L487.9,468.7L531.8,468.7L531.8,460.4L496.8,460.4L496.8,439.4Z" style="fill:none;fill-rule:nonzero;stroke:white;stroke-width:3.61px;"/>
                <path d="M596.7,403.3L573.9,403.3L573.9,468.8L595.3,468.8C618.7,468.8 631.2,452.8 631.2,436.1C631.1,423.9 624.4,403.3 596.7,403.3M594,460.4L582.8,460.4L582.8,411.6L596.1,411.6C617.4,411.6 621.7,427.7 621.7,436C621.7,452.2 608.9,460.4 594,460.4" style="fill:white;fill-rule:nonzero;"/>
                <path d="M594,460.4L582.8,460.4L582.8,411.6L596.1,411.6C617.4,411.6 621.7,427.7 621.7,436C621.7,452.2 608.9,460.4 594,460.4Z" style="fill:none;fill-rule:nonzero;stroke:white;stroke-width:3.61px;"/>
                <path d="M596.7,403.3L573.9,403.3L573.9,468.8L595.2,468.8C618.6,468.8 631.1,452.8 631.1,436C631.1,423.9 624.4,403.3 596.7,403.3Z" style="fill:none;fill-rule:nonzero;stroke:white;stroke-width:3.61px;"/>
                <path d="M378.8,123L379,123L413.8,179.6L436.7,179.6L436.7,100.1L419.2,100.1L419.2,155.3L418.9,155.3L385.1,100.1L361.3,100.1L361.3,179.6L378.8,179.6" style="fill:white;fill-rule:nonzero;"/>
                <path d="M495.3,181.7C520.1,181.7 538.3,165.4 538.3,139.8C538.3,114.3 520.2,98 495.3,98C470.5,98 452.3,114.3 452.3,139.8C452.3,165.4 470.5,181.7 495.3,181.7M495.3,114.2C510.2,114.2 520,125 520,139.8C520,154.7 510.2,165.5 495.3,165.5C480.4,165.5 470.6,154.7 470.6,139.8C470.6,125 480.4,114.2 495.3,114.2" style="fill:white;fill-rule:nonzero;"/>
                <path d="M571.4,123L571.7,123L606.4,179.6L629.3,179.6L629.3,100.1L611.8,100.1L611.8,155.3L611.6,155.3L577.8,100.1L553.9,100.1L553.9,179.6L571.4,179.6" style="fill:white;fill-rule:nonzero;"/>
                <path d="M379,289.1L356.7,289.1L356.7,351.9L365.3,351.9L365.3,324.2L379,324.2C395.2,324.2 399.3,314.5 399.3,306.6C399.3,298.7 395.2,289.1 379,289.1M376.6,316.7L365.3,316.7L365.3,296.5L376.6,296.5C383.4,296.5 390.2,298.1 390.2,306.6C390.2,315.1 383.4,316.7 376.6,316.7" style="fill:white;fill-rule:nonzero;"/>
                <path d="M415.6,316.3L415.4,316.3L415.4,309.8L407.3,309.8L407.3,351.9L415.4,351.9L415.4,330.8C415.4,321.6 419.7,317.3 427.6,317.3C428.9,317.3 430.2,317.6 431.6,318L432,309.4C430.9,309 429.7,308.9 428.4,308.9C423.1,308.8 417.7,311.9 415.6,316.3" style="fill:white;fill-rule:nonzero;"/>
                <path d="M457.5,308.8C444.9,308.8 434.9,318.6 434.9,330.9C434.9,343.1 444.9,353 457.5,353C470.1,353 480.1,343.2 480.1,330.9C480.1,318.6 470.2,308.8 457.5,308.8M457.5,345.5C448.9,345.5 443.5,339.4 443.5,330.9C443.5,322.4 448.9,316.2 457.5,316.2C466.1,316.2 471.5,322.3 471.5,330.9C471.5,339.4 466.2,345.5 457.5,345.5" style="fill:white;fill-rule:nonzero;"/>
                <path d="M494.5,288.9C491.3,288.9 488.6,291.6 488.6,294.8C488.6,298 491.3,300.7 494.5,300.7C497.7,300.7 500.4,298 500.4,294.8C500.4,291.6 497.7,288.9 494.5,288.9" style="fill:white;fill-rule:nonzero;"/>
                <path d="M490.5,357.6C490.5,362.9 489,365.7 484.6,365.7C483.5,365.7 482.3,365.4 481.3,365L480.4,372.4C482.1,373 483.8,373.2 485.6,373.2C498.5,373.2 498.6,362.3 498.6,357.9L498.6,309.8L490.6,309.8" style="fill:white;fill-rule:nonzero;"/>
                <path d="M531.7,308.8C519,308.8 509.7,318.3 509.7,330.9C509.7,343.4 518.1,353 531.6,353C539.8,353 545.9,350.1 550.4,344.4L544.3,339.8C541.1,343.6 537.6,346.1 532.6,346.1C525.2,346.1 518.3,341.2 518.3,333.8L552.4,333.8L552.4,331C552.4,320.1 546.7,308.8 531.7,308.8M518.4,327.4C518.4,321.8 523.6,315.2 531.6,315.2C539.8,315.2 543.7,320.4 543.9,327.4L518.4,327.4Z" style="fill:white;fill-rule:nonzero;"/>
                <path d="M581.8,316.3C586.3,316.3 589.4,317.9 592.4,321L598.5,315.5C594.3,311 588.4,308.8 582.2,308.8C568.9,308.8 560,318 560,331C560,343.9 569.1,352.9 582.2,352.9C588.4,352.9 594.1,351 598.3,346.4L592.6,340.7C589.9,343.8 586.8,345.4 582.3,345.4C574,345.4 568.6,339 568.6,331.1C568.5,323.3 573,316.3 581.8,316.3" style="fill:white;fill-rule:nonzero;"/>
                <path d="M622.3,335.8L622.3,316.7L633.9,316.7L633.9,309.8L622.3,309.8L622.3,298L614.3,298L614.3,309.8L605,309.8L605,316.7L614.3,316.7L614.3,338.6C614.3,345.3 614.5,352.9 626.9,352.9C628.5,352.9 632.3,352.5 634.2,351.5L634.2,344.2C632.6,345.2 630.3,345.4 628.5,345.4C622.3,345.5 622.3,340.5 622.3,335.8" style="fill:white;fill-rule:nonzero;"/>
                <path d="M396.1,278.2C407.8,278.2 419.1,276 429.5,270.6L429.5,229L398.3,229L398.3,245.2L412.6,245.2L412.6,258.1C409.3,259.9 403.7,262 396.1,262C381.2,262 371.4,251.2 371.4,236.4C371.4,221.6 381.2,210.8 396.1,210.8C405,210.8 410.7,213.4 415.5,218.3L427.9,204.8C419.9,197.4 408.8,194.6 396.2,194.6C371.4,194.6 353.2,210.9 353.2,236.4C353.1,261.9 371.2,278.2 396.1,278.2" style="fill:white;fill-rule:nonzero;"/>
                <path d="M522.2,215.1L522.2,276.2L539.8,276.2L539.8,196.6L513.3,196.6L494.9,248.5L494.7,248.5L476.3,196.6L449.8,196.6L449.8,276.2L467.4,276.2L467.4,215.1L467.6,215.1L487.7,276.2L501.1,276.2L522,215.1" style="fill:white;fill-rule:nonzero;"/>
                <path d="M596.1,278.2C620.9,278.2 639.1,261.9 639.1,236.4C639.1,210.9 621,194.6 596.1,194.6C571.3,194.6 553.1,210.9 553.1,236.4C553.1,261.9 571.3,278.2 596.1,278.2M596.1,210.7C611,210.7 620.8,221.5 620.8,236.3C620.8,251.1 611,261.9 596.1,261.9C581.2,261.9 571.4,251.1 571.4,236.3C571.4,221.5 581.2,210.7 596.1,210.7" style="fill:white;fill-rule:nonzero;"/>
            </g>
        </g>
    </g>
</svg>
