<?xml version="1.0" encoding="UTF-8" standalone="no"?>
<!DOCTYPE svg PUBLIC "-//W3C//DTD SVG 1.1//EN" "http://www.w3.org/Graphics/SVG/1.1/DTD/svg11.dtd">
<svg width="100%" height="100%" viewBox="0 0 93 43" version="1.1" xmlns="http://www.w3.org/2000/svg" xmlns:xlink="http://www.w3.org/1999/xlink" xml:space="preserve" xmlns:serif="http://www.serif.com/" style="fill-rule:evenodd;clip-rule:evenodd;stroke-linejoin:round;stroke-miterlimit:2;">
    <g transform="matrix(1,0,0,1,-438,-7)">
        <g transform="matrix(3.69557,0,0,0.314932,0,0)">
            <g transform="matrix(0.0713935,0,0,0.837766,118.778,23.4055)">
                <g transform="matrix(0.0282914,0,0,0.0279052,0,0)">
                    <path d="M1084,4152C-403,2950 -40,1474 484,869C1721,-531 3307,108 3949,693L10916,693C11617,707 12132,1189 12196,1974L12196,4142C12171,4417 12070,4546 11782,4556L7224,4556C6145,5652 3968,6325 1837,4662C1689,4809 1542,4957 1394,5104C1092,5367 494,4831 773,4483C877,4373 981,4262 1084,4152Z" style="fill:white;"/>
                </g>
                <g transform="matrix(0.0282914,0,0,0.0279052,0,0)">
                    <path d="M1104,4170L1084,4152L1101,4131L1124,4149L1104,4170Z" style="fill:rgb(27,25,24);"/>
                </g>
                <g transform="matrix(0.0282914,0,0,0.0279052,0,0)">
                    <path d="M1101,4131L1067,4173C868,4012 702,3847 565,3679L607,3645C742,3810 905,3973 1101,4131Z" style="fill:rgb(27,25,24);"/>
                </g>
                <g transform="matrix(0.0282914,0,0,0.0279052,0,0)">
                    <path d="M607,3645L565,3679C428,3511 319,3341 236,3171L260,3160L284,3148C366,3314 473,3481 607,3645Z" style="fill:rgb(27,25,24);"/>
                </g>
                <g transform="matrix(0.0282914,0,0,0.0279052,0,0)">
                    <path d="M260,3160L236,3171C152,3002 93,2832 55,2666L81,2660L108,2654C145,2816 202,2982 284,3148L260,3160Z" style="fill:rgb(27,25,24);"/>
                </g>
                <g transform="matrix(0.0282914,0,0,0.0279052,0,0)">
                    <path d="M81,2660L55,2666C17,2500 0,2337 0,2180L54,2180C54,2333 71,2492 108,2654L81,2660Z" style="fill:rgb(27,25,24);"/>
                </g>
                <g transform="matrix(0.0282914,0,0,0.0279052,0,0)">
                    <path d="M54,2180L0,2180C0,1901 54,1641 138,1415L163,1425L189,1434C106,1655 54,1908 54,2180Z" style="fill:rgb(27,25,24);"/>
                </g>
                <g transform="matrix(0.0282914,0,0,0.0279052,0,0)">
                    <path d="M163,1425L138,1415C223,1188 339,996 464,851L504,887C383,1027 271,1214 189,1434L163,1425Z" style="fill:rgb(27,25,24);"/>
                </g>
                <g transform="matrix(0.0282914,0,0,0.0279052,0,0)">
                    <path d="M464,851L484,869L464,851Z" style="fill:rgb(27,25,24);"/>
                </g>
                <g transform="matrix(0.0282914,0,0,0.0279052,0,0)">
                    <path d="M504,887L464,851C603,694 746,562 892,453L908,475L924,496C781,603 641,733 504,887Z" style="fill:rgb(27,25,24);"/>
                </g>
                <g transform="matrix(0.0282914,0,0,0.0279052,0,0)">
                    <path d="M908,475L892,453C1038,344 1187,257 1336,190L1347,214L1358,239C1212,305 1067,389 924,496L908,475Z" style="fill:rgb(27,25,24);"/>
                </g>
                <g transform="matrix(0.0282914,0,0,0.0279052,0,0)">
                    <path d="M1347,214L1336,190C1635,55 1937,0 2228,0L2228,54C1945,54 1650,108 1358,239L1347,214Z" style="fill:rgb(27,25,24);"/>
                </g>
                <g transform="matrix(0.0282914,0,0,0.0279052,0,0)">
                    <path d="M2228,54L2228,0C2591,0 2935,86 3234,213L3224,238L3213,263C2920,138 2583,54 2228,54Z" style="fill:rgb(27,25,24);"/>
                </g>
                <g transform="matrix(0.0282914,0,0,0.0279052,0,0)">
                    <path d="M3224,238L3234,213C3534,341 3787,509 3967,673L3931,713C3755,552 3506,388 3213,263L3224,238Z" style="fill:rgb(27,25,24);"/>
                </g>
                <g transform="matrix(0.0282914,0,0,0.0279052,0,0)">
                    <path d="M3931,713L3949,693L3949,720L3939,720L3931,713Z" style="fill:rgb(27,25,24);"/>
                </g>
                <g transform="matrix(0.0282914,0,0,0.0279052,0,0)">
                    <path d="M3949,720L3949,666L10916,666L10916,720L3949,720Z" style="fill:rgb(27,25,24);"/>
                </g>
                <g transform="matrix(0.0282914,0,0,0.0279052,0,0)">
                    <path d="M10917,666L10916,693L10916,666L10917,666Z" style="fill:rgb(27,25,24);"/>
                </g>
                <g transform="matrix(0.0282914,0,0,0.0279052,0,0)">
                    <path d="M10915,720L10917,666C11095,670 11262,703 11413,764L11393,814C11248,755 11087,723 10915,720Z" style="fill:rgb(27,25,24);"/>
                </g>
                <g transform="matrix(0.0282914,0,0,0.0279052,0,0)">
                    <path d="M11393,814L11413,764C11564,824 11699,912 11814,1025L11795,1044L11776,1064C11666,956 11537,872 11393,814Z" style="fill:rgb(27,25,24);"/>
                </g>
                <g transform="matrix(0.0282914,0,0,0.0279052,0,0)">
                    <path d="M11795,1044L11814,1025C11928,1138 12023,1275 12092,1434L12068,1445L12043,1455C11976,1303 11886,1171 11776,1064L11795,1044Z" style="fill:rgb(27,25,24);"/>
                </g>
                <g transform="matrix(0.0282914,0,0,0.0279052,0,0)">
                    <path d="M12068,1445L12092,1434C12162,1592 12207,1772 12223,1972L12169,1976C12153,1783 12110,1609 12043,1455L12068,1445Z" style="fill:rgb(27,25,24);"/>
                </g>
                <g transform="matrix(0.0282914,0,0,0.0279052,0,0)">
                    <path d="M12223,1974L12196,1974L12223,1972L12223,1974Z" style="fill:rgb(27,25,24);"/>
                </g>
                <g transform="matrix(0.0282914,0,0,0.0279052,0,0)">
                    <path d="M12169,1974L12223,1974L12223,4142L12169,4142L12169,1974Z" style="fill:rgb(27,25,24);"/>
                </g>
                <g transform="matrix(0.0282914,0,0,0.0279052,0,0)">
                    <path d="M12223,4144L12196,4142L12223,4142L12223,4144Z" style="fill:rgb(27,25,24);"/>
                </g>
                <g transform="matrix(0.0282914,0,0,0.0279052,0,0)">
                    <path d="M12169,4140L12223,4144C12216,4216 12205,4277 12187,4330L12161,4321L12136,4313C12153,4263 12163,4206 12169,4140Z" style="fill:rgb(27,25,24);"/>
                </g>
                <g transform="matrix(0.0282914,0,0,0.0279052,0,0)">
                    <path d="M12161,4321L12187,4330C12177,4357 12166,4382 12153,4405L12130,4391L12107,4378C12118,4358 12128,4336 12136,4313L12161,4321Z" style="fill:rgb(27,25,24);"/>
                </g>
                <g transform="matrix(0.0282914,0,0,0.0279052,0,0)">
                    <path d="M12130,4391L12153,4405C12140,4428 12125,4448 12107,4467L12088,4448L12068,4430C12083,4414 12095,4397 12107,4378L12130,4391Z" style="fill:rgb(27,25,24);"/>
                </g>
                <g transform="matrix(0.0282914,0,0,0.0279052,0,0)">
                    <path d="M12088,4448L12107,4467C12090,4486 12070,4502 12047,4516L12019,4470C12037,4459 12053,4445 12068,4430L12088,4448Z" style="fill:rgb(27,25,24);"/>
                </g>
                <g transform="matrix(0.0282914,0,0,0.0279052,0,0)">
                    <path d="M12019,4470L12047,4516C12025,4530 12001,4542 11974,4551L11965,4526L11956,4500C11979,4492 12000,4482 12019,4470Z" style="fill:rgb(27,25,24);"/>
                </g>
                <g transform="matrix(0.0282914,0,0,0.0279052,0,0)">
                    <path d="M11965,4526L11974,4551C11921,4570 11858,4580 11783,4583L11781,4529C11850,4527 11908,4517 11956,4500L11965,4526Z" style="fill:rgb(27,25,24);"/>
                </g>
                <g transform="matrix(0.0282914,0,0,0.0279052,0,0)">
                    <path d="M11782,4583L11782,4556L11783,4583L11782,4583Z" style="fill:rgb(27,25,24);"/>
                </g>
                <g transform="matrix(0.0282914,0,0,0.0279052,0,0)">
                    <path d="M11782,4529L11782,4583L7224,4583L7224,4529L11782,4529Z" style="fill:rgb(27,25,24);"/>
                </g>
                <g transform="matrix(0.0282914,0,0,0.0279052,0,0)">
                    <path d="M7224,4529L7224,4556L7205,4537L7213,4529L7224,4529Z" style="fill:rgb(27,25,24);"/>
                </g>
                <g transform="matrix(0.0282914,0,0,0.0279052,0,0)">
                    <path d="M7205,4537L7243,4575C6935,4888 6537,5167 6077,5368L6067,5343L6056,5318C6509,5121 6901,4846 7205,4537Z" style="fill:rgb(27,25,24);"/>
                </g>
                <g transform="matrix(0.0282914,0,0,0.0279052,0,0)">
                    <path d="M6067,5343L6077,5368C5617,5568 5095,5691 4536,5691L4536,5637C5087,5637 5602,5516 6056,5318L6067,5343Z" style="fill:rgb(27,25,24);"/>
                </g>
                <g transform="matrix(0.0282914,0,0,0.0279052,0,0)">
                    <path d="M4536,5637L4536,5691C4110,5691 3662,5620 3206,5458L3215,5433L3224,5407C3674,5567 4115,5637 4536,5637Z" style="fill:rgb(27,25,24);"/>
                </g>
                <g transform="matrix(0.0282914,0,0,0.0279052,0,0)">
                    <path d="M3215,5433L3206,5458C2749,5297 2284,5045 1820,4683L1854,4641C2312,4998 2772,5248 3224,5407L3215,5433Z" style="fill:rgb(27,25,24);"/>
                </g>
                <g transform="matrix(0.0282914,0,0,0.0279052,0,0)">
                    <path d="M1854,4641L1837,4662L1818,4643L1835,4626L1854,4641Z" style="fill:rgb(27,25,24);"/>
                </g>
                <g transform="matrix(0.0282914,0,0,0.0279052,0,0)">
                    <path d="M1818,4643L1856,4681C1708,4828 1561,4976 1413,5123L1375,5085C1523,4938 1670,4790 1818,4643Z" style="fill:rgb(27,25,24);"/>
                </g>
                <g transform="matrix(0.0282914,0,0,0.0279052,0,0)">
                    <path d="M1412,5124L1394,5104L1413,5123L1412,5124Z" style="fill:rgb(27,25,24);"/>
                </g>
                <g transform="matrix(0.0282914,0,0,0.0279052,0,0)">
                    <path d="M1376,5084L1412,5124C1381,5151 1347,5170 1312,5183L1303,5157L1294,5132C1323,5122 1351,5106 1376,5084Z" style="fill:rgb(27,25,24);"/>
                </g>
                <g transform="matrix(0.0282914,0,0,0.0279052,0,0)">
                    <path d="M1303,5157L1312,5183C1277,5195 1240,5201 1202,5201L1202,5147C1234,5147 1265,5142 1294,5132L1303,5157Z" style="fill:rgb(27,25,24);"/>
                </g>
                <g transform="matrix(0.0282914,0,0,0.0279052,0,0)">
                    <path d="M1202,5147L1202,5201C1171,5201 1139,5197 1107,5189L1113,5163L1120,5137C1147,5144 1175,5147 1202,5147Z" style="fill:rgb(27,25,24);"/>
                </g>
                <g transform="matrix(0.0282914,0,0,0.0279052,0,0)">
                    <path d="M1113,5163L1107,5189C1075,5182 1044,5171 1013,5156L1025,5132L1036,5107C1064,5120 1092,5130 1120,5137L1113,5163Z" style="fill:rgb(27,25,24);"/>
                </g>
                <g transform="matrix(0.0282914,0,0,0.0279052,0,0)">
                    <path d="M1025,5132L1013,5156C953,5128 895,5088 845,5040L863,5020L882,5001C928,5045 981,5082 1036,5107L1025,5132Z" style="fill:rgb(27,25,24);"/>
                </g>
                <g transform="matrix(0.0282914,0,0,0.0279052,0,0)">
                    <path d="M863,5020L845,5040C794,4992 752,4936 722,4876L746,4864L770,4851C798,4906 836,4957 882,5001L863,5020Z" style="fill:rgb(27,25,24);"/>
                </g>
                <g transform="matrix(0.0282914,0,0,0.0279052,0,0)">
                    <path d="M746,4864L722,4876C707,4845 695,4814 687,4782L713,4775L739,4769C746,4797 757,4825 770,4851L746,4864Z" style="fill:rgb(27,25,24);"/>
                </g>
                <g transform="matrix(0.0282914,0,0,0.0279052,0,0)">
                    <path d="M713,4775L687,4782C678,4750 674,4717 674,4685L728,4685C728,4713 732,4741 739,4769L713,4775Z" style="fill:rgb(27,25,24);"/>
                </g>
                <g transform="matrix(0.0282914,0,0,0.0279052,0,0)">
                    <path d="M728,4685L674,4685C674,4647 680,4609 692,4572L718,4581L743,4590C733,4621 728,4653 728,4685Z" style="fill:rgb(27,25,24);"/>
                </g>
                <g transform="matrix(0.0282914,0,0,0.0279052,0,0)">
                    <path d="M718,4581L692,4572C705,4536 725,4500 752,4466L794,4500C771,4529 754,4559 743,4590L718,4581Z" style="fill:rgb(27,25,24);"/>
                </g>
                <g transform="matrix(0.0282914,0,0,0.0279052,0,0)">
                    <path d="M753,4464L773,4483L752,4466L753,4465L753,4464Z" style="fill:rgb(27,25,24);"/>
                </g>
                <g transform="matrix(0.0282914,0,0,0.0279052,0,0)">
                    <path d="M793,4502L753,4464C857,4354 961,4244 1064,4134L1104,4170C1001,4280 897,4392 793,4502Z" style="fill:rgb(27,25,24);"/>
                </g>
                <g transform="matrix(0.0282914,0,0,0.0279052,0,0)">
                    <path d="M3657,896C2645,-174 1047,153 483,1470C142,2411 465,3443 1641,3960C1693,3901 1746,3842 1798,3783C-294,2456 1556,-518 3657,896Z" style="fill:rgb(0,144,53);"/>
                </g>
                <g transform="matrix(0.0282914,0,0,0.0279052,0,0)">
                    <path d="M1153,4706C1177,4730 1201,4755 1225,4780C1407,4581 1629,4403 1889,4242C3851,5983 6293,5405 7235,3843C6985,3947 6664,3915 6260,3724C5106,3130 4053,3089 3064,3412C2285,3692 1641,4115 1153,4706Z" style="fill:rgb(0,144,53);"/>
                </g>
                <g transform="matrix(0.0282914,0,0,0.0279052,0,0)">
                    <path d="M5759,4245C4982,3616 3870,3533 2445,3969C2363,3978 2280,3988 2197,3998C1897,4059 2050,4337 2215,4238C3409,3728 4594,3602 5759,4245Z" style="fill:white;"/>
                </g>
                <g transform="matrix(0.0282914,0,0,0.0279052,0,0)">
                    <path d="M7969,3949L8158,3949C8203,3949 8236,3941 8257,3925C8277,3909 8287,3883 8287,3848C8287,3812 8277,3786 8257,3770C8237,3754 8204,3746 8157,3746L7969,3746L7969,3949ZM7969,3949M7969,3612L8152,3612C8191,3612 8220,3605 8238,3592C8256,3578 8266,3557 8266,3528C8266,3499 8257,3478 8239,3466C8221,3453 8192,3446 8151,3446L7969,3446L7969,3612ZM7969,3612M7816,4090L7816,3311L8182,3311C8262,3311 8322,3328 8364,3362C8406,3395 8427,3444 8427,3508C8427,3547 8419,3580 8404,3607C8388,3633 8365,3653 8334,3668C8374,3684 8404,3708 8424,3739C8444,3769 8454,3807 8454,3853C8454,3928 8429,3987 8380,4028C8330,4069 8261,4090 8170,4090L7816,4090ZM7816,4090M8737,3651L8926,3651C8967,3651 8997,3643 9016,3626C9035,3610 9045,3584 9045,3548C9045,3514 9035,3489 9017,3471C8998,3454 8970,3445 8933,3445L8737,3445L8737,3651ZM8737,3651M8577,4090L8577,3311L8955,3311C9040,3311 9103,3329 9144,3365C9184,3402 9205,3457 9205,3532C9205,3579 9195,3619 9175,3650C9155,3682 9126,3705 9089,3716C9123,3728 9147,3747 9161,3771C9175,3796 9183,3834 9185,3886L9189,3978L9189,3982C9190,4028 9200,4056 9219,4066L9219,4090L9044,4090C9038,4079 9034,4066 9031,4050C9028,4034 9026,4014 9025,3992L9023,3910C9021,3862 9012,3829 8996,3813C8979,3796 8950,3787 8907,3787L8737,3787L8737,4090L8577,4090ZM8577,4090M9639,3467L9532,3799L9748,3799L9639,3467ZM9639,3467M9546,3311L9731,3311L10013,4090L9845,4090L9792,3930L9489,3930L9438,4090L9270,4090L9546,3311ZM9546,3311M10057,3850L10215,3850C10221,3892 10239,3924 10267,3945C10296,3965 10338,3975 10393,3975C10439,3975 10474,3967 10498,3950C10521,3934 10533,3910 10533,3877C10533,3830 10465,3791 10330,3760L10325,3759C10322,3758 10316,3757 10309,3755C10236,3739 10184,3722 10153,3702C10126,3683 10105,3660 10091,3630C10076,3600 10069,3565 10069,3524C10069,3449 10095,3390 10146,3350C10198,3310 10272,3290 10369,3290C10460,3290 10531,3311 10582,3354C10633,3397 10660,3458 10663,3536L10509,3536C10506,3498 10492,3470 10466,3450C10440,3430 10403,3420 10355,3420C10313,3420 10281,3429 10258,3445C10235,3461 10224,3485 10224,3515C10224,3556 10268,3587 10356,3607C10380,3613 10399,3617 10412,3621C10469,3635 10509,3646 10533,3654C10557,3663 10577,3672 10595,3681C10627,3699 10650,3723 10666,3752C10682,3781 10690,3816 10690,3857C10690,3938 10663,4000 10608,4045C10554,4089 10477,4112 10377,4112C10279,4112 10203,4089 10147,4043C10091,3998 10061,3934 10057,3850ZM10057,3850M10820,4090L10820,3311L10980,3311L10980,4090L10820,4090ZM10820,4090M11147,4090L11147,3311L11307,3311L11307,3946L11687,3946L11687,4090L11147,4090Z" style="fill:rgb(27,25,24);"/>
                </g>
                <g transform="matrix(0.0282914,0,0,0.0279052,0,0)">
                    <path d="M4082,1329L4160,1329C4181,1329 4197,1324 4206,1315C4216,1306 4221,1292 4221,1272C4221,1253 4216,1239 4207,1230C4197,1220 4183,1215 4164,1215L4082,1215L4082,1329ZM4082,1329M4081,1401L4081,1541L4001,1541L4001,1147L4175,1147C4217,1147 4248,1158 4269,1179C4290,1200 4301,1232 4301,1273C4301,1314 4291,1346 4270,1368C4249,1390 4219,1401 4181,1401L4081,1401ZM4081,1401M4446,1318L4541,1318C4562,1318 4577,1314 4586,1306C4596,1298 4601,1284 4601,1267C4601,1250 4596,1237 4587,1228C4577,1219 4563,1215 4545,1215L4446,1215L4446,1318ZM4446,1318M4365,1541L4365,1147L4556,1147C4599,1147 4630,1156 4651,1174C4672,1193 4682,1221 4682,1258C4682,1282 4677,1302 4667,1318C4657,1334 4642,1346 4623,1352C4640,1358 4652,1367 4660,1380C4667,1392 4671,1412 4672,1438L4674,1484L4674,1486C4674,1510 4679,1524 4689,1529L4689,1541L4600,1541C4598,1535 4595,1528 4594,1520C4592,1512 4592,1503 4591,1491L4590,1450C4589,1426 4585,1409 4576,1401C4568,1392 4553,1388 4532,1388L4446,1388L4446,1541L4365,1541ZM4365,1541M4821,1345C4821,1388 4830,1421 4849,1445C4869,1469 4895,1481 4930,1481C4965,1481 4992,1469 5011,1445C5031,1421 5040,1388 5040,1345C5040,1300 5031,1267 5011,1243C4992,1219 4965,1207 4930,1207C4895,1207 4869,1219 4849,1243C4830,1267 4821,1300 4821,1345ZM4821,1345M4738,1345C4738,1280 4755,1230 4790,1192C4825,1155 4871,1137 4930,1137C4988,1137 5035,1155 5070,1193C5105,1230 5122,1280 5122,1345C5122,1408 5105,1458 5070,1496C5035,1533 4988,1552 4930,1552C4871,1552 4825,1533 4790,1496C4755,1458 4738,1408 4738,1345ZM4738,1345M5265,1470L5330,1470C5369,1470 5396,1460 5413,1440C5429,1421 5438,1389 5438,1345C5438,1300 5430,1267 5414,1247C5399,1226 5374,1216 5341,1216L5265,1216L5265,1470ZM5265,1470M5186,1541L5186,1147L5341,1147C5401,1147 5446,1163 5476,1196C5505,1228 5520,1278 5520,1345C5520,1381 5515,1412 5504,1440C5493,1467 5477,1489 5456,1506C5441,1518 5423,1527 5403,1533C5383,1538 5355,1541 5318,1541L5186,1541ZM5186,1541M5582,1146L5664,1146L5664,1393C5664,1424 5670,1446 5682,1460C5694,1474 5713,1481 5739,1481C5766,1481 5785,1474 5798,1460C5810,1446 5816,1424 5816,1393L5816,1146L5897,1146L5897,1402C5897,1450 5883,1487 5856,1513C5829,1539 5791,1552 5740,1552C5689,1552 5650,1539 5623,1513C5596,1487 5582,1450 5582,1402L5582,1146ZM5582,1146M6057,1541L6057,1217L5941,1217L5941,1147L6254,1147L6254,1217L6138,1217L6138,1541L6057,1541ZM6057,1541M6366,1345C6366,1388 6376,1421 6395,1445C6414,1469 6441,1481 6475,1481C6510,1481 6537,1469 6557,1445C6576,1421 6586,1388 6586,1345C6586,1300 6576,1267 6557,1243C6537,1219 6510,1207 6475,1207C6441,1207 6414,1219 6395,1243C6376,1267 6366,1300 6366,1345ZM6366,1345M6284,1345C6284,1280 6301,1230 6336,1192C6370,1155 6417,1137 6475,1137C6534,1137 6581,1155 6616,1193C6650,1230 6668,1280 6668,1345C6668,1408 6650,1458 6616,1496C6581,1533 6534,1552 6475,1552C6417,1552 6370,1533 6336,1496C6301,1458 6284,1408 6284,1345Z" style="fill:rgb(27,25,24);"/>
                </g>
                <g transform="matrix(0.0282914,0,0,0.0279052,0,0)">
                    <path d="M4306,2318L4596,2318C4659,2318 4706,2305 4735,2280C4765,2255 4780,2214 4780,2160C4780,2108 4765,2068 4737,2041C4708,2014 4665,2001 4608,2001L4306,2001L4306,2318ZM4306,2318M4059,2996L4059,1793L4641,1793C4772,1793 4869,1822 4932,1878C4996,1934 5027,2019 5027,2134C5027,2208 5012,2269 4981,2317C4950,2366 4906,2400 4848,2418C4900,2436 4937,2464 4959,2503C4981,2541 4994,2600 4997,2681L5002,2823L5002,2828C5004,2900 5019,2944 5049,2959L5049,2996L4778,2996C4770,2979 4763,2958 4758,2933C4754,2908 4751,2879 4750,2845L4746,2718C4744,2644 4730,2592 4704,2566C4679,2540 4633,2527 4568,2527L4306,2527L4306,2996L4059,2996ZM4059,2996M6115,2854C6070,2914 6020,2958 5963,2987C5906,3015 5839,3029 5763,3029C5595,3029 5459,2971 5355,2854C5251,2737 5199,2583 5199,2393C5199,2202 5251,2049 5355,1934C5458,1820 5597,1761 5770,1761C5920,1761 6043,1798 6138,1870C6233,1943 6290,2042 6308,2168L6055,2168C6040,2105 6009,2058 5962,2025C5915,1992 5854,1976 5778,1976C5678,1976 5599,2013 5542,2086C5485,2160 5456,2262 5456,2392C5456,2522 5486,2625 5546,2699C5605,2773 5687,2810 5792,2810C5870,2810 5935,2787 5988,2741C6040,2695 6073,2632 6085,2550L5814,2550L5814,2345L6311,2345L6311,2996L6145,2996L6115,2854ZM6115,2854M6995,2034L6829,2545L7162,2545L6995,2034ZM6995,2034M6851,1793L7137,1793L7570,2996L7310,2996L7229,2748L6763,2748L6684,2996L6424,2996L6851,1793ZM6851,1793M6740,1688L6900,1386L7094,1386L7254,1688L7139,1688L6997,1510L6853,1688L6740,1688ZM6740,1688M7693,2996L7693,1793L7953,1793L8441,2620L8441,1793L8684,1793L8684,2996L8429,2996L7938,2170L7938,2996L7693,2996ZM7693,2996M8940,2996L8940,1793L9187,1793L9187,2996L8940,2996ZM8940,2996M10490,2582C10481,2719 10428,2828 10332,2908C10237,2989 10111,3029 9957,3029C9779,3029 9641,2974 9543,2863C9444,2752 9395,2595 9395,2395C9395,2191 9445,2034 9546,1925C9646,1816 9790,1761 9979,1761C10132,1761 10253,1800 10342,1874C10431,1949 10480,2055 10488,2191L10245,2191C10234,2123 10207,2072 10162,2036C10117,2000 10056,1983 9979,1983C9871,1983 9788,2018 9731,2088C9675,2158 9647,2260 9647,2395C9647,2525 9675,2627 9731,2698C9787,2770 9867,2805 9971,2805C10046,2805 10107,2786 10155,2748C10203,2710 10234,2655 10248,2582L10490,2582ZM10490,2582M10888,2395C10888,2527 10917,2631 10976,2704C11035,2777 11117,2814 11222,2814C11328,2814 11411,2777 11470,2704C11530,2631 11559,2527 11559,2395C11559,2263 11530,2160 11470,2087C11411,2014 11328,1978 11222,1978C11117,1978 11035,2014 10976,2087C10917,2160 10888,2262 10888,2395ZM10888,2395M10636,2395C10636,2201 10689,2047 10794,1933C10900,1819 11043,1761 11222,1761C11401,1761 11544,1819 11650,1933C11756,2048 11810,2201 11810,2395C11810,2589 11756,2743 11650,2858C11544,2972 11401,3029 11222,3029C11043,3029 10900,2972 10794,2858C10689,2743 10636,2589 10636,2395Z" style="fill:rgb(27,25,24);"/>
                </g>
                <g transform="matrix(0.0282914,0,0,0.0279052,0,0)">
                    <path d="M1940,2328C1940,2600 2001,2811 2123,2962C2244,3113 2413,3188 2630,3188C2850,3188 3020,3113 3143,2962C3266,2811 3327,2600 3327,2328C3327,2054 3266,1843 3143,1692C3020,1541 2850,1466 2630,1466C2413,1466 2244,1541 2123,1691C2001,1841 1940,2053 1940,2328ZM1940,2328M1421,2328C1421,1927 1530,1609 1748,1374C1966,1139 2261,1022 2630,1022C3000,1022 3296,1139 3514,1374C3734,1610 3843,1927 3843,2328C3843,2617 3785,2864 3670,3068C3424,3101 3182,3158 2945,3235C2682,3330 2434,3441 2202,3570C2025,3512 1874,3416 1748,3280C1530,3044 1421,2726 1421,2328Z" style="fill:rgb(27,25,24);"/>
                </g>
            </g>
        </g>
    </g>
</svg>
