<?xml version="1.0" encoding="UTF-8" standalone="no"?>
<!DOCTYPE svg PUBLIC "-//W3C//DTD SVG 1.1//EN" "http://www.w3.org/Graphics/SVG/1.1/DTD/svg11.dtd">
<svg width="100%" height="100%" viewBox="0 0 183 43" version="1.1" xmlns="http://www.w3.org/2000/svg" xmlns:xlink="http://www.w3.org/1999/xlink" xml:space="preserve" xmlns:serif="http://www.serif.com/" style="fill-rule:evenodd;clip-rule:evenodd;stroke-linejoin:round;stroke-miterlimit:2;">
    <g transform="matrix(1,0,0,1,-1096,-7)">
        <g transform="matrix(3.69557,0,0,0.314932,0,0)">
            <g transform="matrix(0.100692,0,0,1.77235,294.1,12.6532)">
                <g transform="matrix(1,0,0,0.666667,0,0)">
                    <path d="M343.9,89.3L343.9,58.8L330.8,82.2L328,82.2L314.9,58.8L314.9,89.3L309.9,89.3L309.9,49.9L315.2,49.9L329.5,75.5L343.8,49.9L349,49.9L349,89.3L343.9,89.3Z" style="fill:rgb(60,60,59);fill-rule:nonzero;"/>
                    <path d="M368,89.9C365.8,89.9 363.8,89.5 362,88.7C360.2,87.9 358.6,86.8 357.3,85.5C356,84.1 355,82.5 354.3,80.7C353.6,78.9 353.2,76.9 353.2,74.9C353.2,72.9 353.6,70.9 354.3,69.1C355,67.3 356,65.7 357.4,64.3C358.7,62.9 360.3,61.9 362.1,61.1C363.9,60.3 365.9,59.9 368.1,59.9C370.3,59.9 372.3,60.3 374.1,61.1C375.9,61.9 377.4,63 378.7,64.3C380,65.7 380.9,67.2 381.6,69C382.3,70.8 382.6,72.7 382.6,74.6L382.6,75.7C382.6,76 382.6,76.3 382.5,76.5L358.5,76.5C358.6,77.9 358.9,79.3 359.5,80.4C360.1,81.6 360.8,82.6 361.7,83.5C362.6,84.4 363.6,85 364.7,85.5C365.8,86 367,86.2 368.3,86.2C369.2,86.2 370.1,86.1 370.9,85.8C371.8,85.6 372.5,85.2 373.3,84.8C374,84.4 374.7,83.9 375.3,83.3C375.9,82.7 376.3,82 376.6,81.3L380.8,82.5C380.3,83.6 379.7,84.6 378.8,85.4C378,86.3 377,87.1 375.9,87.7C374.8,88.3 373.6,88.9 372.3,89.2C370.8,89.7 369.4,89.9 368,89.9ZM377.9,72.9C377.8,71.5 377.4,70.3 376.9,69.1C376.3,67.9 375.6,66.9 374.7,66.1C373.8,65.3 372.8,64.6 371.7,64.2C370.6,63.7 369.3,63.5 368,63.5C366.7,63.5 365.5,63.7 364.3,64.2C363.2,64.7 362.1,65.3 361.3,66.1C360.4,66.9 359.7,67.9 359.2,69.1C358.7,70.2 358.3,71.5 358.2,72.9L377.9,72.9Z" style="fill:rgb(60,60,59);fill-rule:nonzero;"/>
                    <path d="M430.5,89.3L425.6,89.3L425.6,73.1C425.6,70.1 425.1,67.8 424.1,66.4C423.1,65 421.7,64.2 419.7,64.2C417.7,64.2 415.9,64.9 414.3,66.3C412.7,67.7 411.6,69.6 410.9,71.8L410.9,89.2L406,89.2L406,73C406,69.9 405.5,67.6 404.6,66.2C403.6,64.8 402.2,64.1 400.3,64.1C398.3,64.1 396.6,64.8 395,66.2C393.4,67.6 392.3,69.4 391.6,71.7L391.6,89.2L386.7,89.2L386.7,60.2L391.1,60.2L391.1,66.4C392.3,64.3 393.8,62.6 395.7,61.4C397.6,60.2 399.7,59.7 402.1,59.7C404.5,59.7 406.5,60.4 407.9,61.7C409.3,63 410.2,64.7 410.5,66.8C413.1,62.1 416.8,59.8 421.5,59.8C423.2,59.8 424.6,60.1 425.7,60.7C426.8,61.3 427.7,62.2 428.4,63.3C429.1,64.4 429.5,65.7 429.8,67.2C430.1,68.7 430.2,70.3 430.2,72L430.5,89.3Z" style="fill:rgb(60,60,59);fill-rule:nonzero;"/>
                    <path d="M449.5,89.9C447.2,89.9 445.2,89.3 443.3,88.2C441.4,87.1 440,85.6 438.9,83.9L438.9,89.3L434.6,89.3L434.6,48.8L439.5,48.8L439.5,66.1C440.7,64.2 442.2,62.7 444,61.6C445.8,60.5 447.8,59.9 450.2,59.9C452.2,59.9 454,60.3 455.6,61.2C457.2,62.1 458.5,63.2 459.7,64.6C460.8,66 461.7,67.6 462.3,69.4C462.9,71.2 463.2,73.1 463.2,75C463.2,77 462.8,79 462.1,80.8C461.4,82.6 460.4,84.2 459.2,85.5C458,86.9 456.5,87.9 454.8,88.7C453.2,89.5 451.4,89.9 449.5,89.9ZM448.3,85.7C449.7,85.7 451.1,85.4 452.3,84.8C453.5,84.2 454.6,83.4 455.5,82.4C456.4,81.4 457.1,80.3 457.6,79C458.1,77.7 458.3,76.4 458.3,75C458.3,73.6 458.1,72.2 457.6,70.9C457.1,69.6 456.5,68.4 455.7,67.4C454.9,66.4 453.9,65.6 452.7,65C451.5,64.4 450.2,64.1 448.8,64.1C447.8,64.1 446.8,64.3 445.9,64.7C445,65.1 444.1,65.6 443.3,66.2C442.5,66.8 441.8,67.5 441.2,68.3C440.6,69.1 440.1,70 439.6,70.9L439.6,79.3C439.8,80.2 440.2,81.1 440.8,81.9C441.4,82.7 442.1,83.4 443,83.9C443.8,84.5 444.7,84.9 445.7,85.3C446.5,85.5 447.4,85.7 448.3,85.7Z" style="fill:rgb(60,60,59);fill-rule:nonzero;"/>
                    <path d="M480.9,89.9C478.7,89.9 476.7,89.5 474.9,88.7C473.1,87.9 471.5,86.8 470.2,85.5C468.9,84.1 467.9,82.5 467.2,80.7C466.5,78.9 466.1,76.9 466.1,74.9C466.1,72.9 466.5,70.9 467.2,69.1C467.9,67.3 468.9,65.7 470.3,64.3C471.6,62.9 473.2,61.9 475,61.1C476.8,60.3 478.8,59.9 481,59.9C483.2,59.9 485.2,60.3 487,61.1C488.8,61.9 490.3,63 491.6,64.3C492.9,65.7 493.8,67.2 494.5,69C495.2,70.8 495.5,72.7 495.5,74.6L495.5,75.7C495.5,76 495.5,76.3 495.4,76.5L471.4,76.5C471.5,77.9 471.8,79.3 472.4,80.4C473,81.6 473.7,82.6 474.6,83.5C475.5,84.4 476.5,85 477.6,85.5C478.7,86 479.9,86.2 481.2,86.2C482.1,86.2 483,86.1 483.8,85.8C484.7,85.6 485.4,85.2 486.2,84.8C486.9,84.4 487.6,83.9 488.2,83.3C488.8,82.7 489.2,82 489.5,81.3L493.7,82.5C493.2,83.6 492.6,84.6 491.7,85.4C490.9,86.3 489.9,87.1 488.8,87.7C487.7,88.3 486.5,88.9 485.2,89.2C483.7,89.7 482.3,89.9 480.9,89.9ZM490.8,72.9C490.7,71.5 490.3,70.3 489.8,69.1C489.2,67.9 488.5,66.9 487.6,66.1C486.7,65.3 485.7,64.6 484.6,64.2C483.5,63.7 482.2,63.5 480.9,63.5C479.6,63.5 478.4,63.7 477.2,64.2C476.1,64.7 475,65.3 474.2,66.1C473.3,66.9 472.6,67.9 472.1,69.1C471.6,70.2 471.2,71.5 471.1,72.9L490.8,72.9Z" style="fill:rgb(60,60,59);fill-rule:nonzero;"/>
                    <path d="M515.1,64.7C512.7,64.8 510.5,65.4 508.6,66.6C506.7,67.8 505.4,69.4 504.6,71.5L504.6,89.4L499.7,89.4L499.7,60.4L504.3,60.4L504.3,67.1C505.3,65.1 506.6,63.5 508.2,62.2C509.8,61 511.6,60.3 513.4,60.1L514.3,60.1C514.6,60.1 514.8,60.1 515,60.2L515.1,64.7Z" style="fill:rgb(60,60,59);fill-rule:nonzero;"/>
                </g>
                <g transform="matrix(1,0,0,0.666667,0,0)">
                    <rect x="279.3" y="9.1" width="1.3" height="112.6" style="fill:rgb(60,60,59);"/>
                </g>
                <g transform="matrix(1,0,0,0.666667,0,0)">
                    <g>
                        <path d="M264.4,53.7C264.6,41.3 254.8,31.1 242.4,30.9C230,30.7 219.8,40.6 219.5,52.9C219.4,56.9 220.4,60.6 222.2,63.9L227.6,55.5L240.4,55.5L229,71.6C232.6,74.1 236.9,75.7 241.6,75.8C254,76 264.2,66.1 264.4,53.7" style="fill:rgb(222,4,77);fill-rule:nonzero;"/>
                        <path d="M101.9,71.4C100,67.8 97.1,66 93.1,66C89,66 86,67.8 84.1,71.3L101.9,71.4ZM113.4,76.1C113.4,77.1 113.3,78.1 113.2,79.1L83.3,79C84,81.1 85.2,82.9 86.9,84.2C88.7,85.5 90.7,86.2 92.9,86.2C96,86.2 98.6,85 100.6,82.6L109,88.6C109,88.6 103.6,96.5 92.8,96.5C87,96.5 82.2,94.5 78.3,90.5C74.4,86.5 72.4,81.7 72.4,75.9C72.4,70.2 74.4,65.4 78.4,61.5C82.4,57.6 87.2,55.6 92.9,55.6C98.6,55.6 103.4,57.6 107.4,61.5C111.5,65.6 113.5,70.4 113.4,76.1" style="fill:rgb(60,60,59);fill-rule:nonzero;"/>
                        <path d="M191.1,71.4C189.2,67.8 186.3,66 182.3,66C178.2,66 175.2,67.8 173.3,71.3L191.1,71.4ZM202.6,76.1C202.6,77.1 202.5,78.1 202.4,79.1L172.5,79C173.2,81.1 174.4,82.9 176.1,84.2C177.9,85.5 179.9,86.2 182.1,86.2C185.2,86.2 187.8,85 189.8,82.6L198.2,88.6C198.2,88.6 192.8,96.5 182,96.5C176.2,96.5 171.4,94.5 167.5,90.5C163.6,86.5 161.6,81.7 161.6,75.9C161.6,70.2 163.6,65.4 167.6,61.5C171.6,57.6 176.4,55.6 182.1,55.6C187.8,55.6 192.6,57.6 196.6,61.5C200.7,65.6 202.7,70.4 202.6,76.1" style="fill:rgb(60,60,59);fill-rule:nonzero;"/>
                        <path d="M147.7,75.9C147.7,73.2 146.7,70.8 144.7,68.8C142.7,66.8 140.3,65.8 137.6,65.8C134.8,65.8 132.4,66.8 130.4,68.7C128.4,70.7 127.4,73 127.4,75.8C127.4,78.6 128.4,81 130.4,83C132.4,85 134.8,86 137.6,86C140.4,86 142.8,85 144.7,83C146.7,81.1 147.7,78.7 147.7,75.9M158,75.9C158,81.6 156,86.4 152.1,90.4C148.2,94.4 143.3,96.4 137.6,96.4C131.8,96.4 127,94.4 123,90.5C119.1,86.6 117.1,81.7 117.1,76C117.1,70.3 119.1,65.5 123.1,61.6C127.1,57.7 131.9,55.7 137.6,55.7C141.2,55.7 144.6,56.6 147.7,58.3L147.7,34.8L158,34.8L158,75.9Z" style="fill:rgb(60,60,59);fill-rule:nonzero;"/>
                        <path d="M69.5,79.2C69.5,81.5 69,83.7 68,85.7C67,87.8 65.6,89.6 63.8,91.2C62.1,92.8 60,94 57.5,95C55.1,95.9 52.4,96.4 49.4,96.4C46.8,96.4 44.4,96.2 42.3,95.9C40.2,95.6 38.2,95.1 36.3,94.5C34.4,93.8 32.7,93 30.9,91.9C29.2,90.9 27.4,89.6 25.6,88.1L34,79.6C36.4,81.6 38.8,83.1 41.2,83.9C43.5,84.7 46.1,85.2 48.8,85.2C49.9,85.2 51,85 52,84.7C53,84.4 53.9,83.9 54.6,83.4C55.3,82.8 55.9,82.2 56.4,81.4C56.8,80.6 57,79.8 57,78.9C57,77.9 56.8,77.1 56.5,76.3C56.1,75.5 55.5,74.8 54.6,74.1C53.7,73.4 52.4,72.7 50.8,71.9C49.2,71.2 47.1,70.3 44.5,69.4C42.3,68.6 40.1,67.7 38,66.6C35.9,65.6 34.1,64.3 32.6,62.8C31,61.3 29.8,59.6 28.9,57.6C28,55.6 27.5,53.3 27.5,50.6C27.5,48 28,45.6 29.1,43.4C30.1,41.2 31.6,39.3 33.4,37.8C35.2,36.2 37.3,35 39.7,34.2C42.1,33.3 44.7,32.9 47.5,32.9C52.2,32.9 56.1,33.5 59.3,34.7C62.5,35.9 65.4,37.7 67.9,40L59.6,48.3C58.1,46.8 56.4,45.7 54.5,44.9C52.6,44.1 50.4,43.7 47.9,43.7C46.7,43.7 45.6,43.9 44.7,44.2C43.7,44.6 42.9,45 42.1,45.6C41.4,46.2 40.8,46.9 40.4,47.7C40,48.5 39.7,49.3 39.7,50.2C39.7,51.2 39.9,52.1 40.3,52.8C40.7,53.6 41.4,54.4 42.4,55.1C43.4,55.8 44.7,56.6 46.3,57.3C47.9,58 49.9,58.8 52.3,59.7C55.4,60.8 58,61.9 60.2,63.2C62.4,64.5 64.2,65.9 65.6,67.4C67,68.9 68,70.6 68.7,72.6C69.2,74.6 69.5,76.8 69.5,79.2" style="fill:rgb(60,60,59);fill-rule:nonzero;"/>
                        <path d="M249.3,88.1C249.1,88 248.6,87.9 248.1,87.9L247.2,87.9L247.2,89.9L248.1,89.9C248.5,89.9 248.8,89.9 249,89.8C249.4,89.6 249.6,89.4 249.6,88.9C249.7,88.6 249.5,88.3 249.3,88.1M248.2,87.3C248.9,87.3 249.4,87.4 249.7,87.5C250.3,87.7 250.6,88.2 250.6,88.9C250.6,89.4 250.4,89.8 250,90C249.8,90.1 249.5,90.2 249.2,90.3C249.6,90.4 250,90.6 250.2,90.9C250.4,91.2 250.5,91.5 250.5,91.8L250.5,93L249.6,93L249.6,92.2C249.6,91.5 249.4,91.1 249.1,90.9C248.9,90.8 248.5,90.7 248,90.7L247.2,90.7L247.2,92.9L246.2,92.9L246.2,87.3L248.2,87.3ZM245.2,87C244.3,87.9 243.9,88.9 243.9,90.1C243.9,91.3 244.3,92.4 245.2,93.2C246.1,94.1 247.1,94.5 248.3,94.5C249.5,94.5 250.6,94.1 251.4,93.2C252.3,92.3 252.7,91.3 252.7,90.1C252.7,88.9 252.3,87.8 251.4,87C250.5,86.1 249.5,85.7 248.3,85.7C247.1,85.7 246,86.1 245.2,87M251.9,93.7C250.9,94.7 249.7,95.2 248.3,95.2C246.9,95.2 245.7,94.7 244.7,93.7C243.7,92.7 243.2,91.5 243.2,90.1C243.2,88.7 243.7,87.5 244.7,86.5C245.7,85.5 246.9,85 248.3,85C249.7,85 250.9,85.5 251.9,86.5C252.9,87.5 253.4,88.7 253.4,90.1C253.4,91.5 252.9,92.7 251.9,93.7" style="fill:rgb(60,60,59);fill-rule:nonzero;"/>
                    </g>
                    <path d="M201,55.6L214.1,74.7L199.5,95.2L213.1,95.2L220.3,83.5L227.4,95.2L240.8,95.2L220.7,66.3L214,55.6L201,55.6Z" style="fill:rgb(60,60,59);fill-rule:nonzero;"/>
                </g>
            </g>
        </g>
    </g>
</svg>
