<?xml version="1.0" encoding="UTF-8" standalone="no"?>
<!DOCTYPE svg PUBLIC "-//W3C//DTD SVG 1.1//EN" "http://www.w3.org/Graphics/SVG/1.1/DTD/svg11.dtd">
<svg width="100%" height="100%" viewBox="0 0 43 43" version="1.1" xmlns="http://www.w3.org/2000/svg" xmlns:xlink="http://www.w3.org/1999/xlink" xml:space="preserve" xmlns:serif="http://www.serif.com/" style="fill-rule:evenodd;clip-rule:evenodd;stroke-linejoin:round;stroke-miterlimit:2;">
    <g transform="matrix(1,0,0,1,-778,-136)">
        <g transform="matrix(3.69557,0,0,0.314932,0,129.024)">
            <g transform="matrix(0.0226758,0,0,0.266089,209.026,3.1295)">
                <path d="M577,326.2C577,464.3 465.1,576.2 327,576.2C188.9,576.2 77,464.3 77,326.2C77,188.1 188.9,76.2 327,76.2C465.1,76.2 577,188.1 577,326.2" style="fill:white;fill-rule:nonzero;"/>
                <path d="M542.7,326.2C542.7,445.3 446.1,541.9 327,541.9C207.9,541.9 111.3,445.3 111.3,326.2L542.7,326.2Z" style="fill:rgb(153,153,153);fill-rule:nonzero;"/>
                <path d="M327,95.6C199.7,95.6 96.5,198.8 96.5,326.1C96.5,453.4 199.7,556.6 327,556.6C454.3,556.6 557.5,453.4 557.5,326.1C557.5,198.8 454.3,95.6 327,95.6M577,326.2C577,464.3 465.1,576.2 327,576.2C188.9,576.2 77,464.3 77,326.2C77,188.1 188.9,76.2 327,76.2C465.1,76.2 577,188.1 577,326.2" style="fill:rgb(153,153,153);fill-rule:nonzero;"/>
                <path d="M127.2,407.5L542.7,326.2L123.5,397.8C124.6,401 125.9,404.3 127.2,407.5" style="fill:white;fill-rule:nonzero;"/>
                <path d="M174.2,478.3L542.7,326.1L167,470.8C169.3,473.4 171.7,475.9 174.2,478.3" style="fill:white;fill-rule:nonzero;"/>
                <path d="M255.9,529.8L542.6,326.1L244.3,525.4C248.2,527 252,528.5 255.9,529.8" style="fill:white;fill-rule:nonzero;"/>
                <path d="M372.2,537.1L542.6,326.2L357.2,539.7C362.3,539 367.3,538.1 372.2,537.1" style="fill:white;fill-rule:nonzero;"/>
                <path d="M222.1,206.9L222.1,276.2C222.1,285.5 224.6,287.9 228.9,287.9C233.1,287.9 235.7,285.5 235.7,276.2L235.7,206.9L258,206.9L258,269.9C258,296.8 247.6,304.9 228.8,304.9C210,304.9 199.6,296.8 199.6,269.9L199.6,206.9L222.1,206.9Z" style="fill:rgb(153,153,153);fill-rule:nonzero;"/>
                <path d="M298.7,234.6L298.7,232.3C298.7,226.6 296.6,221.9 292.3,221.9C287.5,221.9 285.3,226.1 285.3,230.4C285.3,249.4 322,240.1 322,275.2C322,295.7 311.3,304.8 291.5,304.8C272.9,304.8 262.6,297.7 262.6,277.7L262.6,274.3L284.3,274.3L284.3,276.6C284.3,284.8 287.3,287.8 291.7,287.8C296.3,287.8 298.9,283.8 298.9,278.5C298.9,259.5 263.7,268.9 263.7,234.9C263.7,215.5 273,204.9 291.9,204.9C311.4,204.9 319.8,213.9 319.8,234.5L298.7,234.5L298.7,234.6Z" style="fill:rgb(153,153,153);fill-rule:nonzero;"/>
                <path d="M354.8,284.9L359.3,284.9C368,284.9 369.1,280.9 369.1,254.9C369.1,228.9 368,224.9 359.3,224.9L354.8,224.9L354.8,284.9ZM332.4,206.9L365,206.9C390.9,206.9 392.3,229.8 392.3,255C392.3,280.2 391,303.1 365,303.1L332.4,303.1L332.4,206.9Z" style="fill:rgb(153,153,153);fill-rule:nonzero;"/>
                <path d="M427.8,226.5L427.6,226.5L421.5,267.3L434,267.3L427.8,226.5ZM413.6,206.9L441.8,206.9L462.8,303L438.9,303L436.6,286.2L418.8,286.2L416.5,303L392.6,303L413.6,206.9Z" style="fill:rgb(153,153,153);fill-rule:nonzero;"/>
                <path d="M185.4,415.6C190.7,415.6 191.2,410.3 191.2,390.5C191.2,370.7 190.7,365.4 185.4,365.4C180.1,365.4 179.6,370.7 179.6,390.5C179.6,410.3 180.2,415.6 185.4,415.6M185.4,352.4C202.9,352.4 208.9,363.1 208.9,390.5C208.9,417.9 202.9,428.6 185.4,428.6C167.9,428.6 161.9,417.9 161.9,390.5C161.9,363.1 167.9,352.4 185.4,352.4" style="fill:white;fill-rule:nonzero;"/>
                <path d="M232.3,384.8L235.7,384.8C240.6,384.8 242.9,381.3 242.9,376.1C242.9,370.2 240.8,367.6 235.6,367.6L232.3,367.6L232.3,384.8ZM215.1,353.8L241.9,353.8C255,353.8 260,362 260,373.3C260,383 256.6,389.4 248.8,390.7L248.8,390.9C257.1,391.7 259.6,397.6 259.6,407.3L259.6,413.6C259.6,417.4 259.6,422.3 260.4,423.8C260.9,424.6 261.2,425.4 262.3,426.1L262.3,427.1L244.1,427.1C242.4,423.2 242.4,416.2 242.4,413.1L242.4,408.2C242.4,399.9 240.9,397.7 236.8,397.7L232.3,397.7L232.3,427L215.2,427L215.2,353.8L215.1,353.8Z" style="fill:white;fill-rule:nonzero;"/>
                <path d="M290,387.3L312.3,387.3L312.3,427.1L300.7,427.1L300.3,420.6L300.1,420.6C297.8,426.8 291.7,428.5 285.9,428.5C268.5,428.5 266.9,414.7 266.9,390.4C266.9,365.9 271.1,352.3 291.4,352.3C303.6,352.3 312.2,359.2 312.2,376.9L295.6,376.9C295.6,373.2 295.3,370.3 294.7,368.4C294.1,366.3 292.8,365.2 290.7,365.2C285.1,365.2 284.5,370.5 284.5,390.3C284.5,410.1 285.1,415.4 290.3,415.4C293.9,415.4 296,412.8 296.1,400L290,400L290,387.3Z" style="fill:white;fill-rule:nonzero;"/>
                <path d="M341,368.8L340.8,368.8L336.1,399.9L345.7,399.9L341,368.8ZM330.1,353.8L351.7,353.8L367.7,427L349.4,427L347.6,414.2L334,414.2L332.2,427L314,427L330.1,353.8Z" style="fill:white;fill-rule:nonzero;"/>
                <path d="M370.5,353.8L389.7,353.8L400.8,399L401,399L401,353.8L417,353.8L417,427.1L398.2,427.1L386.8,381.8L386.6,381.8L386.6,427.1L370.5,427.1L370.5,353.8Z" style="fill:white;fill-rule:nonzero;"/>
                <rect x="424.5" y="353.8" width="17.1" height="73.2" style="fill:white;"/>
                <path d="M475.3,376.1C475.3,367.8 473.9,365.3 470.6,365.3C465.3,365.3 464.8,370.6 464.8,390.4C464.8,410.2 465.4,415.5 470.6,415.5C474.8,415.5 475.8,411.4 475.8,397.6L492.4,397.6L492.4,403C492.4,423.5 481.6,428.4 470.6,428.4C451.3,428.4 447.1,417.6 447.1,390.3C447.1,362.3 452.8,352.2 470.6,352.2C486.1,352.2 491.9,361.2 491.9,375.4L491.9,380L475.3,380L475.3,376.1Z" style="fill:white;fill-rule:nonzero;"/>
            </g>
        </g>
    </g>
</svg>
