<?xml version="1.0" encoding="UTF-8" standalone="no"?>
<!DOCTYPE svg PUBLIC "-//W3C//DTD SVG 1.1//EN" "http://www.w3.org/Graphics/SVG/1.1/DTD/svg11.dtd">
<svg width="100%" height="100%" viewBox="0 0 452 150" version="1.1" xmlns="http://www.w3.org/2000/svg" xmlns:xlink="http://www.w3.org/1999/xlink" xml:space="preserve" xmlns:serif="http://www.serif.com/" style="fill-rule:evenodd;clip-rule:evenodd;stroke-linejoin:round;stroke-miterlimit:1.41421;">
    <g id="Logo">
        <path d="M80.19,149.07L34.74,78.33C34.74,78.33 22.6,76.87 14.65,80.33L58.34,149.1L80.19,149.07Z" style="fill:rgb(218,33,40);fill-rule:nonzero;"/>
        <path d="M11.53,120L30.3,149.07L52.11,149.07L9.35,82.84C3.56,88.42 -0.78,100.93 11.53,120Z" style="fill:rgb(218,33,40);fill-rule:nonzero;"/>
        <path d="M35.08,45.09C41.58,45.09 107.42,45.23 107.42,45.23L94.57,25.35L43.66,25.35C29.86,25.35 11.83,27.79 5.26,59.61C14.26,47.62 25.54,45.09 35.08,45.09Z" style="fill:rgb(218,33,40);fill-rule:nonzero;"/>
        <path d="M90.56,19.15L78.24,0L52.13,0C41.84,0 19.59,1.28 14.67,30C22.45,20.25 35.26,19 40.34,19C45.42,19 90.56,19.15 90.56,19.15Z" style="fill:rgb(218,33,40);fill-rule:nonzero;"/>
        <path d="M38.37,51.43C23.37,51.43 6.27,55.27 1.06,79.12C0.543,81.277 0.189,83.47 0,85.68C7.59,72.42 17.17,71.15 29.82,71.15C42.47,71.15 124.29,71.3 124.29,71.3L111.44,51.43L38.37,51.43Z" style="fill:rgb(218,33,40);fill-rule:nonzero;"/>
        <path d="M87.38,0L132.83,70.75C132.83,70.75 144.97,72.21 152.92,68.75L109.23,0L87.38,0Z" style="fill:rgb(245,130,32);fill-rule:nonzero;"/>
        <path d="M156.05,29.12L137.28,0L115.47,0L158.23,66.23C164,60.65 168.36,48.15 156.05,29.12Z" style="fill:rgb(245,130,32);fill-rule:nonzero;"/>
        <path d="M132.5,104C126,104 60.16,103.86 60.16,103.86L73,123.72L123.91,123.72C137.71,123.72 155.74,121.28 162.31,89.46C153.31,101.45 142,104 132.5,104Z" style="fill:rgb(245,130,32);fill-rule:nonzero;"/>
        <path d="M77,129.93L89.31,149.08L115.43,149.08C125.72,149.08 147.96,147.8 152.88,119.08C145.1,128.79 132.3,130.02 127.21,130.02C122.12,130.02 77,129.93 77,129.93Z" style="fill:rgb(245,130,32);fill-rule:nonzero;"/>
        <path d="M129.21,97.64C144.21,97.64 161.31,93.8 166.52,69.95C167.037,67.793 167.391,65.6 167.58,63.39C160,76.65 150.41,77.92 137.76,77.92C125.11,77.92 43.29,77.77 43.29,77.77L56.14,97.64L129.21,97.64Z" style="fill:rgb(245,130,32);fill-rule:nonzero;"/>
        <path d="M190.92,46.92L220.54,46.92C247.97,46.92 263.88,62.72 263.88,84.92L263.88,85.14C263.88,107.3 247.75,123.76 220.11,123.76L190.92,123.76L190.92,46.92ZM220.92,104.85C233.65,104.85 242.1,97.85 242.1,85.43L242.1,85.21C242.1,72.92 233.65,65.79 220.92,65.79L212.25,65.79L212.25,104.85L220.92,104.85Z" style="fill:rgb(35,31,32);fill-rule:nonzero;"/>
        <path d="M265.3,46.92L287.8,46.92L301.18,91.35L316,46.7L334.32,46.7L349.13,91.35L362.51,46.92L384.56,46.92L358.89,124.27L340.35,124.27L324.88,80.05L309.52,124.26L291,124.26L265.3,46.92Z" style="fill:rgb(35,31,32);fill-rule:nonzero;"/>
        <path d="M393,46.92L414.28,46.92L414.28,105.07L451.47,105.07L451.47,123.72L393,123.72L393,46.92Z" style="fill:rgb(35,31,32);fill-rule:nonzero;"/>
    </g>
</svg>
