<?xml version="1.0" encoding="UTF-8" standalone="no"?>
<!DOCTYPE svg PUBLIC "-//W3C//DTD SVG 1.1//EN" "http://www.w3.org/Graphics/SVG/1.1/DTD/svg11.dtd">
<svg width="100%" height="100%" viewBox="0 0 131 56" version="1.1" xmlns="http://www.w3.org/2000/svg" xmlns:xlink="http://www.w3.org/1999/xlink" xml:space="preserve" xmlns:serif="http://www.serif.com/" style="fill-rule:evenodd;clip-rule:evenodd;stroke-linejoin:round;stroke-miterlimit:2;">
    <g transform="matrix(1,0,0,1,-17.1924,-21.4554)">
        <g transform="matrix(1,0,0,1,0,5.08259)">
            <g transform="matrix(1,0,0,1,0,0.917408)">
                <g>
                    <g transform="matrix(-0.145363,-0.226253,-0.226253,0.145363,33.3502,33.1738)">
                        <path d="M-80.858,28.045L3.233,28.045C3.233,28.045 11.022,37.475 12.427,46.015L-69.048,46.428L-80.858,28.045Z" style="fill:rgb(218,33,40);fill-rule:nonzero;"/>
                    </g>
                    <g transform="matrix(0.268926,0,0,0.268926,20.2917,45.5649)">
                        <path d="M0,7.99L18.771,37.111L40.588,37.111L-2.171,-29.121C-7.964,-23.539 -12.306,-11.034 0,7.99" style="fill:rgb(218,33,40);fill-rule:nonzero;"/>
                    </g>
                    <g transform="matrix(0.268926,0,0,0.268926,26.625,26.1809)">
                        <path d="M0,5.207C6.505,5.207 72.345,5.343 72.345,5.343L59.496,-14.528L8.584,-14.528C-5.22,-14.528 -23.249,-12.087 -29.812,19.735C-20.811,7.735 -9.534,5.207 0,5.207" style="fill:rgb(218,33,40);fill-rule:nonzero;"/>
                    </g>
                    <g transform="matrix(0.268926,0,0,0.268926,41.5451,18.3626)">
                        <path d="M0,8.336L-12.313,-10.81L-38.429,-10.81C-48.718,-10.81 -70.963,-9.534 -75.883,19.146C-68.102,9.44 -55.298,8.209 -50.211,8.209C-45.125,8.209 0,8.336 0,8.336" style="fill:rgb(218,33,40);fill-rule:nonzero;"/>
                    </g>
                    <g transform="matrix(0.268926,0,0,0.268926,27.5116,38.4974)">
                        <path d="M0,-34.25C-14.999,-34.25 -32.095,-30.408 -37.312,-6.563C-37.312,-6.563 -38.134,-3.276 -38.372,0C-30.785,-13.259 -21.199,-14.528 -8.557,-14.528C4.085,-14.528 85.912,-14.382 85.912,-14.382L73.063,-34.25L0,-34.25Z" style="fill:rgb(218,33,40);fill-rule:nonzero;"/>
                    </g>
                    <g transform="matrix(0.145364,0.226252,0.226252,-0.145364,52.9095,12.5016)">
                        <path d="M-15.316,-44.158L68.775,-44.158C68.775,-44.158 76.564,-34.728 77.97,-26.189L-3.505,-25.775L-15.316,-44.158Z" style="fill:rgb(245,130,31);fill-rule:nonzero;"/>
                    </g>
                    <g transform="matrix(0.268926,0,0,0.268926,59.1592,25.4355)">
                        <path d="M0,-7.991L-18.771,-37.111L-40.588,-37.111L2.171,29.12C7.965,23.538 12.307,11.034 0,-7.991" style="fill:rgb(245,130,31);fill-rule:nonzero;"/>
                    </g>
                    <g transform="matrix(0.268926,0,0,0.268926,52.8259,44.8195)">
                        <path d="M0,-5.207C-6.505,-5.207 -72.345,-5.343 -72.345,-5.343L-59.495,14.528L-8.583,14.528C5.22,14.528 23.249,12.086 29.812,-19.735C20.811,-7.736 9.534,-5.207 0,-5.207" style="fill:rgb(245,130,31);fill-rule:nonzero;"/>
                    </g>
                    <g transform="matrix(0.268926,0,0,0.268926,37.9059,52.6381)">
                        <path d="M0,-8.338L12.313,10.809L38.429,10.809C48.718,10.809 70.963,9.533 75.883,-19.147C68.102,-9.441 55.298,-8.211 50.211,-8.211C45.124,-8.211 0,-8.338 0,-8.338" style="fill:rgb(245,130,31);fill-rule:nonzero;"/>
                    </g>
                    <g transform="matrix(0.268926,0,0,0.268926,51.9393,32.503)">
                        <path d="M0,34.249C14.999,34.249 32.096,30.408 37.312,6.562C37.312,6.562 38.134,3.276 38.373,0C30.785,13.259 21.199,14.528 8.557,14.528C-4.085,14.528 -85.912,14.381 -85.912,14.381L-73.063,34.249L0,34.249Z" style="fill:rgb(245,130,31);fill-rule:nonzero;"/>
                    </g>
                </g>
                <g transform="matrix(0.298535,0,0,0.298535,-6.37146,-3.12194)">
                    <g transform="matrix(1,0,0,1,285.066,128.447)">
                        <path d="M0,39.057C12.727,39.057 21.175,32.036 21.175,19.638L21.175,19.418C21.175,7.131 12.727,-0.001 0,-0.001L-8.667,-0.001L-8.667,39.057L0,39.057ZM-29.951,-18.87L-0.329,-18.87C27.099,-18.87 43.007,-3.072 43.007,19.089L43.007,19.309C43.007,41.47 26.879,57.927 -0.768,57.927L-29.951,57.927L-29.951,-18.87Z" style="fill:rgb(35,31,32);fill-rule:nonzero;"/>
                    </g>
                    <g transform="matrix(1,0,0,1,329.496,186.703)">
                        <path d="M0,-77.126L22.491,-77.126L35.876,-32.693L50.687,-77.346L69.008,-77.346L83.819,-32.693L97.204,-77.126L119.256,-77.126L93.583,0.22L75.042,0.22L59.573,-43.994L44.214,0.22L25.673,0.22L0,-77.126Z" style="fill:rgb(35,31,32);fill-rule:nonzero;"/>
                    </g>
                    <g transform="matrix(1,0,0,1,457.191,186.374)">
                        <path d="M0,-76.797L21.284,-76.797L21.284,-18.651L58.477,-18.651L58.477,0L0,0L0,-76.797Z" style="fill:rgb(35,31,32);fill-rule:nonzero;"/>
                    </g>
                </g>
                <g transform="matrix(1.33567,0,0,1.33567,66.1073,-31.0012)">
                    <g transform="matrix(7,0,0,7,-37.2629,76.1372)">
                        <rect x="0.106" y="-0.7" width="0.079" height="0.7" style="fill:rgb(35,31,32);fill-rule:nonzero;"/>
                    </g>
                    <g transform="matrix(7,0,0,7,-35.4429,76.1372)">
                        <path d="M0.614,-0.139L0.173,-0.7L0.099,-0.7L0.099,0L0.176,0L0.176,-0.574L0.628,0L0.691,0L0.691,-0.7L0.614,-0.7L0.614,-0.139Z" style="fill:rgb(35,31,32);fill-rule:nonzero;"/>
                    </g>
                    <g transform="matrix(7,0,0,7,-30.1299,76.1372)">
                        <path d="M0.363,-0.627L0.598,-0.627L0.598,-0.7L0.049,-0.7L0.049,-0.627L0.284,-0.627L0.284,0L0.363,0L0.363,-0.627Z" style="fill:rgb(35,31,32);fill-rule:nonzero;"/>
                    </g>
                    <g transform="matrix(7,0,0,7,-25.8109,76.1372)">
                        <path d="M0.605,-0.7L0.099,-0.7L0.099,0L0.61,0L0.61,-0.072L0.178,-0.072L0.178,-0.317L0.56,-0.317L0.56,-0.389L0.178,-0.389L0.178,-0.628L0.605,-0.628L0.605,-0.7Z" style="fill:rgb(35,31,32);fill-rule:nonzero;"/>
                    </g>
                    <g transform="matrix(7,0,0,7,-21.3379,76.1372)">
                        <path d="M0.678,0L0.463,-0.286C0.49,-0.29 0.516,-0.298 0.539,-0.31C0.562,-0.321 0.583,-0.335 0.6,-0.352C0.617,-0.369 0.63,-0.389 0.639,-0.412C0.648,-0.435 0.653,-0.462 0.653,-0.491C0.653,-0.522 0.647,-0.551 0.635,-0.576C0.623,-0.602 0.606,-0.624 0.584,-0.642C0.562,-0.661 0.536,-0.675 0.504,-0.685C0.473,-0.695 0.439,-0.7 0.4,-0.7L0.099,-0.7L0.099,0L0.178,0L0.178,-0.272L0.378,-0.272L0.581,0L0.678,0ZM0.574,-0.488C0.574,-0.465 0.569,-0.444 0.56,-0.426C0.551,-0.408 0.539,-0.393 0.523,-0.381C0.507,-0.368 0.488,-0.359 0.466,-0.352C0.444,-0.345 0.42,-0.342 0.394,-0.342L0.178,-0.342L0.178,-0.627L0.395,-0.627C0.451,-0.627 0.495,-0.615 0.527,-0.59C0.558,-0.566 0.574,-0.532 0.574,-0.488Z" style="fill:rgb(35,31,32);fill-rule:nonzero;"/>
                    </g>
                    <g transform="matrix(7,0,0,7,-16.4939,76.1372)">
                        <path d="M0.614,-0.139L0.173,-0.7L0.099,-0.7L0.099,0L0.176,0L0.176,-0.574L0.628,0L0.691,0L0.691,-0.7L0.614,-0.7L0.614,-0.139Z" style="fill:rgb(35,31,32);fill-rule:nonzero;"/>
                    </g>
                    <g transform="matrix(7,0,0,7,-11.1809,76.1372)">
                        <path d="M0.432,-0.705L0.358,-0.705L0.039,0L0.12,0L0.203,-0.185L0.584,-0.185L0.666,0L0.751,0L0.432,-0.705ZM0.553,-0.255L0.234,-0.255L0.394,-0.612L0.553,-0.255Z" style="fill:rgb(35,31,32);fill-rule:nonzero;"/>
                    </g>
                    <g transform="matrix(7,0,0,7,-6.4979,76.1372)">
                        <path d="M0.363,-0.627L0.598,-0.627L0.598,-0.7L0.049,-0.7L0.049,-0.627L0.284,-0.627L0.284,0L0.363,0L0.363,-0.627Z" style="fill:rgb(35,31,32);fill-rule:nonzero;"/>
                    </g>
                    <g transform="matrix(7,0,0,7,-2.1789,76.1372)">
                        <rect x="0.106" y="-0.7" width="0.079" height="0.7" style="fill:rgb(35,31,32);fill-rule:nonzero;"/>
                    </g>
                    <g transform="matrix(7,0,0,7,-0.358903,76.1372)">
                        <path d="M0.782,-0.351C0.782,-0.4 0.774,-0.446 0.756,-0.49C0.74,-0.533 0.715,-0.572 0.684,-0.605C0.653,-0.637 0.615,-0.664 0.572,-0.683C0.528,-0.702 0.479,-0.712 0.426,-0.712C0.373,-0.712 0.324,-0.702 0.28,-0.683C0.236,-0.663 0.198,-0.636 0.167,-0.603C0.136,-0.57 0.111,-0.531 0.094,-0.488C0.077,-0.444 0.068,-0.398 0.068,-0.349C0.068,-0.3 0.077,-0.254 0.094,-0.211C0.111,-0.167 0.135,-0.129 0.166,-0.096C0.197,-0.063 0.235,-0.036 0.279,-0.017C0.322,0.002 0.371,0.012 0.424,0.012C0.477,0.012 0.526,0.002 0.57,-0.018C0.614,-0.037 0.652,-0.064 0.683,-0.097C0.714,-0.13 0.739,-0.169 0.756,-0.213C0.773,-0.256 0.782,-0.302 0.782,-0.351ZM0.7,-0.349C0.7,-0.309 0.693,-0.272 0.68,-0.236C0.666,-0.202 0.647,-0.171 0.623,-0.145C0.599,-0.119 0.57,-0.099 0.537,-0.084C0.503,-0.069 0.466,-0.061 0.426,-0.061C0.386,-0.061 0.349,-0.069 0.316,-0.084C0.282,-0.099 0.253,-0.12 0.228,-0.146C0.203,-0.172 0.184,-0.203 0.171,-0.238C0.157,-0.273 0.15,-0.311 0.15,-0.351C0.15,-0.391 0.157,-0.429 0.171,-0.464C0.184,-0.499 0.203,-0.529 0.227,-0.555C0.251,-0.581 0.28,-0.602 0.314,-0.617C0.347,-0.631 0.384,-0.639 0.424,-0.639C0.464,-0.639 0.501,-0.631 0.535,-0.616C0.568,-0.601 0.597,-0.58 0.622,-0.554C0.647,-0.528 0.666,-0.497 0.68,-0.462C0.693,-0.427 0.7,-0.389 0.7,-0.349Z" style="fill:rgb(35,31,32);fill-rule:nonzero;"/>
                    </g>
                    <g transform="matrix(7,0,0,7,5.3741,76.1372)">
                        <path d="M0.614,-0.139L0.173,-0.7L0.099,-0.7L0.099,0L0.176,0L0.176,-0.574L0.628,0L0.691,0L0.691,-0.7L0.614,-0.7L0.614,-0.139Z" style="fill:rgb(35,31,32);fill-rule:nonzero;"/>
                    </g>
                    <g transform="matrix(7,0,0,7,10.6871,76.1372)">
                        <path d="M0.432,-0.705L0.358,-0.705L0.039,0L0.12,0L0.203,-0.185L0.584,-0.185L0.666,0L0.751,0L0.432,-0.705ZM0.553,-0.255L0.234,-0.255L0.394,-0.612L0.553,-0.255Z" style="fill:rgb(35,31,32);fill-rule:nonzero;"/>
                    </g>
                    <g transform="matrix(7,0,0,7,16.0001,76.1372)">
                        <path d="M0.099,0L0.572,0L0.572,-0.073L0.178,-0.073L0.178,-0.7L0.099,-0.7L0.099,0Z" style="fill:rgb(35,31,32);fill-rule:nonzero;"/>
                    </g>
                    <g transform="matrix(7,0,0,7,21.9991,76.1372)">
                        <path d="M0.602,-0.7L0.099,-0.7L0.099,0L0.178,0L0.178,-0.305L0.557,-0.305L0.557,-0.377L0.178,-0.377L0.178,-0.627L0.602,-0.627L0.602,-0.7Z" style="fill:rgb(35,31,32);fill-rule:nonzero;"/>
                    </g>
                    <g transform="matrix(7,0,0,7,26.2691,76.1372)">
                        <path d="M0.782,-0.351C0.782,-0.4 0.774,-0.446 0.756,-0.49C0.74,-0.533 0.715,-0.572 0.684,-0.605C0.653,-0.637 0.615,-0.664 0.572,-0.683C0.528,-0.702 0.479,-0.712 0.426,-0.712C0.373,-0.712 0.324,-0.702 0.28,-0.683C0.236,-0.663 0.198,-0.636 0.167,-0.603C0.136,-0.57 0.111,-0.531 0.094,-0.488C0.077,-0.444 0.068,-0.398 0.068,-0.349C0.068,-0.3 0.077,-0.254 0.094,-0.211C0.111,-0.167 0.135,-0.129 0.166,-0.096C0.197,-0.063 0.235,-0.036 0.279,-0.017C0.322,0.002 0.371,0.012 0.424,0.012C0.477,0.012 0.526,0.002 0.57,-0.018C0.614,-0.037 0.652,-0.064 0.683,-0.097C0.714,-0.13 0.739,-0.169 0.756,-0.213C0.773,-0.256 0.782,-0.302 0.782,-0.351ZM0.7,-0.349C0.7,-0.309 0.693,-0.272 0.68,-0.236C0.666,-0.202 0.647,-0.171 0.623,-0.145C0.599,-0.119 0.57,-0.099 0.537,-0.084C0.503,-0.069 0.466,-0.061 0.426,-0.061C0.386,-0.061 0.349,-0.069 0.316,-0.084C0.282,-0.099 0.253,-0.12 0.228,-0.146C0.203,-0.172 0.184,-0.203 0.171,-0.238C0.157,-0.273 0.15,-0.311 0.15,-0.351C0.15,-0.391 0.157,-0.429 0.171,-0.464C0.184,-0.499 0.203,-0.529 0.227,-0.555C0.251,-0.581 0.28,-0.602 0.314,-0.617C0.347,-0.631 0.384,-0.639 0.424,-0.639C0.464,-0.639 0.501,-0.631 0.535,-0.616C0.568,-0.601 0.597,-0.58 0.622,-0.554C0.647,-0.528 0.666,-0.497 0.68,-0.462C0.693,-0.427 0.7,-0.389 0.7,-0.349Z" style="fill:rgb(35,31,32);fill-rule:nonzero;"/>
                    </g>
                    <g transform="matrix(7,0,0,7,32.0021,76.1372)">
                        <path d="M0.782,-0.351C0.782,-0.4 0.774,-0.446 0.756,-0.49C0.74,-0.533 0.715,-0.572 0.684,-0.605C0.653,-0.637 0.615,-0.664 0.572,-0.683C0.528,-0.702 0.479,-0.712 0.426,-0.712C0.373,-0.712 0.324,-0.702 0.28,-0.683C0.236,-0.663 0.198,-0.636 0.167,-0.603C0.136,-0.57 0.111,-0.531 0.094,-0.488C0.077,-0.444 0.068,-0.398 0.068,-0.349C0.068,-0.3 0.077,-0.254 0.094,-0.211C0.111,-0.167 0.135,-0.129 0.166,-0.096C0.197,-0.063 0.235,-0.036 0.279,-0.017C0.322,0.002 0.371,0.012 0.424,0.012C0.477,0.012 0.526,0.002 0.57,-0.018C0.614,-0.037 0.652,-0.064 0.683,-0.097C0.714,-0.13 0.739,-0.169 0.756,-0.213C0.773,-0.256 0.782,-0.302 0.782,-0.351ZM0.7,-0.349C0.7,-0.309 0.693,-0.272 0.68,-0.236C0.666,-0.202 0.647,-0.171 0.623,-0.145C0.599,-0.119 0.57,-0.099 0.537,-0.084C0.503,-0.069 0.466,-0.061 0.426,-0.061C0.386,-0.061 0.349,-0.069 0.316,-0.084C0.282,-0.099 0.253,-0.12 0.228,-0.146C0.203,-0.172 0.184,-0.203 0.171,-0.238C0.157,-0.273 0.15,-0.311 0.15,-0.351C0.15,-0.391 0.157,-0.429 0.171,-0.464C0.184,-0.499 0.203,-0.529 0.227,-0.555C0.251,-0.581 0.28,-0.602 0.314,-0.617C0.347,-0.631 0.384,-0.639 0.424,-0.639C0.464,-0.639 0.501,-0.631 0.535,-0.616C0.568,-0.601 0.597,-0.58 0.622,-0.554C0.647,-0.528 0.666,-0.497 0.68,-0.462C0.693,-0.427 0.7,-0.389 0.7,-0.349Z" style="fill:rgb(35,31,32);fill-rule:nonzero;"/>
                    </g>
                    <g transform="matrix(7,0,0,7,37.7351,76.1372)">
                        <path d="M0.714,-0.351C0.714,-0.4 0.705,-0.446 0.687,-0.489C0.669,-0.532 0.644,-0.569 0.611,-0.6C0.578,-0.631 0.538,-0.656 0.493,-0.674C0.447,-0.691 0.397,-0.7 0.342,-0.7L0.099,-0.7L0.099,0L0.342,0C0.397,0 0.447,-0.009 0.493,-0.027C0.538,-0.045 0.578,-0.07 0.611,-0.101C0.644,-0.132 0.669,-0.17 0.687,-0.213C0.705,-0.256 0.714,-0.302 0.714,-0.351ZM0.632,-0.349C0.632,-0.31 0.625,-0.273 0.612,-0.24C0.598,-0.207 0.579,-0.178 0.554,-0.153C0.529,-0.128 0.498,-0.108 0.462,-0.094C0.426,-0.08 0.386,-0.073 0.342,-0.073L0.178,-0.073L0.178,-0.627L0.342,-0.627C0.386,-0.627 0.426,-0.62 0.462,-0.606C0.498,-0.591 0.529,-0.572 0.554,-0.547C0.579,-0.522 0.598,-0.492 0.612,-0.458C0.625,-0.424 0.632,-0.388 0.632,-0.349Z" style="fill:rgb(35,31,32);fill-rule:nonzero;"/>
                    </g>
                    <g transform="matrix(7,0,0,7,42.9221,76.1372)">
                        <path d="M0.16,-0.526C0.16,-0.542 0.164,-0.557 0.171,-0.571C0.178,-0.585 0.188,-0.597 0.201,-0.607C0.214,-0.617 0.229,-0.625 0.248,-0.631C0.266,-0.637 0.286,-0.64 0.309,-0.64C0.345,-0.64 0.38,-0.634 0.412,-0.622C0.446,-0.61 0.478,-0.591 0.511,-0.564L0.557,-0.625C0.521,-0.653 0.484,-0.675 0.446,-0.689C0.407,-0.703 0.362,-0.71 0.311,-0.71C0.278,-0.71 0.247,-0.705 0.219,-0.695C0.191,-0.686 0.167,-0.672 0.146,-0.655C0.125,-0.638 0.109,-0.618 0.098,-0.595C0.087,-0.571 0.081,-0.546 0.081,-0.518C0.081,-0.488 0.086,-0.463 0.095,-0.442C0.104,-0.42 0.119,-0.402 0.138,-0.386C0.158,-0.369 0.182,-0.356 0.212,-0.344C0.242,-0.333 0.276,-0.323 0.317,-0.314C0.353,-0.306 0.384,-0.298 0.407,-0.289C0.431,-0.281 0.45,-0.271 0.463,-0.26C0.476,-0.25 0.486,-0.238 0.491,-0.225C0.496,-0.212 0.499,-0.197 0.499,-0.18C0.499,-0.144 0.485,-0.115 0.457,-0.093C0.428,-0.071 0.39,-0.06 0.343,-0.06C0.294,-0.06 0.251,-0.068 0.214,-0.085C0.177,-0.101 0.14,-0.126 0.103,-0.159L0.054,-0.101C0.096,-0.063 0.14,-0.035 0.187,-0.017C0.233,0.001 0.284,0.01 0.34,0.01C0.375,0.01 0.407,0.005 0.436,-0.004C0.465,-0.013 0.49,-0.027 0.511,-0.044C0.532,-0.061 0.548,-0.082 0.56,-0.107C0.572,-0.132 0.578,-0.159 0.578,-0.189C0.578,-0.243 0.56,-0.286 0.523,-0.317C0.486,-0.347 0.428,-0.371 0.35,-0.389C0.311,-0.397 0.28,-0.405 0.255,-0.414C0.23,-0.423 0.211,-0.433 0.197,-0.444C0.183,-0.455 0.173,-0.467 0.168,-0.481C0.163,-0.494 0.16,-0.509 0.16,-0.526Z" style="fill:rgb(35,31,32);fill-rule:nonzero;"/>
                    </g>
                    <g transform="matrix(7,0,0,7,49.0681,76.1372)">
                        <rect x="0.106" y="-0.7" width="0.079" height="0.7" style="fill:rgb(35,31,32);fill-rule:nonzero;"/>
                    </g>
                    <g transform="matrix(7,0,0,7,50.8881,76.1372)">
                        <path d="M0.614,-0.139L0.173,-0.7L0.099,-0.7L0.099,0L0.176,0L0.176,-0.574L0.628,0L0.691,0L0.691,-0.7L0.614,-0.7L0.614,-0.139Z" style="fill:rgb(35,31,32);fill-rule:nonzero;"/>
                    </g>
                    <g transform="matrix(7,0,0,7,56.2011,76.1372)">
                        <path d="M0.699,-0.111L0.647,-0.162C0.614,-0.13 0.58,-0.105 0.545,-0.087C0.51,-0.07 0.469,-0.061 0.421,-0.061C0.382,-0.061 0.346,-0.069 0.314,-0.084C0.281,-0.099 0.252,-0.119 0.228,-0.145C0.203,-0.171 0.184,-0.202 0.171,-0.237C0.157,-0.272 0.15,-0.31 0.15,-0.351C0.15,-0.392 0.157,-0.43 0.171,-0.465C0.184,-0.5 0.203,-0.53 0.228,-0.556C0.252,-0.582 0.281,-0.602 0.314,-0.617C0.346,-0.632 0.382,-0.639 0.421,-0.639C0.469,-0.639 0.51,-0.63 0.545,-0.612C0.579,-0.594 0.611,-0.571 0.641,-0.543L0.695,-0.601C0.678,-0.618 0.66,-0.633 0.641,-0.647C0.622,-0.66 0.602,-0.672 0.58,-0.682C0.558,-0.691 0.534,-0.699 0.508,-0.704C0.483,-0.709 0.454,-0.712 0.422,-0.712C0.371,-0.712 0.323,-0.703 0.28,-0.684C0.237,-0.665 0.199,-0.639 0.168,-0.606C0.137,-0.573 0.112,-0.534 0.095,-0.49C0.077,-0.446 0.068,-0.399 0.068,-0.349C0.068,-0.298 0.077,-0.251 0.095,-0.207C0.112,-0.163 0.137,-0.125 0.168,-0.093C0.199,-0.06 0.236,-0.035 0.279,-0.016C0.322,0.003 0.368,0.012 0.419,0.012C0.451,0.012 0.48,0.009 0.506,0.003C0.532,-0.003 0.556,-0.011 0.579,-0.022C0.602,-0.033 0.623,-0.046 0.643,-0.061C0.662,-0.076 0.681,-0.092 0.699,-0.111Z" style="fill:rgb(35,31,32);fill-rule:nonzero;"/>
                    </g>
                </g>
            </g>
        </g>
    </g>
</svg>
